# Blender 4.1.1
# www.blender.org
o model_4548
v 1.000000 1.816770 0.107756
v 1.000000 1.816770 -0.107756
v 1.000000 2.000000 0.107756
v 1.000000 2.000000 -0.107756
v 0.765941 1.766980 0.053600
v 0.765941 1.766980 -0.053600
v 0.765941 0.202186 0.053600
v 0.765941 0.202186 -0.053600
v 1.000000 1.816770 0.107756
v 0.813741 1.816770 0.100472
v 1.000000 0.152397 0.107756
v 0.813741 0.152397 0.100472
v 0.765941 1.766980 0.053600
v -0.765941 1.766980 0.053600
v 0.765941 1.766980 -0.053600
v -0.765941 1.766980 -0.053600
v -1.000000 1.816770 0.107756
v -1.000000 2.000000 0.107756
v -1.000000 1.816770 -0.107756
v -1.000000 2.000000 -0.107756
v 1.000000 2.000000 -0.107756
v -1.000000 2.000000 -0.107756
v 1.000000 2.000000 0.107756
v -1.000000 2.000000 0.107756
v 1.000000 1.816770 0.107756
v 1.000000 2.000000 0.107756
v 0.813741 1.816770 0.100472
v -1.000000 1.816770 0.107756
v -0.813741 1.816770 0.100472
v -1.000000 2.000000 0.107756
v -1.000000 1.816770 -0.107756
v -0.813741 1.816770 -0.100473
v -1.000000 0.152397 -0.107756
v -0.813741 0.152397 -0.100473
v -1.000000 1.816770 0.107756
v -1.000000 1.816770 -0.107756
v -1.000000 0.152397 0.107756
v -1.000000 0.152397 -0.107756
v 0.765941 0.202186 0.053600
v 0.765941 0.202186 -0.053600
v -0.765941 0.202186 0.053600
v -0.765941 0.202186 -0.053600
v 1.000000 0.152397 0.107756
v 1.000000 -0.031860 0.107756
v 1.000000 0.152397 -0.107756
v 1.000000 -0.031860 -0.107756
v 1.000000 -0.031860 -0.107756
v 1.000000 -0.031860 0.107756
v -1.000000 -0.031860 -0.107756
v -1.000000 -0.031860 0.107756
v 1.000000 -0.031860 0.107756
v 1.000000 0.152397 0.107756
v 0.813741 0.152397 0.100472
v -1.000000 0.152397 0.107756
v -1.000000 -0.031860 0.107756
v -0.813741 0.152397 0.100472
v 1.000000 1.816770 -0.107756
v 1.000000 0.152397 -0.107756
v 0.813741 1.816770 -0.100473
v 0.813741 0.152397 -0.100473
v 1.000000 1.816770 0.107756
v 1.000000 0.152397 0.107756
v 1.000000 1.816770 -0.107756
v 1.000000 0.152397 -0.107756
v -1.000000 0.152397 0.107756
v -1.000000 0.152397 -0.107756
v -1.000000 -0.031860 0.107756
v -1.000000 -0.031860 -0.107756
v -0.765941 1.766980 0.053600
v -0.765941 0.202186 0.053600
v -0.765941 1.766980 -0.053600
v -0.765941 0.202186 -0.053600
v -1.000000 1.816770 0.107756
v -1.000000 0.152397 0.107756
v -0.813741 1.816770 0.100472
v -0.813741 0.152397 0.100472
v 1.000000 0.152397 -0.107756
v 1.000000 -0.031860 -0.107756
v 0.813741 0.152397 -0.100473
v -1.000000 0.152397 -0.107756
v -0.813741 0.152397 -0.100473
v -1.000000 -0.031860 -0.107756
v -1.000000 1.816770 -0.107756
v -1.000000 2.000000 -0.107756
v -0.813741 1.816770 -0.100473
v 1.000000 1.816770 -0.107756
v 0.813741 1.816770 -0.100473
v 1.000000 2.000000 -0.107756
v 0.813741 1.816770 -0.100473
v 0.813741 0.152397 -0.100473
v 0.765941 1.766980 -0.053600
v 0.765941 0.202186 -0.053600
v 0.813741 0.152397 0.100472
v 0.813741 1.816770 0.100472
v 0.765941 0.202186 0.053600
v 0.765941 1.766980 0.053600
v 0.813741 1.816770 0.100472
v -0.813741 1.816770 0.100472
v 0.765941 1.766980 0.053600
v -0.765941 1.766980 0.053600
v -0.813741 1.816770 -0.100473
v 0.813741 1.816770 -0.100473
v -0.765941 1.766980 -0.053600
v 0.765941 1.766980 -0.053600
v 0.813741 0.152397 -0.100473
v -0.813741 0.152397 -0.100473
v 0.765941 0.202186 -0.053600
v -0.765941 0.202186 -0.053600
v -0.813741 0.152397 0.100472
v 0.813741 0.152397 0.100472
v -0.765941 0.202186 0.053600
v 0.765941 0.202186 0.053600
v -0.813741 1.816770 0.100472
v -0.813741 0.152397 0.100472
v -0.765941 1.766980 0.053600
v -0.765941 0.202186 0.053600
v -0.813741 0.152397 -0.100473
v -0.813741 1.816770 -0.100473
v -0.765941 0.202186 -0.053600
v -0.765941 1.766980 -0.053600
vn 0.6998 -0.0000 -0.7143
vn 0.6999 -0.0000 -0.7142
vn 0.7001 -0.0000 0.7140
vn 0.6999 -0.0000 0.7142
vn -0.0000 0.6851 0.7284
vn -0.0000 0.6855 0.7281
vn -0.0000 0.6852 -0.7283
vn -0.0000 0.6851 -0.7284
vn -0.0000 -0.6851 -0.7284
vn -0.0000 -0.6854 0.7281
vn -0.0000 -0.6855 0.7281
vn -0.6998 -0.0000 0.7143
vn -0.6999 -0.0000 0.7142
vn -0.7001 -0.0000 -0.7140
vn -0.6998 -0.0000 -0.7143
vn -0.0391 -0.0000 -0.9992
vn -0.0007 -0.0388 -0.9992
vn -0.0020 -0.0375 -0.9993
vn 0.0007 -0.0388 -0.9992
vn -0.0019 -0.0375 -0.9993
vn 0.0019 -0.0375 -0.9993
vn 0.0391 -0.0000 -0.9992
vn 0.0020 -0.0375 -0.9993
vn 0.0007 0.0388 -0.9992
vn 0.0020 0.0375 -0.9993
vn -0.0006 0.0388 -0.9992
vn 0.0019 0.0376 -0.9993
vn 0.0006 0.0388 -0.9992
vn -0.0019 0.0376 -0.9993
vn -0.0020 0.0375 -0.9993
vn -0.0007 0.0388 -0.9992
vn 0.0391 -0.0000 0.9992
vn 1.0000 -0.0000 -0.0000
vn -1.0000 -0.0000 -0.0000
vn 0.0019 0.0376 0.9993
vn 0.0007 0.0388 0.9992
vn -0.0006 0.0388 0.9992
vn 0.0006 0.0388 0.9992
vn -0.0019 0.0376 0.9993
vn -0.0007 0.0388 0.9992
vn -0.0019 0.0375 0.9993
vn -0.0391 -0.0000 0.9992
vn -0.0000 -1.0000 -0.0000
vn -0.0000 1.0000 -0.0000
vn 0.0007 -0.0388 0.9992
vn 0.0019 -0.0376 0.9993
vn -0.0006 -0.0388 0.9992
vn 0.0006 -0.0388 0.9992
vn -0.0019 -0.0375 0.9993
vn 0.0019 -0.0375 0.9993
vn -0.0007 -0.0388 0.9992
vn -0.0019 -0.0376 0.9993
vt 0.946425 0.957954
vt 0.929830 0.010782
vt 0.946425 0.039442
vt 0.929830 0.986614
vt 0.929829 0.010782
vt 0.929829 0.986614
vt 0.983498 0.942050
vt 0.969168 0.048825
vt 0.983498 0.082017
vt 0.969168 0.975242
vt 0.969168 0.975241
vt 0.983498 0.942049
vt 0.969168 0.048825
vt 0.983498 0.082017
vt 0.929830 0.010782
vt 0.018496 0.216702
vt 0.074561 0.216702
vt 0.018496 0.327341
vt 0.562858 0.216702
vt 0.618957 0.327341
vt 0.618957 0.216702
vt 0.618957 0.153214
vt 0.562858 0.153214
vt 0.618957 0.042574
vt 0.074561 0.153214
vt 0.018496 0.042574
vt 0.018496 0.153214
vt 0.022988 0.724261
vt 0.532279 0.612420
vt 0.532279 0.724261
vt 0.022988 0.612420
vt 0.904201 0.972711
vt 0.873347 0.054200
vt 0.904201 0.054200
vt 0.873347 0.972711
vt 0.706392 0.042574
vt 0.641738 0.153214
vt 0.641738 0.042574
vt 0.706392 0.153214
vt 0.792259 0.991287
vt 0.730229 0.015455
vt 0.792259 0.015455
vt 0.730229 0.991287
vt 0.022988 0.724544
vt 0.532279 0.612700
vt 0.532279 0.724549
vt 0.022988 0.612701
vt 0.622988 0.939430
vt 0.022988 0.810124
vt 0.622988 0.810124
vt 0.022988 0.939430
vt 0.817476 0.972711
vt 0.849635 0.054200
vt 0.849635 0.972711
vt 0.817476 0.054200
vt 0.792258 0.015455
vt 0.792258 0.991287
vt 0.022988 0.411806
vt 0.532280 0.523749
vt 0.022988 0.523753
vt 0.532280 0.411807
vt 0.641738 0.216702
vt 0.706392 0.327341
vt 0.641738 0.327341
vt 0.706392 0.216702
vt 0.022988 0.411557
vt 0.532280 0.523397
vt 0.022988 0.523397
vt 0.532280 0.411557
s 0
f 119/1/1 118/2/1 120/3/1
f 117/4/2 118/2/2 119/1/2
f 115/1/3 114/5/3 116/3/3
f 113/6/4 114/5/4 115/1/4
f 111/7/5 110/8/5 112/9/5
f 109/10/6 110/8/6 111/7/6
f 107/7/7 106/8/7 108/9/7
f 105/11/8 106/8/8 107/7/8
f 103/12/9 102/13/9 104/14/9
f 101/11/9 102/13/9 103/12/9
f 99/12/10 98/13/10 100/14/10
f 97/11/11 98/13/11 99/12/11
f 95/1/12 94/2/12 96/3/12
f 93/4/13 94/2/13 95/1/13
f 91/1/14 90/15/14 92/3/14
f 89/4/15 90/15/15 91/1/15
f 86/16/16 87/17/17 88/18/18
f 85/19/19 88/18/20 87/17/17
f 84/20/21 88/18/20 85/19/19
f 83/21/22 84/20/23 85/19/19
f 80/22/22 81/23/24 82/24/25
f 79/25/26 82/24/27 81/23/28
f 78/26/29 82/24/27 79/25/26
f 77/27/16 78/26/30 79/25/31
f 75/28/32 74/29/32 76/30/32
f 73/31/32 74/29/32 75/28/32
f 71/32/33 70/33/33 72/34/33
f 69/35/33 70/33/33 71/32/33
f 67/36/34 66/37/34 68/38/34
f 65/39/34 66/37/34 67/36/34
f 63/40/33 62/41/33 64/42/33
f 61/43/33 62/41/33 63/40/33
f 59/44/16 58/45/16 60/46/16
f 57/47/16 58/45/16 59/44/16
f 54/27/32 55/26/35 56/25/36
f 55/26/35 53/23/37 56/25/38
f 51/24/39 53/23/40 55/26/35
f 51/24/41 52/22/42 53/23/40
f 49/48/43 48/49/43 50/50/43
f 47/51/43 48/49/43 49/48/43
f 45/39/33 44/38/33 46/36/33
f 43/37/33 44/38/33 45/39/33
f 41/52/44 40/53/44 42/54/44
f 39/55/44 40/53/44 41/52/44
f 37/56/34 36/43/34 38/41/34
f 35/57/34 36/43/34 37/56/34
f 33/58/22 32/59/22 34/60/22
f 31/61/22 32/59/22 33/58/22
f 28/16/32 29/17/45 30/18/46
f 27/19/47 30/18/46 29/17/48
f 26/20/49 30/18/50 27/19/51
f 25/21/42 26/20/52 27/19/51
f 23/50/44 22/51/44 24/49/44
f 21/48/44 22/51/44 23/50/44
f 19/62/34 18/63/34 20/64/34
f 17/65/34 18/63/34 19/62/34
f 15/54/43 14/55/43 16/53/43
f 13/52/43 14/55/43 15/54/43
f 11/66/42 10/67/42 12/68/42
f 9/69/42 10/67/42 11/66/42
f 7/34/34 6/35/34 8/33/34
f 5/32/34 6/35/34 7/34/34
f 3/64/33 2/65/33 4/63/33
f 1/62/33 2/65/33 3/64/33
o model_4554
v -0.813741 0.152397 -0.000000
v 0.813741 0.152397 -0.000000
v -0.813741 1.816770 -0.000000
v 0.813741 1.816770 -0.000000
vn -0.0000 -0.0000 1.0000
vt 0.000000 1.000000
vt 1.000000 0.000000
vt 1.000000 1.000000
vt 0.000000 0.000000
s 0
f 123/70/53 122/71/53 124/72/53
f 121/73/53 122/71/53 123/70/53
