#
# OBJECT NAME
#
o model_4240
mtllib 4240.mtl

#
# VERTEX BUFFER 000
#
v -0.499999 0 0.499981
v -0.499999 0.329981 0.17
v -0.499999 9.53674e-006 -0.50001
v -0.499999 0.329981 0.499981
v -0.499999 0.664986 0.17
v -0.499999 0.664986 -0.165005
v -0.499999 1 -0.165005
v -0.499999 1.00001 -0.50001
v -0.499999 0 0.499981
v 0.499995 0 0.499981
v -0.499999 0.329981 0.499981
v 0.499995 0.329981 0.499981
v -0.499999 9.53674e-006 -0.50001
v 0.499995 9.53674e-006 -0.50001
v -0.499999 0 0.499981
v 0.499995 0 0.499981
v 0.499995 0 0.499981
v 0.499995 9.53674e-006 -0.50001
v 0.499995 0.329981 0.17
v -0.499999 0.329981 0.499981
v 0.499995 0.329981 0.499981
v -0.499999 0.329981 0.17
v 0.499995 0.329981 0.17
v 0.499995 0.329981 0.499981
v -0.499999 0.329981 0.17
v 0.499995 0.329981 0.17
v -0.499999 0.664986 0.17
v 0.499995 0.664986 0.17
v -0.499999 0.664986 0.17
v 0.499995 0.664986 0.17
v -0.499999 0.664986 -0.165005
v 0.499995 0.664986 -0.165005
v 0.499995 0.664986 -0.165005
v 0.499995 0.664986 0.17
v -0.499999 0.664986 -0.165005
v 0.499995 0.664986 -0.165005
v -0.499999 1 -0.165005
v 0.499995 1 -0.165005
v -0.499999 1 -0.165005
v 0.499995 1 -0.165005
v -0.499999 1.00001 -0.50001
v 0.499995 1.00001 -0.50001
v 0.499995 1.00001 -0.50001
v 0.499995 1 -0.165005
v -0.499999 1.00001 -0.50001
v 0.499995 1.00001 -0.50001
v -0.499999 9.53674e-006 -0.50001
v 0.499995 9.53674e-006 -0.50001

vn -1 0 0
vn -1 0 0
vn -1 0 0
vn -1 0 0
vn -1 0 0
vn -1 0 0
vn -1 0 0
vn -1 0 0
vn 0 0 1
vn 0 0 1
vn 0 0 1
vn 0 0 1
vn 0 -1 0
vn 0 -1 0
vn 0 -1 0
vn 0 -1 0
vn 1 0 0
vn 1 0 0
vn 1 0 0
vn 0 1 0
vn 0 1 0
vn 0 1 0
vn 0 1 0
vn 1 0 0
vn 0 0 1
vn 0 0 1
vn 0 0 1
vn 0 0 1
vn 0 1 0
vn 0 1 0
vn 0 1 0
vn 0 1 0
vn 1 0 0
vn 1 0 0
vn 0 0 1
vn 0 0 1
vn 0 0 1
vn 0 0 1
vn 0 1 0
vn 0 1 0
vn 0 1 0
vn 0 1 0
vn 1 0 0
vn 1 0 0
vn 0 0 -1
vn 0 0 -1
vn 0 0 -1
vn 0 0 -1

vt 0.0280766 0.028028
vt 0.139058 0.13901
vt 0.472004 0.028028
vt 0.0280766 0.13901
vt 0.139058 0.249992
vt 0.249721 0.25039
vt 0.249721 0.365198
vt 0.472004 0.365198
vt 0.522742 0.00915235
vt 0.977285 0.00915235
vt 0.522742 0.117051
vt 0.977285 0.117051
vt 0.471981 0.971964
vt 0.0280539 0.971964
vt 0.471981 0.528037
vt 0.0280539 0.528037
vt 0.0280766 0.028028
vt 0.472004 0.028028
vt 0.139058 0.13901
vt 0.522742 0.133738
vt 0.977285 0.133738
vt 0.522742 0.241637
vt 0.977285 0.241637
vt 0.0280766 0.13901
vt 0.522742 0.259152
vt 0.977285 0.259152
vt 0.522742 0.367051
vt 0.977285 0.367051
vt 0.522742 0.383933
vt 0.977285 0.383933
vt 0.522742 0.491832
vt 0.977285 0.491832
vt 0.249721 0.25039
vt 0.139058 0.249992
vt 0.522742 0.758324
vt 0.977285 0.758324
vt 0.522742 0.866223
vt 0.977285 0.866223
vt 0.522742 0.882909
vt 0.977285 0.882909
vt 0.522742 0.990808
vt 0.977285 0.990808
vt 0.472004 0.365198
vt 0.249721 0.365198
vt 0.471981 0.971964
vt 0.0280539 0.971964
vt 0.471981 0.528037
vt 0.0280539 0.528037


#
# MESH 000
#
g surface_000
usemtl surface_000
f 47/47/47 46/46/46 48/48/48
f 45/45/45 46/46/46 47/47/47
f 33/33/33 43/43/43 44/44/44
f 33/33/33 18/18/18 43/43/43
f 19/19/19 18/18/18 33/33/33
f 17/17/17 18/18/18 19/19/19
f 17/17/17 19/19/19 24/24/24
f 19/19/19 33/33/33 34/34/34
f 41/41/41 40/40/40 42/42/42
f 39/39/39 40/40/40 41/41/41
f 37/37/37 36/36/36 38/38/38
f 35/35/35 36/36/36 37/37/37
f 31/31/31 30/30/30 32/32/32
f 29/29/29 30/30/30 31/31/31
f 27/27/27 26/26/26 28/28/28
f 25/25/25 26/26/26 27/27/27
f 22/22/22 21/21/21 23/23/23
f 20/20/20 21/21/21 22/22/22
f 15/15/15 14/14/14 16/16/16
f 13/13/13 14/14/14 15/15/15
f 11/11/11 10/10/10 12/12/12
f 9/9/9 10/10/10 11/11/11
f 6/6/6 7/7/7 8/8/8
f 6/6/6 8/8/8 3/3/3
f 2/2/2 6/6/6 3/3/3
f 2/2/2 5/5/5 6/6/6
f 1/1/1 2/2/2 3/3/3
f 1/1/1 4/4/4 2/2/2

