#
# OBJECT NAME
#
o model_3383
mtllib 3383.mtl

#
# VERTEX BUFFER 000
#
v 0 2.71296 -0.394165
v 0 0.509439 -0.394165
v -0.420565 2.71296 -0.394165
v -0.402317 0.219377 -0.394165
v 0.420567 2.71296 -0.394165
v 0.420567 0.230212 -0.394165
v 0.402317 0.219377 -0.394165
v 0.420567 2.71296 -0.394165
v 0.420567 2.71296 -0.355614
v 0.420567 0.230212 -0.394165
v 0.420567 0.230212 -0.355614
v -0.420565 2.71296 -0.355614
v -0.420565 2.71296 -0.394165
v -0.420565 0.230212 -0.355614
v -0.420565 0.230212 -0.394165
v -0.420565 0.230212 -0.355614
v -0.402317 0.219377 -0.355614
v -0.420565 2.71296 -0.355614
v -0.402317 0.219377 -0.355614
v -0.402317 0.219377 -0.394165
v 0 0.509439 -0.355614
v 0 0.509439 -0.394165
v -0.420565 0.230212 -0.355614
v -0.420565 0.230212 -0.394165
v -0.402317 0.219377 -0.355614
v -0.402317 0.219377 -0.394165
v 0.402317 0.219377 -0.355614
v 0.420567 2.71296 -0.355614
v 0 0.509439 -0.355614
v 0 2.71296 -0.355614
v 0.402317 0.219377 -0.394165
v 0.402317 0.219377 -0.355614
v 0 0.509439 -0.394165
v 0 0.509439 -0.355614
v 0.402317 0.219377 -0.394165
v 0.402317 0.219377 -0.355614
v 0 0.509439 -0.355614
v 0 2.71296 -0.355614
v -0.420565 0.230212 -0.394165
v 0.402317 0.219377 -0.394165
v 0 0.509439 -0.394165
v 0.420567 2.71296 -0.394165
v 0 2.71296 -0.394165
v 0.420567 0.230212 -0.355614
v -0.31282 2.74118 -0.281433
v -0.31282 2.64772 -0.374889
v 0.31282 2.74118 -0.281433
v 0.31282 2.64772 -0.374889
v -0.31282 2.83463 -0.374889
v -0.31282 2.74118 -0.281433
v 0.31282 2.83463 -0.374889
v 0.31282 2.74118 -0.281433
v -0.31282 2.74118 -0.468346
v -0.31282 2.83463 -0.374889
v 0.31282 2.74118 -0.468346
v 0.31282 2.83463 -0.374889
v -0.31282 2.64772 -0.374889
v -0.31282 2.74118 -0.468346
v 0.31282 2.64772 -0.374889
v 0.31282 2.74118 -0.468346
v 0.191866 2.61607 -0.374889
v 0.191866 2.74118 -0.249779
v 0.0996094 2.61607 -0.374889
v 0.0996094 2.74118 -0.249779
v 0.191866 2.74118 -0.249779
v 0.191866 2.86629 -0.374889
v 0.0996094 2.74118 -0.249779
v 0.0996094 2.86629 -0.374889
v 0.191866 2.86629 -0.374889
v 0.191866 2.74118 -0.5
v 0.0996094 2.86629 -0.374889
v 0.0996094 2.74118 -0.5
v 0.191866 2.74118 -0.5
v 0.191866 2.61607 -0.374889
v 0.0996094 2.74118 -0.5
v 0.0996094 2.61607 -0.374889
v 0.0996094 2.86629 -0.374889
v 0.0996094 2.74118 -0.5
v 0.0996094 2.74118 -0.249779
v 0.0996094 2.61607 -0.374889
v 0.191866 2.86629 -0.374889
v 0.191866 2.74118 -0.249779
v 0.191866 2.74118 -0.5
v 0.191866 2.61607 -0.374889
v 0.47117 2.74334 -0.258949
v 0.47117 2.85712 -0.354019
v 0.307835 2.74334 -0.258949
v 0.307835 2.85712 -0.354019
v 0.47117 2.85712 -0.490833
v 0.307835 2.85712 -0.490833
v 0.47117 2.85712 -0.490833
v 0.47117 2.62523 -0.490833
v 0.307835 2.85712 -0.490833
v 0.307835 2.62523 -0.490833
v 0.47117 2.62523 -0.490833
v 0.47117 2.62523 -0.258949
v 0.307835 2.62523 -0.490833
v 0.307835 2.62523 -0.258949
v 0.307835 2.62523 -0.258949
v 0.307835 2.74334 -0.258949
v 0.307835 2.62523 -0.490833
v 0.307835 2.85712 -0.354019
v 0.307835 2.85712 -0.490833
v 0.47117 2.74334 -0.258949
v 0.47117 2.62523 -0.490833
v 0.47117 2.85712 -0.354019
v 0.47117 2.62523 -0.258949
v 0.307835 2.62523 -0.258949
v 0.47117 2.62523 -0.258949
v 0.47117 2.85712 -0.490833
v -0.191866 2.61607 -0.374889
v -0.0996094 2.61607 -0.374889
v -0.191866 2.74118 -0.249779
v -0.0996094 2.74118 -0.249779
v -0.191866 2.74118 -0.249779
v -0.0996094 2.74118 -0.249779
v -0.191866 2.86629 -0.374889
v -0.0996094 2.86629 -0.374889
v -0.191866 2.86629 -0.374889
v -0.0996094 2.86629 -0.374889
v -0.191866 2.74118 -0.5
v -0.0996094 2.74118 -0.5
v -0.191866 2.74118 -0.5
v -0.0996094 2.74118 -0.5
v -0.191866 2.61607 -0.374889
v -0.0996094 2.61607 -0.374889
v -0.0996094 2.86629 -0.374889
v -0.0996094 2.74118 -0.249779
v -0.0996094 2.74118 -0.5
v -0.0996094 2.61607 -0.374889
v -0.191866 2.86629 -0.374889
v -0.191866 2.74118 -0.5
v -0.191866 2.74118 -0.249779
v -0.191866 2.61607 -0.374889
v -0.47117 2.74334 -0.258949
v -0.307835 2.74334 -0.258949
v -0.47117 2.85712 -0.354019
v -0.307835 2.85712 -0.354019
v -0.47117 2.85712 -0.490833
v -0.307835 2.85712 -0.490833
v -0.47117 2.85712 -0.490833
v -0.307835 2.85712 -0.490833
v -0.47117 2.62523 -0.490833
v -0.307835 2.62523 -0.490833
v -0.47117 2.62523 -0.490833
v -0.307835 2.62523 -0.490833
v -0.47117 2.62523 -0.258949
v -0.307835 2.62523 -0.258949
v -0.307835 2.62523 -0.258949
v -0.307835 2.62523 -0.490833
v -0.307835 2.74334 -0.258949
v -0.307835 2.85712 -0.354019
v -0.307835 2.85712 -0.490833
v -0.47117 2.85712 -0.354019
v -0.47117 2.85712 -0.490833
v -0.47117 2.62523 -0.490833
v -0.47117 2.62523 -0.258949
v -0.47117 2.74334 -0.258949
v -0.47117 2.62523 -0.258949
v -0.307835 2.62523 -0.258949

vn 0 0 -1
vn 0 0 -1
vn 0 0 -1
vn 0 0 -1
vn 2.6226e-006 0 -1
vn 2.6226e-006 0 -1
vn 2.6226e-006 0 -1
vn 1 0 0
vn 1 0 0
vn 0.999512 -0.00731659 0
vn 0.999512 -0.00731659 0
vn -1 0 0
vn -1 0 0
vn -0.999512 -0.00731659 0
vn -0.999512 -0.00731659 0
vn 0 0 1
vn 0 0 1
vn 0 0 1
vn 0.584473 -0.811035 7.7486e-007
vn 0.584473 -0.811035 7.7486e-007
vn 0.584473 -0.811035 7.7486e-007
vn 0.584473 -0.811035 7.7486e-007
vn -0.999512 -0.00731659 0
vn -0.999512 -0.00731659 0
vn -0.510254 -0.859375 5.36442e-007
vn -0.510254 -0.859375 5.36442e-007
vn 0 0 1
vn 0 0 1
vn 0 0 1
vn 0 0 1
vn -0.584473 -0.811035 -7.7486e-007
vn -0.584473 -0.811035 -7.7486e-007
vn -0.584473 -0.811035 -7.7486e-007
vn -0.584473 -0.811035 -7.7486e-007
vn 0.510254 -0.859863 -5.36442e-007
vn 0.510254 -0.859863 -5.36442e-007
vn 0 0 1
vn 0 0 1
vn 0 0 -1
vn 0 0 -1
vn 0 0 -1
vn 0 0 -1
vn 0 0 -1
vn 0 0 1
vn 0 -0.707031 0.707031
vn 0 -0.707031 0.707031
vn 0 -0.707031 0.707031
vn 0 -0.707031 0.707031
vn 0 0.707031 0.707031
vn 0 0.707031 0.707031
vn 0 0.707031 0.707031
vn 0 0.707031 0.707031
vn 0 0.707031 -0.707031
vn 0 0.707031 -0.707031
vn 0 0.707031 -0.707031
vn 0 0.707031 -0.707031
vn 0 -0.707031 -0.707031
vn 0 -0.707031 -0.707031
vn 0 -0.707031 -0.707031
vn 0 -0.707031 -0.707031
vn 0 -0.707031 0.707031
vn 0 -0.707031 0.707031
vn 0 -0.707031 0.707031
vn 0 -0.707031 0.707031
vn 0 0.707031 0.707031
vn 0 0.707031 0.707031
vn 0 0.707031 0.707031
vn 0 0.707031 0.707031
vn 0 0.707031 -0.707031
vn 0 0.707031 -0.707031
vn 0 0.707031 -0.707031
vn 0 0.707031 -0.707031
vn 0 -0.707031 -0.707031
vn 0 -0.707031 -0.707031
vn 0 -0.707031 -0.707031
vn 0 -0.707031 -0.707031
vn -1 0 0
vn -1 0 0
vn -1 0 0
vn -1 0 0
vn 1 0 0
vn 1 0 0
vn 1 0 0
vn 1 0 0
vn 0 0.37915 0.924805
vn 0 0.897461 0.44043
vn 0 0.37915 0.924805
vn 0 0.897461 0.44043
vn 0 1 0
vn 0 1 0
vn 0 0 -1
vn 0 0 -1
vn 0 0 -1
vn 0 0 -1
vn 0 -1 0
vn 0 -1 0
vn 0 -1 0
vn 0 -1 0
vn -1 0 0
vn -1 0 0
vn -1 0 0
vn -1 0 0
vn -1 0 0
vn 1 0 0
vn 1 0 0
vn 1 0 0
vn 0 0 1
vn 0 0 1
vn 1 0 0
vn 1 0 0
vn 0 -0.707031 0.707031
vn 0 -0.707031 0.707031
vn 0 -0.707031 0.707031
vn 0 -0.707031 0.707031
vn 0 0.707031 0.707031
vn 0 0.707031 0.707031
vn 0 0.707031 0.707031
vn 0 0.707031 0.707031
vn 0 0.707031 -0.707031
vn 0 0.707031 -0.707031
vn 0 0.707031 -0.707031
vn 0 0.707031 -0.707031
vn 0 -0.707031 -0.707031
vn 0 -0.707031 -0.707031
vn 0 -0.707031 -0.707031
vn 0 -0.707031 -0.707031
vn 1 0 0
vn 1 0 0
vn 1 0 0
vn 1 0 0
vn -1 0 0
vn -1 0 0
vn -1 0 0
vn -1 0 0
vn 0 0.37915 0.924805
vn 0 0.37915 0.924805
vn 0 0.897461 0.44043
vn 0 0.897461 0.44043
vn 0 1 0
vn 0 1 0
vn 0 0 -1
vn 0 0 -1
vn 0 0 -1
vn 0 0 -1
vn 0 -1 0
vn 0 -1 0
vn 0 -1 0
vn 0 -1 0
vn 1 0 0
vn 1 0 0
vn 1 0 0
vn 1 0 0
vn 1 0 0
vn -1 0 0
vn -1 0 0
vn -1 0 0
vn -1 0 0
vn -1 0 0
vn 0 0 1
vn 0 0 1

vt 0.750895 0.984647
vt 0.750895 0.368507
vt 0.693813 0.984647
vt 0.696339 0.293418
vt 0.693813 0.984647
vt 0.693813 0.296465
vt 0.696339 0.293418
vt 0.984758 0.984647
vt 0.979344 0.984647
vt 0.98426 0.284551
vt 0.978846 0.284551
vt 0.984636 0.984647
vt 0.979221 0.984647
vt 0.984138 0.284551
vt 0.978723 0.284551
vt 0.820835 0.292096
vt 0.818226 0.288969
vt 0.820835 0.984647
vt 0.0161801 0.264179
vt 0.0161801 0.255547
vt 0.0735938 0.264179
vt 0.0735938 0.255547
vt 0.984231 0.284551
vt 0.978816 0.284551
vt 0.984231 0.277713
vt 0.978816 0.277746
vt 0.818226 0.288961
vt 0.820835 0.984647
vt 0.762502 0.363456
vt 0.762502 0.984647
vt 0.139084 0.255547
vt 0.139084 0.264179
vt 0.0816783 0.255547
vt 0.0816783 0.264179
vt 0.98426 0.277819
vt 0.978846 0.277787
vt 0.762502 0.363456
vt 0.762502 0.984647
vt 0.693813 0.296465
vt 0.696339 0.293418
vt 0.750895 0.368507
vt 0.693813 0.984647
vt 0.750895 0.984647
vt 0.820835 0.292078
vt 0.169359 0.0502491
vt 0.169359 0.0229693
vt 0.245337 0.050198
vt 0.245337 0.0229693
vt 0.169359 0.108638
vt 0.169359 0.0822963
vt 0.245337 0.10857
vt 0.245337 0.0822451
vt 0.169359 0.175459
vt 0.169359 0.148053
vt 0.245337 0.175408
vt 0.245337 0.148053
vt 0.169359 0.234731
vt 0.169359 0.206291
vt 0.245337 0.234713
vt 0.245337 0.20624
vt 0.0296671 0.0414393
vt 0.0626134 0.0414393
vt 0.0296671 0.0730941
vt 0.0626134 0.0730941
vt 0.0769146 0.0414393
vt 0.107055 0.0414393
vt 0.0769146 0.0730941
vt 0.107055 0.0730941
vt 0.0296671 0.0414393
vt 0.0626134 0.0414393
vt 0.0296671 0.0730941
vt 0.0626134 0.0730941
vt 0.0769146 0.0414393
vt 0.107055 0.0414393
vt 0.0769146 0.0730941
vt 0.107055 0.0730941
vt 0.120932 0.117222
vt 0.120932 0.0413652
vt 0.159068 0.117223
vt 0.159067 0.0413651
vt 0.120932 0.117222
vt 0.120932 0.0413652
vt 0.159068 0.117223
vt 0.159067 0.0413651
vt 0.00858158 0.191756
vt 0.00858163 0.148151
vt 0.0327305 0.191756
vt 0.0327305 0.148151
vt 0.00858163 0.107915
vt 0.0327305 0.107915
vt 0.159861 0.155524
vt 0.159861 0.22372
vt 0.135712 0.155524
vt 0.135712 0.22372
vt 0.135712 0.22372
vt 0.135712 0.155524
vt 0.159861 0.22372
vt 0.159861 0.155524
vt 0.117801 0.159968
vt 0.117801 0.189495
vt 0.0886563 0.159968
vt 0.105852 0.21794
vt 0.0886563 0.21794
vt 0.0451531 0.189495
vt 0.0742973 0.159968
vt 0.057102 0.21794
vt 0.00858154 0.226491
vt 0.0327305 0.226491
vt 0.0451531 0.159968
vt 0.0742973 0.21794
vt 0.0296671 0.0730941
vt 0.0296671 0.0414393
vt 0.0626134 0.0730941
vt 0.0626134 0.0414393
vt 0.0769146 0.0730941
vt 0.0769146 0.0414393
vt 0.107055 0.0730941
vt 0.107055 0.0414393
vt 0.0296671 0.0730941
vt 0.0296671 0.0414393
vt 0.0626134 0.0730941
vt 0.0626134 0.0414393
vt 0.0769146 0.0730941
vt 0.0769146 0.0414393
vt 0.107055 0.0730941
vt 0.107055 0.0414393
vt 0.120932 0.117222
vt 0.120932 0.0413652
vt 0.159068 0.117223
vt 0.159067 0.0413651
vt 0.120932 0.117222
vt 0.120932 0.0413652
vt 0.159068 0.117223
vt 0.159067 0.0413651
vt 0.0327305 0.191756
vt 0.00858158 0.191756
vt 0.0327305 0.148151
vt 0.00858163 0.148151
vt 0.0327305 0.107915
vt 0.00858163 0.107915
vt 0.135712 0.155524
vt 0.159861 0.155524
vt 0.135712 0.22372
vt 0.159861 0.22372
vt 0.159861 0.22372
vt 0.135712 0.22372
vt 0.159861 0.155524
vt 0.135712 0.155524
vt 0.0451531 0.159968
vt 0.0742973 0.159968
vt 0.0451531 0.189495
vt 0.057102 0.21794
vt 0.0742973 0.21794
vt 0.105852 0.21794
vt 0.0886563 0.21794
vt 0.0886563 0.159968
vt 0.117801 0.159968
vt 0.117801 0.189495
vt 0.0327305 0.226491
vt 0.00858154 0.226491


#
# MESH 000
#
g surface_000
usemtl surface_000
f 5/5/5 6/6/6 7/7/7
f 159/159/159 160/160/160 135/135/135
f 135/135/135 160/160/160 136/136/136
f 135/135/135 136/136/136 137/137/137
f 137/137/137 136/136/136 138/138/138
f 137/137/137 138/138/138 139/139/139
f 139/139/139 138/138/138 140/140/140
f 156/156/156 157/157/157 158/158/158
f 156/156/156 158/158/158 154/154/154
f 154/154/154 155/155/155 156/156/156
f 150/150/150 153/153/153 152/152/152
f 151/151/151 150/150/150 152/152/152
f 149/149/149 150/150/150 151/151/151
f 147/147/147 146/146/146 148/148/148
f 145/145/145 146/146/146 147/147/147
f 143/143/143 142/142/142 144/144/144
f 141/141/141 142/142/142 143/143/143
f 133/133/133 132/132/132 134/134/134
f 131/131/131 132/132/132 133/133/133
f 129/129/129 128/128/128 130/130/130
f 127/127/127 128/128/128 129/129/129
f 125/125/125 124/124/124 126/126/126
f 123/123/123 124/124/124 125/125/125
f 121/121/121 120/120/120 122/122/122
f 119/119/119 120/120/120 121/121/121
f 117/117/117 116/116/116 118/118/118
f 115/115/115 116/116/116 117/117/117
f 113/113/113 112/112/112 114/114/114
f 111/111/111 112/112/112 113/113/113
f 106/106/106 105/105/105 110/110/110
f 104/104/104 105/105/105 106/106/106
f 109/109/109 105/105/105 104/104/104
f 107/107/107 85/85/85 108/108/108
f 108/108/108 85/85/85 87/87/87
f 85/85/85 86/86/86 87/87/87
f 87/87/87 86/86/86 88/88/88
f 86/86/86 89/89/89 88/88/88
f 88/88/88 89/89/89 90/90/90
f 102/102/102 103/103/103 101/101/101
f 100/100/100 102/102/102 101/101/101
f 99/99/99 100/100/100 101/101/101
f 97/97/97 96/96/96 98/98/98
f 95/95/95 96/96/96 97/97/97
f 93/93/93 92/92/92 94/94/94
f 91/91/91 92/92/92 93/93/93
f 83/83/83 82/82/82 84/84/84
f 81/81/81 82/82/82 83/83/83
f 79/79/79 78/78/78 80/80/80
f 77/77/77 78/78/78 79/79/79
f 75/75/75 74/74/74 76/76/76
f 73/73/73 74/74/74 75/75/75
f 71/71/71 70/70/70 72/72/72
f 69/69/69 70/70/70 71/71/71
f 67/67/67 66/66/66 68/68/68
f 65/65/65 66/66/66 67/67/67
f 63/63/63 62/62/62 64/64/64
f 61/61/61 62/62/62 63/63/63
f 59/59/59 58/58/58 60/60/60
f 57/57/57 58/58/58 59/59/59
f 55/55/55 54/54/54 56/56/56
f 53/53/53 54/54/54 55/55/55
f 51/51/51 50/50/50 52/52/52
f 49/49/49 50/50/50 51/51/51
f 47/47/47 46/46/46 48/48/48
f 45/45/45 46/46/46 47/47/47
f 27/27/27 44/44/44 28/28/28
f 27/27/27 28/28/28 29/29/29
f 29/29/29 28/28/28 30/30/30
f 42/42/42 41/41/41 43/43/43
f 40/40/40 41/41/41 42/42/42
f 3/3/3 4/4/4 39/39/39
f 3/3/3 2/2/2 4/4/4
f 1/1/1 2/2/2 3/3/3
f 18/18/18 37/37/37 38/38/38
f 17/17/17 37/37/37 18/18/18
f 16/16/16 17/17/17 18/18/18
f 35/35/35 11/11/11 36/36/36
f 10/10/10 11/11/11 35/35/35
f 10/10/10 9/9/9 11/11/11
f 8/8/8 9/9/9 10/10/10
f 33/33/33 32/32/32 34/34/34
f 31/31/31 32/32/32 33/33/33
f 25/25/25 24/24/24 26/26/26
f 23/23/23 24/24/24 25/25/25
f 21/21/21 20/20/20 22/22/22
f 19/19/19 20/20/20 21/21/21
f 14/14/14 13/13/13 15/15/15
f 12/12/12 13/13/13 14/14/14

