#
# OBJECT NAME
#
o model_4182
mtllib 4182.mtl

#
# VERTEX BUFFER 000
#
v 0.00969544 0.315089 0.38983
v -0.159698 0.308704 0.36356
v 0.000244216 0.00119988 0.406602
v -0.201276 0.00119988 0.457121
v 0.1094 0.149376 0.364913
v -0.0919453 0.5012 0.358593
v -0.188302 0.5012 0.320978
v -0.325659 0.313392 -0.211109
v -0.338092 0.5012 -0.143013
v -0.289471 0.5012 -0.220971
v -0.176175 0.308253 -0.328143
v -0.105529 0.5012 -0.333641
v 0.00429335 0.31251 -0.374618
v 0.00553313 0.490776 -0.349966
v 0.375518 0.31419 -0.196988
v 0.288845 0.315089 -0.274698
v 0.333051 0.5012 -0.215581
v 0.279078 0.5012 -0.264032
v 0.350576 0.302149 0.13737
v 0.362763 0.5012 0.0880098
v 0.316777 0.5012 0.179488
v 0.316525 0.00119988 0.269372
v 0.295044 0.312768 0.274813
v 0.420672 0.315702 0.0171915
v 0.495219 0.00119988 0.124501
v 0.455802 0.00119988 -0.250335
v 0.337383 0.00119988 -0.350082
v 0.400957 0.31222 -0.059131
v 0.465078 0.0495284 -0.0729628
v 0.51691 0.00119988 0.0209814
v 0.158871 0.00119988 -0.327911
v 0.00458232 0.00119988 -0.475999
v 0.173322 0.116793 -0.350784
v -0.212468 0.00119988 -0.410955
v -0.442666 0.00119988 -0.0451578
v -0.401609 0.312113 -0.0318292
v -0.3885 0.00119988 -0.259298
v -0.277255 0.110733 -0.307659
v -0.244489 0.316821 -0.258067
v 0.122356 0.316126 0.371925
v 0.0711656 0.449126 0.323227
v 0.00963879 0.482886 0.348592
v -0.419813 0.00119988 0.222211
v -0.269466 0.315089 0.271001
v -0.379204 0.322612 0.0947695
v 0.194918 0.00119988 0.353994
v -0.244489 0.316821 -0.258067
v -0.238757 0.5012 -0.250441
v -0.277255 0.110733 -0.307659
v -0.343766 0.472484 -0.031202
v 0.283425 0.5012 0.263444
v 0.449722 0.00119988 0.213831
v 0.406043 0.5012 0.0150465
v -0.256215 0.5012 0.264103
v -0.293157 0.00119988 0.384139
v -0.239416 0.00119988 -0.258731
v -0.239416 0.00119988 -0.258731
v 0.0962922 0.00119988 0.370222
v 0.182023 0.312975 -0.338139
v 0.2099 0.473514 -0.292386
v 0.268948 0.00119988 -0.36275
v -0.328795 0.472484 0.0336882
v -0.438641 0.00119988 0.0851097
v 0.438678 0.00119988 -0.0688968
v 0.463396 0.00119988 -0.187326
v -0.320212 0.00119988 0.295173
v -0.281753 0.472484 0.140969
v 0.113272 0.475799 -0.328771
v 0.163874 0.449126 0.283602
v 0.393635 0.5012 -0.0323398
v -0.238757 0.5012 -0.250441
v -0.196292 0.5012 -0.293603
v 0.377833 0.5012 -0.118411
v -0.343766 0.472484 -0.031202
v -0.328795 0.472484 0.0336882
v -0.287953 0.5012 0.0284598
v -0.286573 0.5012 -0.0261403
v -0.256215 0.5012 0.264103
v -0.261134 0.5012 0.12653
v -0.281753 0.472484 0.140969
v -0.338092 0.5012 -0.143013
v 0.0298518 0.5012 -0.00149215
v -0.289471 0.5012 -0.220971
v -0.238757 0.5012 -0.250441
v -0.196292 0.5012 -0.293603
v -0.105529 0.5012 -0.333641
v 0.279078 0.5012 -0.264032
v 0.2099 0.473514 -0.292386
v 0.113272 0.475799 -0.328771
v 0.00553313 0.490776 -0.349966
v 0.377833 0.5012 -0.118411
v 0.333051 0.5012 -0.215581
v 0.393635 0.5012 -0.0323398
v 0.362763 0.5012 0.0880098
v 0.406043 0.5012 0.0150465
v 0.0455949 0.5012 0.124086
v 0.0195643 0.5012 0.219944
v 0.0539993 0.503684 0.189538
v -0.188302 0.5012 0.320978
v -0.0919453 0.5012 0.358593
v 0.0838943 0.5012 0.121659
v 0.117811 0.498716 0.190334
v 0.316777 0.5012 0.179488
v 0.283425 0.5012 0.263444
v -0.419813 0.00119988 0.222211
v -0.438641 0.00119988 0.0851097
v -0.320212 0.00119988 0.295173
v -0.3885 0.00119988 -0.259298
v -0.239416 0.00119988 -0.258731
v -0.442666 0.00119988 -0.0451578
v -0.212468 0.00119988 -0.410955
v 0.00458232 0.00119988 -0.475999
v 0.158871 0.00119988 -0.327911
v 0.449722 0.00119988 0.213831
v 0.316525 0.00119988 0.269372
v 0.0962922 0.00119988 0.370222
v 0.000244216 0.00119988 0.406602
v -0.293157 0.00119988 0.384139
v 0.268948 0.00119988 -0.36275
v 0.337383 0.00119988 -0.350082
v 0.438678 0.00119988 -0.0688968
v 0.495219 0.00119988 0.124501
v 0.51691 0.00119988 0.0209814
v 0.455802 0.00119988 -0.250335
v 0.463396 0.00119988 -0.187326
v 0.194918 0.00119988 0.353994
v -0.201276 0.00119988 0.457121
v 0.00963879 0.482886 0.348592
v 0.0625824 0.490121 0.256383
v 0.140842 0.487637 0.236968
v 0.163874 0.449126 0.283602
v 0.0711656 0.449126 0.323227

vn -0.0133514 0.0953979 0.995117
vn -0.316162 0.182373 0.930664
vn 0.184082 0.159912 0.969727
vn -0.090271 0.301025 0.949219
vn 0.379639 0.0200958 0.924805
vn -0.164795 0.14563 0.975098
vn -0.529297 0.107361 0.841309
vn -0.818359 0.193848 -0.540527
vn -0.924316 0.156738 -0.346436
vn -0.701172 0.0979614 -0.706055
vn -0.401855 0.209595 -0.891113
vn -0.0950928 0.931641 -0.350586
vn -0.0067482 0.211792 -0.977051
vn 0.0361633 0.759766 -0.648438
vn 0.851563 0.210938 -0.479248
vn 0.554199 0.178955 -0.8125
vn 0.229126 0.956543 -0.179077
vn 0.238647 0.849609 -0.469971
vn 0.865234 0.266846 0.42334
vn 0.872559 0.0663452 0.483154
vn 0.913086 0.0702515 0.400635
vn 0.419189 0.0345459 0.906738
vn 0.655273 0.153076 0.739258
vn 0.941406 0.246826 0.228271
vn 0.874512 0.34082 0.344238
vn 0.752441 0.293457 -0.588867
vn 0.496826 0.280762 -0.820801
vn 0.963379 0.17395 -0.203979
vn 0.951172 0.193848 -0.239624
vn 0.961426 0.271484 -0.0375671
vn 0.403809 -0.22583 -0.88623
vn 0.0213318 0.276367 -0.960449
vn 0.352783 0.157227 -0.921875
vn -0.430664 0.236816 -0.870605
vn -0.97998 0.13562 -0.144897
vn -0.969238 0.200562 -0.141846
vn -0.856934 0.13623 -0.496582
vn -0.635742 0.131714 -0.760254
vn -0.603027 0.170654 -0.778809
vn 0.370361 0.138916 0.917969
vn 0.35498 0.52832 0.770996
vn 0.2854 0.614746 0.734863
vn -0.848145 0.220093 0.481201
vn -0.75 0.258545 0.608398
vn -0.88916 0.291016 0.352783
vn 0.4646 0.204712 0.861328
vn -0.603027 0.170654 -0.778809
vn -0.61377 0.0516357 -0.787598
vn -0.635742 0.131714 -0.760254
vn -0.854492 0.505859 0.115906
vn 0.385986 0.725098 0.569824
vn 0.708496 0.245239 0.661133
vn 0.965332 0.0789795 0.247559
vn -0.876953 0.0799561 0.473389
vn -0.746582 0.271973 0.606934
vn -0.561523 -0.491211 -0.665039
vn -0.561523 -0.491211 -0.665039
vn 0.266602 0.0109406 0.963379
vn 0.335938 0.0932617 -0.937012
vn 0.359863 0.223999 -0.905273
vn 0.103394 0.192017 -0.975586
vn -0.812988 0.531738 0.23584
vn -0.981934 0.159058 0.0987549
vn 0.851563 -0.482422 -0.203735
vn 0.963867 0.240479 -0.111633
vn -0.771973 0.171875 0.611328
vn -0.857422 0.384766 0.341309
vn 0.256348 0.223755 -0.939941
vn 0.255371 0.46167 0.849121
vn 0.974609 0.067688 -0.211304
vn -0.61377 0.0516357 -0.787598
vn -0.555176 0.0900269 -0.82666
vn 0.956543 0.102173 -0.27124
vn -0.854492 0.505859 0.115906
vn -0.812988 0.531738 0.23584
vn -0.169312 0.984375 0.0455017
vn -0.079834 0.996582 0.0196228
vn -0.0129623 0.999512 0.000463486
vn -0.108154 0.993652 0.0280457
vn -0.857422 0.384766 0.341309
vn -0.0218353 0.999512 0.0096283
vn -0.000211954 0.999512 0.000412941
vn 0 1 0
vn 0 1 0
vn 0 1 0
vn -0.0950928 0.931641 -0.350586
vn 0.238647 0.849609 -0.469971
vn 0.359863 0.223999 -0.905273
vn 0.256348 0.223755 -0.939941
vn 0.0361633 0.759766 -0.648438
vn 0 1 0
vn 0.229126 0.956543 -0.179077
vn 0 1 0
vn 0 1 0
vn 0 1 0
vn 0.00499725 0.999512 -0.00892639
vn 0.0405579 0.997559 0.0485229
vn 0.0349731 0.997559 0.0597839
vn 0 1 0
vn 0.0261688 0.999023 0.0210419
vn -0.000506401 0.999512 0.0103989
vn 0.00172043 0.998047 0.0595398
vn 0 1 0
vn 0.385986 0.725098 0.569824
vn 0 -1 0
vn 0 -1 0
vn 0 -1 0
vn 0 -1 0
vn 0 -1 0
vn 0 -1 0
vn 0 -1 0
vn 0 -1 0
vn 0 -1 0
vn 0 -1 0
vn 0 -1 0
vn 0 -1 0
vn 0 -1 0
vn 0 -1 0
vn 0 -1 0
vn 0 -1 0
vn 0 -1 0
vn 0 -1 0
vn 0 -1 0
vn 0 -1 0
vn 0 -1 0
vn 0 -1 0
vn 0 -1 0
vn 0.2854 0.614746 0.734863
vn 0.173706 0.930664 0.321777
vn 0.0248108 0.895508 0.444092
vn 0.255371 0.46167 0.849121
vn 0.35498 0.52832 0.770996

vt 0.610443 0.0430044
vt 0.587513 0.0430044
vt 0.610554 0.00888526
vt 0.587513 0.00892013
vt 0.624982 0.0225839
vt 0.596722 0.0692176
vt 0.581826 0.0692176
vt 0.512984 0.0430044
vt 0.518917 0.0692176
vt 0.508196 0.0692176
vt 0.787771 0.0430044
vt 0.779316 0.0692176
vt 0.766317 0.0430044
vt 0.766317 0.0692176
vt 0.71264 0.0430044
vt 0.725524 0.0430044
vt 0.717622 0.0692176
vt 0.725524 0.0692176
vt 0.668782 0.0430044
vt 0.676342 0.0692176
vt 0.661925 0.0692176
vt 0.651706 0.00797141
vt 0.651706 0.0430044
vt 0.68761 0.0431324
vt 0.677352 0.00830537
vt 0.71264 0.00903207
vt 0.727377 0.00820613
vt 0.697167 0.0431743
vt 0.697167 0.0155039
vt 0.68761 0.00755954
vt 0.74444 0.00829291
vt 0.766317 0.00668186
vt 0.74444 0.021201
vt 0.787771 0.00852728
vt 0.531177 0.00956798
vt 0.531177 0.0430044
vt 0.512984 0.00891715
vt 0.798402 0.0201571
vt 0.798402 0.0430044
vt 0.624982 0.0430044
vt 0.619577 0.0692176
vt 0.610624 0.0692176
vt 0.559411 0.0112095
vt 0.57262 0.0430044
vt 0.545461 0.0430044
vt 0.633252 0.00951368
vt 0.500514 0.0430044
vt 0.500514 0.0692176
vt 0.500514 0.0201571
vt 0.531177 0.0692176
vt 0.651706 0.0692176
vt 0.668782 0.00892854
vt 0.68761 0.0692176
vt 0.57279 0.0692176
vt 0.579178 0.0106313
vt 0.500514 0.00829458
vt 0.798402 0.00829458
vt 0.625236 0.00555038
vt 0.74444 0.0430044
vt 0.740299 0.0692176
vt 0.734683 0.00823492
vt 0.539919 0.0692176
vt 0.546201 0.0104415
vt 0.697167 0.0104132
vt 0.707063 0.00952983
vt 0.57262 0.0119776
vt 0.55617 0.0692176
vt 0.756134 0.0692176
vt 0.635249 0.0692176
vt 0.693448 0.0692176
vt 0.798402 0.0692176
vt 0.791921 0.0692176
vt 0.702962 0.0692176
vt 0.879504 0.443437
vt 0.883734 0.432616
vt 0.89176 0.433624
vt 0.890382 0.442777
vt 0.898482 0.399459
vt 0.895316 0.418924
vt 0.890327 0.416624
vt 0.88599 0.45908
vt 0.940461 0.439738
vt 0.893956 0.471844
vt 0.900937 0.475982
vt 0.906772 0.482042
vt 0.921595 0.488582
vt 0.971017 0.482949
vt 0.96632 0.48599
vt 0.953088 0.490687
vt 0.940682 0.49428
vt 0.991753 0.455253
vt 0.984417 0.471169
vt 0.995527 0.44318
vt 0.992137 0.426299
vt 0.995628 0.436533
vt 0.942566 0.420731
vt 0.93895 0.406389
vt 0.943809 0.409507
vt 0.907812 0.391482
vt 0.923554 0.385337
vt 0.948796 0.421296
vt 0.954204 0.409329
vt 0.984646 0.411398
vt 0.977612 0.399621
vt 0.987263 0.222325
vt 0.984895 0.234805
vt 0.978209 0.215684
vt 0.984431 0.266154
vt 0.970855 0.266102
vt 0.993671 0.246662
vt 0.968388 0.279958
vt 0.948633 0.285879
vt 0.934602 0.272399
vt 0.911238 0.227443
vt 0.915542 0.210931
vt 0.940413 0.212493
vt 0.94848 0.200897
vt 0.975759 0.207586
vt 0.924589 0.27557
vt 0.918358 0.274417
vt 0.909135 0.248823
vt 0.90398 0.231219
vt 0.901996 0.240642
vt 0.90758 0.265338
vt 0.906889 0.259603
vt 0.930555 0.205964
vt 0.96739 0.200943
vt 0.937891 0.383022
vt 0.945079 0.398043
vt 0.957876 0.401203
vt 0.961549 0.393076
vt 0.946349 0.38658


#
# MESH 000
#
g surface_000
usemtl surface_000
f 118/118/118 117/117/117 127/127/127
f 116/116/116 117/117/117 118/118/118
f 118/118/118 107/107/107 116/116/116
f 107/107/107 113/113/113 116/116/116
f 113/113/113 126/126/126 116/116/116
f 113/113/113 115/115/115 126/126/126
f 114/114/114 115/115/115 113/113/113
f 106/106/106 113/113/113 107/107/107
f 109/109/109 113/113/113 106/106/106
f 112/112/112 113/113/113 109/109/109
f 111/111/111 112/112/112 109/109/109
f 105/105/105 106/106/106 107/107/107
f 110/110/110 109/109/109 106/106/106
f 108/108/108 109/109/109 110/110/110
f 113/113/113 119/119/119 114/114/114
f 119/119/119 120/120/120 114/114/114
f 114/114/114 120/120/120 121/121/121
f 121/121/121 122/122/122 114/114/114
f 123/123/123 122/122/122 121/121/121
f 121/121/121 120/120/120 125/125/125
f 124/124/124 125/125/125 120/120/120
f 87/87/87 88/88/88 89/89/89
f 87/87/87 89/89/89 90/90/90
f 87/87/87 90/90/90 86/86/86
f 87/87/87 86/86/86 92/92/92
f 92/92/92 86/86/86 82/82/82
f 91/91/91 92/92/92 82/82/82
f 82/82/82 93/93/93 91/91/91
f 82/82/82 95/95/95 93/93/93
f 82/82/82 94/94/94 95/95/95
f 94/94/94 82/82/82 103/103/103
f 82/82/82 104/104/104 103/103/103
f 86/86/86 85/85/85 82/82/82
f 85/85/85 84/84/84 82/82/82
f 84/84/84 83/83/83 82/82/82
f 81/81/81 82/82/82 83/83/83
f 81/81/81 77/77/77 82/82/82
f 77/77/77 76/76/76 82/82/82
f 82/82/82 76/76/76 79/79/79
f 78/78/78 82/82/82 79/79/79
f 82/82/82 78/78/78 99/99/99
f 82/82/82 99/99/99 100/100/100
f 82/82/82 100/100/100 97/97/97
f 96/96/96 82/82/82 97/97/97
f 101/101/101 82/82/82 96/96/96
f 104/104/104 82/82/82 101/101/101
f 74/74/74 77/77/77 81/81/81
f 74/74/74 76/76/76 77/77/77
f 74/74/74 75/75/75 76/76/76
f 79/79/79 76/76/76 75/75/75
f 79/79/79 75/75/75 80/80/80
f 78/78/78 79/79/79 80/80/80
f 97/97/97 100/100/100 128/128/128
f 128/128/128 98/98/98 97/97/97
f 96/96/96 97/97/97 98/98/98
f 101/101/101 96/96/96 98/98/98
f 101/101/101 98/98/98 102/102/102
f 104/104/104 101/101/101 102/102/102
f 130/130/130 104/104/104 102/102/102
f 131/131/131 104/104/104 130/130/130
f 128/128/128 129/129/129 98/98/98
f 129/129/129 102/102/102 98/98/98
f 129/129/129 130/130/130 102/102/102
f 132/132/132 130/130/130 129/129/129
f 132/132/132 131/131/131 130/130/130
f 128/128/128 132/132/132 129/129/129
f 71/71/71 72/72/72 39/39/39
f 39/39/39 72/72/72 11/11/11
f 11/11/11 38/38/38 39/39/39
f 34/34/34 38/38/38 11/11/11
f 38/38/38 34/34/34 57/57/57
f 72/72/72 12/12/12 11/11/11
f 11/11/11 12/12/12 13/13/13
f 11/11/11 13/13/13 34/34/34
f 34/34/34 13/13/13 32/32/32
f 32/32/32 13/13/13 33/33/33
f 31/31/31 32/32/32 33/33/33
f 61/61/61 31/31/31 33/33/33
f 16/16/16 61/61/61 33/33/33
f 27/27/27 61/61/61 16/16/16
f 13/13/13 12/12/12 14/14/14
f 14/14/14 68/68/68 13/13/13
f 13/13/13 68/68/68 59/59/59
f 33/33/33 13/13/13 59/59/59
f 16/16/16 33/33/33 59/59/59
f 59/59/59 60/60/60 16/16/16
f 16/16/16 60/60/60 18/18/18
f 17/17/17 16/16/16 18/18/18
f 15/15/15 16/16/16 17/17/17
f 15/15/15 27/27/27 16/16/16
f 26/26/26 27/27/27 15/15/15
f 15/15/15 65/65/65 26/26/26
f 68/68/68 60/60/60 59/59/59
f 17/17/17 73/73/73 15/15/15
f 73/73/73 28/28/28 15/15/15
f 15/15/15 28/28/28 29/29/29
f 15/15/15 29/29/29 65/65/65
f 65/65/65 29/29/29 64/64/64
f 64/64/64 29/29/29 30/30/30
f 29/29/29 24/24/24 30/30/30
f 24/24/24 25/25/25 30/30/30
f 70/70/70 28/28/28 73/73/73
f 70/70/70 24/24/24 28/28/28
f 28/28/28 24/24/24 29/29/29
f 53/53/53 24/24/24 70/70/70
f 20/20/20 24/24/24 53/53/53
f 19/19/19 24/24/24 20/20/20
f 24/24/24 19/19/19 25/25/25
f 25/25/25 19/19/19 52/52/52
f 19/19/19 23/23/23 52/52/52
f 52/52/52 23/23/23 22/22/22
f 5/5/5 22/22/22 23/23/23
f 22/22/22 5/5/5 46/46/46
f 46/46/46 5/5/5 58/58/58
f 19/19/19 20/20/20 21/21/21
f 19/19/19 21/21/21 23/23/23
f 23/23/23 21/21/21 51/51/51
f 51/51/51 69/69/69 23/23/23
f 23/23/23 69/69/69 40/40/40
f 5/5/5 23/23/23 40/40/40
f 1/1/1 5/5/5 40/40/40
f 3/3/3 5/5/5 1/1/1
f 5/5/5 3/3/3 58/58/58
f 69/69/69 41/41/41 40/40/40
f 40/40/40 41/41/41 1/1/1
f 1/1/1 41/41/41 42/42/42
f 6/6/6 1/1/1 42/42/42
f 2/2/2 1/1/1 6/6/6
f 1/1/1 2/2/2 3/3/3
f 3/3/3 2/2/2 4/4/4
f 4/4/4 2/2/2 55/55/55
f 55/55/55 2/2/2 44/44/44
f 55/55/55 44/44/44 66/66/66
f 66/66/66 44/44/44 43/43/43
f 2/2/2 6/6/6 7/7/7
f 2/2/2 7/7/7 44/44/44
f 44/44/44 7/7/7 54/54/54
f 54/54/54 67/67/67 44/44/44
f 44/44/44 67/67/67 45/45/45
f 43/43/43 44/44/44 45/45/45
f 43/43/43 45/45/45 63/63/63
f 45/45/45 36/36/36 63/63/63
f 63/63/63 36/36/36 35/35/35
f 35/35/35 36/36/36 37/37/37
f 67/67/67 62/62/62 45/45/45
f 45/45/45 62/62/62 36/36/36
f 36/36/36 62/62/62 50/50/50
f 9/9/9 36/36/36 50/50/50
f 8/8/8 36/36/36 9/9/9
f 37/37/37 36/36/36 8/8/8
f 37/37/37 8/8/8 49/49/49
f 37/37/37 49/49/49 56/56/56
f 8/8/8 9/9/9 10/10/10
f 8/8/8 10/10/10 47/47/47
f 49/49/49 8/8/8 47/47/47
f 47/47/47 10/10/10 48/48/48

