#
# OBJECT NAME
#
o model_003
mtllib 003.mtl

#
# VERTEX BUFFER 000
#
v 0 -0.025 0
v 0 -0.0176777 -0.0176875
v 1 -0.025 0
v 1 -0.0176777 -0.0176875
v 0 0 -0.0250141
v 0 0.0176777 -0.0176875
v 1 0 -0.0250141
v 1 0.0176777 -0.0176875
v 0 0.0176777 -0.0176875
v 0 0.025 0
v 1 0.0176777 -0.0176875
v 1 0.025 0
v 0 0.025 0
v 0 0.0176777 0.0176777
v 1 0.025 0
v 1 0.0176777 0.0176777
v 0 0 0.025
v 0 -0.0176777 0.0176777
v 1 0 0.025
v 1 -0.0176777 0.0176777
v 0 0.0176777 0.0176777
v 0 0 0.025
v 1 0.0176777 0.0176777
v 1 0 0.025
v 0 -0.0176777 -0.0176875
v 0 0 -0.0250141
v 1 -0.0176777 -0.0176875
v 1 0 -0.0250141
v 0 -0.0176777 0.0176777
v 0 -0.025 0
v 1 -0.0176777 0.0176777
v 1 -0.025 0

vn 0 -0.923828 -0.382324
vn 0 -0.923828 -0.382324
vn 0 -0.923828 -0.382324
vn 0 -0.923828 -0.382324
vn 0 0.382813 -0.92334
vn 0 0.382813 -0.92334
vn 0 0.382813 -0.92334
vn 0 0.382813 -0.92334
vn 0 0.923828 -0.382324
vn 0 0.923828 -0.382324
vn 0 0.923828 -0.382324
vn 0 0.923828 -0.382324
vn 0 0.923828 0.382568
vn 0 0.923828 0.382568
vn 0 0.923828 0.382568
vn 0 0.923828 0.382568
vn 0 -0.382568 0.923828
vn 0 -0.382568 0.923828
vn 0 -0.382568 0.923828
vn 0 -0.382568 0.923828
vn 0 0.382568 0.923828
vn 0 0.382568 0.923828
vn 0 0.382568 0.923828
vn 0 0.382568 0.923828
vn 0 -0.382813 -0.92334
vn 0 -0.382813 -0.92334
vn 0 -0.382813 -0.92334
vn 0 -0.382813 -0.92334
vn 0 -0.923828 0.382568
vn 0 -0.923828 0.382568
vn 0 -0.923828 0.382568
vn 0 -0.923828 0.382568

vt 0 0
vt 1 0
vt 0 1
vt 1 1
vt 0 0
vt 1 0
vt 0 1
vt 1 1
vt 0 0
vt 1 0
vt 0 1
vt 1 1
vt 0 0
vt 1 0
vt 0 1
vt 1 1
vt 0 0
vt 1 0
vt 0 1
vt 1 1
vt 0 0
vt 1 0
vt 0 1
vt 1 1
vt 0 0
vt 1 0
vt 0 1
vt 1 1
vt 0 0
vt 1 0
vt 0 1
vt 1 1


#
# MESH 000
#
g surface_000
usemtl surface_000
f 31/31/31 30/30/30 32/32/32
f 29/29/29 30/30/30 31/31/31
f 27/27/27 26/26/26 28/28/28
f 25/25/25 26/26/26 27/27/27
f 23/23/23 22/22/22 24/24/24
f 21/21/21 22/22/22 23/23/23
f 19/19/19 18/18/18 20/20/20
f 17/17/17 18/18/18 19/19/19
f 15/15/15 14/14/14 16/16/16
f 13/13/13 14/14/14 15/15/15
f 11/11/11 10/10/10 12/12/12
f 9/9/9 10/10/10 11/11/11
f 7/7/7 6/6/6 8/8/8
f 5/5/5 6/6/6 7/7/7
f 3/3/3 2/2/2 4/4/4
f 1/1/1 2/2/2 3/3/3

