#
# OBJECT NAME
#
o model_004
mtllib 004.mtl

#
# VERTEX BUFFER 000
#
v 0.0176677 0.0176777 -0.0176876
v 0.0249859 0 -0.0250141
v 0.0176679 0.0176777 -0.0250141
v 0.0176679 -0.0176777 -0.0176876
v 0 -0.025 -0.025
v 0.0176679 -0.0176777 -0.0250141
v 0.0249859 0 -0.0250141
v 0.025 -0.0176777 -0.0176875
v 0.025 -0.025 0
v 0.025 0.0176777 -0.0176875
v 0.0176777 0.025 0
v 0.025 0.025 0
v 0.0176677 0.0176777 0.0176777
v 0.025 0.0176777 0.0176777
v 0.025 0 0.025
v 0.0176679 -0.0176777 0.0176777
v 0.025 -0.0176777 0.0176777
v 0 0.025 0
v 0 0.0176777 0.0176777
v 0 0 0.025
v 0.0176777 0 0.025
v 0 -0.0176777 0.025
v 0.0176777 -0.025 0.0176777
v 0 -0.025 0.025
v -0.0176777 -0.0176777 0.0176777
v -0.0176777 -0.025 0.0176777
v -0.025 0 0
v -0.0176777 -0.0176777 -0.0176777
v -0.025 -0.0176777 0
v -0.025 -0.025 0
v -0.0176777 -0.025 -0.0176777
v -0.025 0 -0.0176876
v -0.0176777 0.0176777 0
v -0.0176777 0 0.0176777
v 0 -0.025 -0.025
v -0.0176777 -0.0176777 -0.0250141
v 0 0.025 -0.0250141
v 0 0.025 -0.0176876
v -0.0176777 0.0176777 -0.0176876
v 0.0176777 -0.025 -0.0176777
v 0.025 -0.025 0
v -0.0176777 0.0176777 -0.0250141
v -0.025 0 -0.0250141
v 0.025 -0.025 0
v 0.025 -0.0176777 -0.0176875
v 0.5 -0.025 0
v 0.5 -0.0176777 -0.0176875
v 0.0249859 0 -0.0250141
v 0.025 0.0176777 -0.0176875
v 0.5 0 -0.0250141
v 0.5 0.0176777 -0.0176875
v 0.025 0.0176777 -0.0176875
v 0.025 0.025 0
v 0.5 0.0176777 -0.0176875
v 0.5 0.025 0
v 0.025 0.025 0
v 0.025 0.0176777 0.0176777
v 0.5 0.025 0
v 0.5 0.0176777 0.0176777
v 0.025 0 0.025
v 0.025 -0.0176777 0.0176777
v 0.5 0 0.025
v 0.5 -0.0176777 0.0176777
v 0.025 0.0176777 0.0176777
v 0.025 0 0.025
v 0.5 0.0176777 0.0176777
v 0.5 0 0.025
v 0.025 -0.0176777 -0.0176875
v 0.0249859 0 -0.0250141
v 0.5 -0.0176777 -0.0176875
v 0.5 0 -0.0250141
v 0.025 -0.0176777 0.0176777
v 0.025 -0.025 0
v 0.5 -0.0176777 0.0176777
v 0.5 -0.025 0
v 0.0176679 0.0176777 -0.0250141
v 0.0249859 0 -0.0250141
v 0.0176679 0.0176777 -0.5
v 0.0249859 0 -0.5
v 0.0176679 -0.0176777 -0.0250141
v 0 -0.025 -0.025
v 0.0176679 -0.0176777 -0.5
v 0 -0.025 -0.5
v 0.0249859 0 -0.0250141
v 0.0176679 -0.0176777 -0.0250141
v 0.0249859 0 -0.5
v 0.0176679 -0.0176777 -0.5
v 0 -0.025 -0.025
v -0.0176777 -0.0176777 -0.0250141
v 0 -0.025 -0.5
v -0.0176777 -0.0176777 -0.5
v 0 0.025 -0.0250141
v 0.0176679 0.0176777 -0.0250141
v 0 0.025 -0.5
v 0.0176679 0.0176777 -0.5
v -0.0176777 0.0176777 -0.0250141
v 0 0.025 -0.0250141
v -0.0176777 0.0176777 -0.5
v 0 0.025 -0.5
v -0.025 0 -0.0250141
v -0.0176777 0.0176777 -0.0250141
v -0.025 0 -0.5
v -0.0176777 0.0176777 -0.5
v -0.0176777 -0.0176777 -0.0250141
v -0.025 0 -0.0250141
v -0.0176777 -0.0176777 -0.5
v -0.025 0 -0.5
v 0.0176777 -0.025 0.0176777
v 0 -0.025 0.025
v 0.0176777 -0.5 0.0176777
v 0 -0.5 0.025
v 0 -0.025 0.025
v -0.0176777 -0.025 0.0176777
v 0 -0.5 0.025
v -0.0176777 -0.5 0.0176777
v -0.025 -0.025 0
v -0.0176777 -0.025 -0.0176777
v -0.025 -0.5 0
v -0.0176777 -0.5 -0.0176777
v -0.0176777 -0.025 0.0176777
v -0.025 -0.025 0
v -0.0176777 -0.5 0.0176777
v -0.025 -0.5 0
v 0 -0.025 -0.025
v 0.0176777 -0.025 -0.0176777
v 0 -0.5 -0.025
v 0.0176777 -0.5 -0.0176777
v 0.025 -0.025 0
v 0.0176777 -0.025 0.0176777
v 0.025 -0.5 0
v 0.0176777 -0.5 0.0176777
v 0.0176777 -0.025 -0.0176777
v 0.025 -0.025 0
v 0.0176777 -0.5 -0.0176777
v 0.025 -0.5 0
v -0.0176777 -0.025 -0.0176777
v 0 -0.025 -0.025
v -0.0176777 -0.5 -0.0176777
v 0 -0.5 -0.025
v 0.5 -0.025 0
v 0.5 -0.0176777 -0.0176875
v 0.5 -0.0176777 0.0176777
v 0.0176777 -0.5 0.0176777
v -0.0176777 -0.5 0.0176777
v 0.025 -0.5 0
v -0.025 -0.5 0
v 0.0176679 0.0176777 -0.5
v -0.0176777 0.0176777 -0.5
v 0 0.025 -0.5
v -0.0176777 -0.0176777 -0.5
v 0.0176679 -0.0176777 -0.5
v 0 -0.025 -0.5
v 0.0249859 0 -0.5
v -0.025 0 -0.5
v -0.0176777 -0.0176777 -0.5
v 0.0176679 -0.0176777 -0.5
v 0.0176777 -0.5 -0.0176777
v -0.0176777 -0.5 -0.0176777
v 0.0176777 -0.5 0.0176777
v 0 -0.5 0.025
v -0.0176777 -0.5 0.0176777
v 0.0176777 -0.5 -0.0176777
v -0.0176777 -0.5 -0.0176777
v 0 -0.5 -0.025
v 0.5 0 0.025
v 0.5 0 -0.0250141
v 0.5 0.0176777 0.0176777
v 0.5 0.0176777 -0.0176875
v 0.5 0.0176777 0.0176777
v 0.5 0.0176777 -0.0176875
v 0.5 0.025 0
v 0.5 -0.0176777 0.0176777
v 0.5 -0.0176777 -0.0176875
v 0.5 0 0.025
v 0.5 0 -0.0250141

vn 0.344727 0.895508 -0.280762
vn 0.609863 0.505371 -0.609863
vn 0.707031 0.706543 1.45435e-005
vn 0.577148 -0.577148 -0.577148
vn 0.505371 -0.610352 -0.609863
vn 0.707031 -0.706543 0
vn 0.609863 -0.505371 -0.609863
vn 1.45435e-005 -0.707031 -0.706543
vn 0.609863 -0.609863 -0.505371
vn 9.59635e-006 0.796875 -0.603516
vn 1.66893e-006 0.996582 -0.0823975
vn 0 0.990234 0.136719
vn 0 0.747559 0.664063
vn 0 0.603516 0.796875
vn 0 -0.136719 0.990234
vn 0.281006 -0.344238 0.895508
vn 0 -0.707031 0.707031
vn -0.0643921 0.98877 0.133423
vn -0.282227 0.678223 0.678223
vn -0.113953 0.114014 0.986816
vn 0 0.0825195 0.996582
vn 0.0825806 0.000110447 0.996094
vn 0.603516 0.00062418 0.796875
vn -0.136719 0 0.990234
vn -0.603516 0 0.796875
vn -0.796875 0 0.603516
vn -0.98877 0.133423 0.0644531
vn -0.895508 -0.280762 -0.344482
vn -0.990234 0 0.136719
vn -0.990234 0 -0.136719
vn -0.707031 0 -0.707031
vn -0.996582 -0.0825195 0
vn -0.635742 0.734375 0.235596
vn -0.734375 0.235596 0.635742
vn -0.505371 -0.609863 -0.609863
vn -0.796875 -0.603516 0
vn 0.136841 0.990234 2.80142e-006
vn -0.136597 0.990234 0
vn -0.796875 0.603516 0
vn 0.707031 -1.56164e-005 -0.707031
vn 0.610352 -0.609375 0.505371
vn -0.603516 0.796875 0
vn -0.990234 0.136719 0
vn 0 -0.923828 -0.382324
vn 0 -0.923828 -0.382324
vn 0 -0.923828 -0.382324
vn 0 -0.923828 -0.382324
vn 0 0.382813 -0.92334
vn 0 0.382813 -0.92334
vn 0 0.382813 -0.92334
vn 0 0.382813 -0.92334
vn 0 0.923828 -0.382324
vn 0 0.923828 -0.382324
vn 0 0.923828 -0.382324
vn 0 0.923828 -0.382324
vn 0 0.923828 0.382568
vn 0 0.923828 0.382568
vn 0 0.923828 0.382568
vn 0 0.923828 0.382568
vn 0 -0.382568 0.923828
vn 0 -0.382568 0.923828
vn 0 -0.382568 0.923828
vn 0 -0.382568 0.923828
vn 0 0.382568 0.923828
vn 0 0.382568 0.923828
vn 0 0.382568 0.923828
vn 0 0.382568 0.923828
vn 0 -0.382813 -0.92334
vn 0 -0.382813 -0.92334
vn 0 -0.382813 -0.92334
vn 0 -0.382813 -0.92334
vn 0 -0.923828 0.382568
vn 0 -0.923828 0.382568
vn 0 -0.923828 0.382568
vn 0 -0.923828 0.382568
vn 0.923828 0.382324 0
vn 0.923828 0.382324 0
vn 0.923828 0.382324 0
vn 0.923828 0.382324 0
vn 0.382813 -0.92334 0
vn 0.382813 -0.92334 0
vn 0.382813 -0.92334 0
vn 0.382813 -0.92334 0
vn 0.923828 -0.382324 0
vn 0.923828 -0.382324 0
vn 0.923828 -0.382324 0
vn 0.923828 -0.382324 0
vn -0.382568 -0.923828 0
vn -0.382568 -0.923828 0
vn -0.382568 -0.923828 0
vn -0.382568 -0.923828 0
vn 0.382813 0.92334 0
vn 0.382813 0.92334 0
vn 0.382813 0.92334 0
vn 0.382813 0.92334 0
vn -0.382568 0.923828 0
vn -0.382568 0.923828 0
vn -0.382568 0.923828 0
vn -0.382568 0.923828 0
vn -0.923828 0.382568 0
vn -0.923828 0.382568 0
vn -0.923828 0.382568 0
vn -0.923828 0.382568 0
vn -0.923828 -0.382568 0
vn -0.923828 -0.382568 0
vn -0.923828 -0.382568 0
vn -0.923828 -0.382568 0
vn 0.382568 0 0.923828
vn 0.382568 0 0.923828
vn 0.382568 0 0.923828
vn 0.382568 0 0.923828
vn -0.382568 0 0.923828
vn -0.382568 0 0.923828
vn -0.382568 0 0.923828
vn -0.382568 0 0.923828
vn -0.923828 0 -0.382568
vn -0.923828 0 -0.382568
vn -0.923828 0 -0.382568
vn -0.923828 0 -0.382568
vn -0.923828 0 0.382568
vn -0.923828 0 0.382568
vn -0.923828 0 0.382568
vn -0.923828 0 0.382568
vn 0.382568 0 -0.923828
vn 0.382568 0 -0.923828
vn 0.382568 0 -0.923828
vn 0.382568 0 -0.923828
vn 0.923828 0 0.382568
vn 0.923828 0 0.382568
vn 0.923828 0 0.382568
vn 0.923828 0 0.382568
vn 0.923828 0 -0.382568
vn 0.923828 0 -0.382568
vn 0.923828 0 -0.382568
vn 0.923828 0 -0.382568
vn -0.382568 0 -0.923828
vn -0.382568 0 -0.923828
vn -0.382568 0 -0.923828
vn -0.382568 0 -0.923828
vn 1 3.57628e-006 0
vn 1 3.57628e-006 0
vn 1 3.57628e-006 0
vn 0 -1 -2.98023e-007
vn 0 -1 -2.98023e-007
vn 0 -1 -2.98023e-007
vn 0 -1 -2.98023e-007
vn 0 0 -1
vn 0 0 -1
vn 0 0 -1
vn 0 -0.0019207 -0.999512
vn 0 -0.0019207 -0.999512
vn 0 -0.0019207 -0.999512
vn 0 0 -1
vn 0 0 -1
vn 0 0 -1
vn 0 0 -1
vn 0 -1 -2.98023e-007
vn 0 -1 -2.98023e-007
vn 0 -1 0
vn 0 -1 0
vn 0 -1 0
vn 0 -1 0
vn 0 -1 0
vn 0 -1 0
vn 0.999512 -0.000397682 -0.000164747
vn 0.999512 -0.000397682 -0.000164747
vn 0.999512 -0.000397682 -0.000164747
vn 0.999512 -0.000397682 -0.000164747
vn 1 -3.57628e-006 0
vn 1 -3.57628e-006 0
vn 1 -3.57628e-006 0
vn 0.999512 0.000397682 -0.000164747
vn 0.999512 0.000397682 -0.000164747
vn 0.999512 0.000397682 -0.000164747
vn 0.999512 0.000397682 -0.000164747

vt 0 0
vt 0 0
vt 0 0
vt 0 0
vt 0 0
vt 0 0
vt 0 0
vt 0 0
vt 0 0
vt 0 0
vt 0 0
vt 0 0
vt 0 0
vt 0 0
vt 0 0
vt 0 0
vt 0 0
vt 0 0
vt 0 0
vt 0 0
vt 0 0
vt 0 0
vt 0 0
vt 0 0
vt 0 0
vt 0 0
vt 0 0
vt 0 0
vt 0 0
vt 0 0
vt 0 0
vt 0 0
vt 0 0
vt 0 0
vt 0 0
vt 0 0
vt 0 0
vt 0 0
vt 0 0
vt 0 0
vt 0 0
vt 0 0
vt 0 0
vt 0 0
vt 1 0
vt 0 1
vt 1 1
vt 0 0
vt 1 0
vt 0 1
vt 1 1
vt 0 0
vt 1 0
vt 0 1
vt 1 1
vt 0 0
vt 1 0
vt 0 1
vt 1 1
vt 0 0
vt 1 0
vt 0 1
vt 1 1
vt 0 0
vt 1 0
vt 0 1
vt 1 1
vt 0 0
vt 1 0
vt 0 1
vt 1 1
vt 0 0
vt 1 0
vt 0 1
vt 1 1
vt 0 0
vt 1 0
vt 0 1
vt 1 1
vt 0 0
vt 1 0
vt 0 1
vt 1 1
vt 0 0
vt 1 0
vt 0 1
vt 1 1
vt 0 0
vt 1 0
vt 0 1
vt 1 1
vt 0 0
vt 1 0
vt 0 1
vt 1 1
vt 0 0
vt 1 0
vt 0 1
vt 1 1
vt 0 0
vt 1 0
vt 0 1
vt 1 1
vt 0 0
vt 1 0
vt 0 1
vt 1 1
vt 0 0
vt 1 0
vt 0 1
vt 1 1
vt 0 0
vt 1 0
vt 0 1
vt 1 1
vt 0 0
vt 1 0
vt 0 1
vt 1 1
vt 0 0
vt 1 0
vt 0 1
vt 1 1
vt 0 0
vt 1 0
vt 0 1
vt 1 1
vt 0 0
vt 1 0
vt 0 1
vt 1 1
vt 0 0
vt 1 0
vt 0 1
vt 1 1
vt 0 0
vt 1 0
vt 0 1
vt 1 1
vt 0 1
vt 0 1
vt 0 1
vt 0 1
vt 0 1
vt 0 1
vt 0 1
vt 0 1
vt 0 1
vt 0 1
vt 0 1
vt 0 1
vt 0 1
vt 0 1
vt 0 1
vt 0 1
vt 0 1
vt 0 1
vt 0 1
vt 0 1
vt 0 1
vt 0 1
vt 0 1
vt 0 1
vt 0 1
vt 0 1
vt 0 1
vt 0 1
vt 0 1
vt 0 1
vt 0 1
vt 0 1
vt 0 1
vt 0 1
vt 0 1
vt 0 1


#
# MESH 000
#
g surface_000
usemtl surface_000
f 169/169/169 170/170/170 171/171/171
f 162/162/162 163/163/163 164/164/164
f 159/159/159 160/160/160 161/161/161
f 150/150/150 151/151/151 152/152/152
f 140/140/140 141/141/141 142/142/142
f 174/174/174 173/173/173 175/175/175
f 172/172/172 173/173/173 174/174/174
f 167/167/167 166/166/166 168/168/168
f 165/165/165 166/166/166 167/167/167
f 157/157/157 146/146/146 158/158/158
f 145/145/145 146/146/146 157/157/157
f 145/145/145 144/144/144 146/146/146
f 143/143/143 144/144/144 145/145/145
f 155/155/155 153/153/153 156/156/156
f 154/154/154 153/153/153 155/155/155
f 148/148/148 153/153/153 154/154/154
f 147/147/147 153/153/153 148/148/148
f 147/147/147 148/148/148 149/149/149
f 138/138/138 137/137/137 139/139/139
f 136/136/136 137/137/137 138/138/138
f 134/134/134 133/133/133 135/135/135
f 132/132/132 133/133/133 134/134/134
f 130/130/130 129/129/129 131/131/131
f 128/128/128 129/129/129 130/130/130
f 126/126/126 125/125/125 127/127/127
f 124/124/124 125/125/125 126/126/126
f 122/122/122 121/121/121 123/123/123
f 120/120/120 121/121/121 122/122/122
f 118/118/118 117/117/117 119/119/119
f 116/116/116 117/117/117 118/118/118
f 114/114/114 113/113/113 115/115/115
f 112/112/112 113/113/113 114/114/114
f 110/110/110 109/109/109 111/111/111
f 108/108/108 109/109/109 110/110/110
f 106/106/106 105/105/105 107/107/107
f 104/104/104 105/105/105 106/106/106
f 102/102/102 101/101/101 103/103/103
f 100/100/100 101/101/101 102/102/102
f 98/98/98 97/97/97 99/99/99
f 96/96/96 97/97/97 98/98/98
f 94/94/94 93/93/93 95/95/95
f 92/92/92 93/93/93 94/94/94
f 90/90/90 89/89/89 91/91/91
f 88/88/88 89/89/89 90/90/90
f 86/86/86 85/85/85 87/87/87
f 84/84/84 85/85/85 86/86/86
f 82/82/82 81/81/81 83/83/83
f 80/80/80 81/81/81 82/82/82
f 78/78/78 77/77/77 79/79/79
f 76/76/76 77/77/77 78/78/78
f 74/74/74 73/73/73 75/75/75
f 72/72/72 73/73/73 74/74/74
f 70/70/70 69/69/69 71/71/71
f 68/68/68 69/69/69 70/70/70
f 66/66/66 65/65/65 67/67/67
f 64/64/64 65/65/65 66/66/66
f 62/62/62 61/61/61 63/63/63
f 60/60/60 61/61/61 62/62/62
f 58/58/58 57/57/57 59/59/59
f 56/56/56 57/57/57 58/58/58
f 54/54/54 53/53/53 55/55/55
f 52/52/52 53/53/53 54/54/54
f 50/50/50 49/49/49 51/51/51
f 48/48/48 49/49/49 50/50/50
f 46/46/46 45/45/45 47/47/47
f 44/44/44 45/45/45 46/46/46
f 43/43/43 36/36/36 32/32/32
f 32/32/32 36/36/36 28/28/28
f 28/28/28 27/27/27 32/32/32
f 27/27/27 39/39/39 32/32/32
f 32/32/32 39/39/39 43/43/43
f 43/43/43 39/39/39 42/42/42
f 39/39/39 38/38/38 42/42/42
f 42/42/42 38/38/38 37/37/37
f 35/35/35 28/28/28 36/36/36
f 31/31/31 28/28/28 35/35/35
f 30/30/30 28/28/28 31/31/31
f 29/29/29 28/28/28 30/30/30
f 27/27/27 28/28/28 29/29/29
f 27/27/27 29/29/29 34/34/34
f 27/27/27 34/34/34 33/33/33
f 33/33/33 39/39/39 27/27/27
f 33/33/33 38/38/38 39/39/39
f 18/18/18 38/38/38 33/33/33
f 18/18/18 1/1/1 38/38/38
f 38/38/38 1/1/1 37/37/37
f 37/37/37 1/1/1 3/3/3
f 1/1/1 2/2/2 3/3/3
f 26/26/26 29/29/29 30/30/30
f 25/25/25 29/29/29 26/26/26
f 34/34/34 29/29/29 25/25/25
f 34/34/34 25/25/25 20/20/20
f 20/20/20 19/19/19 34/34/34
f 19/19/19 33/33/33 34/34/34
f 18/18/18 33/33/33 19/19/19
f 13/13/13 18/18/18 19/19/19
f 11/11/11 18/18/18 13/13/13
f 18/18/18 11/11/11 1/1/1
f 1/1/1 11/11/11 10/10/10
f 1/1/1 10/10/10 2/2/2
f 24/24/24 25/25/25 26/26/26
f 22/22/22 25/25/25 24/24/24
f 20/20/20 25/25/25 22/22/22
f 16/16/16 20/20/20 22/22/22
f 20/20/20 16/16/16 21/21/21
f 13/13/13 20/20/20 21/21/21
f 19/19/19 20/20/20 13/13/13
f 23/23/23 22/22/22 24/24/24
f 16/16/16 22/22/22 23/23/23
f 23/23/23 41/41/41 16/16/16
f 16/16/16 41/41/41 17/17/17
f 15/15/15 16/16/16 17/17/17
f 21/21/21 16/16/16 15/15/15
f 14/14/14 21/21/21 15/15/15
f 13/13/13 21/21/21 14/14/14
f 12/12/12 13/13/13 14/14/14
f 11/11/11 13/13/13 12/12/12
f 10/10/10 11/11/11 12/12/12
f 4/4/4 9/9/9 40/40/40
f 8/8/8 9/9/9 4/4/4
f 4/4/4 7/7/7 8/8/8
f 4/4/4 6/6/6 7/7/7
f 4/4/4 5/5/5 6/6/6
f 40/40/40 5/5/5 4/4/4

