g b002v001_h
v 0.5 0.99999994 -0.5
v -0.5 0.99999994 -0.5
v -0.5 -1.4901161E-08 -0.5
v 0.5 -1.4901161E-08 -0.5
v 0.5 0.25 0.49999997
v -0.5 0.25 0.49999997
v -0.5 1.25 -0.5000001
v 0.5 1.25 -0.5000001
v 0.5 -1.4901161E-08 -0.5
v -0.5 -1.4901161E-08 -0.5
v -0.5 1.4901161E-08 0.5
v 0.5 1.4901161E-08 0.5
v 0.5 1.25 -0.5000001
v -0.5 1.25 -0.5000001
v -0.5 0.99999994 -0.5
v 0.5 0.99999994 -0.5
v -0.5 0.25 0.49999997
v 0.5 0.25 0.49999997
v 0.5 1.4901161E-08 0.5
v -0.5 1.4901161E-08 0.5
v -0.5 -1.4901161E-08 -0.5
v -0.5 0.99999994 -0.5
v -0.5 1.4901161E-08 0.5
v 0.5 1.4901161E-08 0.5
v 0.5 0.99999994 -0.5
v 0.5 -1.4901161E-08 -0.5
v -0.5 1.4901161E-08 0.5
v -0.5 0.99999994 -0.5
v -0.5 0.25 0.49999997
v -0.5 1.25 -0.5000001
v 0.5 1.4901161E-08 0.5
v 0.5 0.25 0.49999997
v 0.5 0.99999994 -0.5
v 0.5 1.25 -0.5000001
vt 0.4140625 0.51660156
vt 0.6640625 0.51660156
vt 0.6640625 0.015655518
vt 0.4140625 0.015655518
vt 0.33911133 0.25683594
vt 0.08892822 0.25683594
vt 0.08892822 0.96533203
vt 0.33911133 0.96533203
vt 0.4140625 0.51660156
vt 0.6640625 0.51660156
vt 0.6640625 0.015655518
vt 0.4140625 0.015655518
vt 0.7368164 0.58691406
vt 0.9873047 0.58691406
vt 0.9873047 0.46191406
vt 0.7368164 0.46191406
vt 0.08892822 0.23046875
vt 0.33911133 0.23046875
vt 0.33911133 0.105285645
vt 0.08892822 0.105285645
vt 0.6821289 0.017944336
vt 0.6821289 0.5185547
vt 0.9326172 0.017944336
vt 0.9326172 0.017944336
vt 0.6821289 0.5185547
vt 0.6821289 0.017944336
vt 0.025512695 0.16809082
vt 0.025512695 0.87646484
vt 0.06970215 0.25683594
vt 0.06970215 0.96533203
vt 0.39990234 0.16809082
vt 0.3557129 0.25683594
vt 0.39990234 0.87646484
vt 0.3557129 0.96533203
vn -0 0 -1
vn -0 0 -1
vn -0 0 -1
vn -0 0 -1
vn -0 0.70703125 0.70703125
vn -0 0.70703125 0.70703125
vn -0 0.70703125 0.70703125
vn -0 0.70703125 0.70703125
vn -0 -1 0
vn -0 -1 0
vn -0 -1 0
vn -0 -1 0
vn -0 0 -1
vn -0 0 -1
vn -0 0 -1
vn -0 0 -1
vn -0 0 1
vn -0 0 1
vn -0 0 1
vn -0 0 1
vn -1 0 0
vn -1 0 0
vn -1 0 0
vn 1 0 0
vn 1 0 0
vn 1 0 0
vn -1 0 0
vn -1 0 0
vn -1 0 0
vn -1 0 0
vn 1 0 0
vn 1 0 0
vn 1 0 0
vn 1 0 0
g b002v001_h_0
f 3/3/3 2/2/2 1/1/1
f 4/4/4 3/3/3 1/1/1
f 7/7/7 6/6/6 5/5/5
f 8/8/8 7/7/7 5/5/5
f 11/11/11 10/10/10 9/9/9
f 12/12/12 11/11/11 9/9/9
f 15/15/15 14/14/14 13/13/13
f 16/16/16 15/15/15 13/13/13
f 19/19/19 18/18/18 17/17/17
f 20/20/20 19/19/19 17/17/17
g b002v001_h_1
f 23/23/23 22/22/22 21/21/21
f 26/26/26 25/25/25 24/24/24
f 29/29/29 28/28/28 27/27/27
f 29/29/29 30/30/30 28/28/28
f 33/33/33 32/32/32 31/31/31
f 33/33/33 34/34/34 32/32/32
