g b005v001_h
v 0.5 0 -0.5
v 0.5 0 0.5
v 0.5 1 -0.5
v -0.5 0 -0.5
v -0.5 1 -0.5
v -0.5 0 0.5
v 0.5 0 0.5
v 0.35114264 0.25 0.5
v 0.5 0.25 0.5
v -0.35114264 0.25 0.5
v -0.5 0 0.5
v -0.5 0.25 0.5
v 0.5 0.25 0.5
v 0.07571685 1.2149487 -0.46476868
v 0.5 1.25 -0.5
v -0 1.25 -0.5
v -0.5 1.25 -0.5
v -0.07571685 1.2149487 -0.46476868
v -0.5 0.25 0.5
v -0 1.25 -0.5
v 0.5 1 -0.5
v 0.5 1.25 -0.5
v -0 1 -0.5
v -0.5 1 -0.5
v -0.5 1.25 -0.5
v 0.5 0 -0.5
v -0.5 0 -0.5
v -0.5 0 0.5
v 0.5 0 0.5
v 0.35114264 0.25 0.5
v -0.35114264 0.25 0.5
v -0.35114264 0.25 -0.5
v 0.35114264 0.25 -0.5
v 0.5 0.25 0.5
v 0.07571685 1.2149487 0.5
v 0.07571685 1.2149487 -0.46476868
v -0 1.25 0.5
v -0 1.25 -0.5
v -0.07571685 1.2149487 -0.46476868
v -0.07571685 1.2149487 0.5
v -0.5 0.25 0.5
v -0 0.95739317 -0.5
v -0 0.95739317 0.5
v 0.04136443 0.9331186 0.5
v 0.04136443 0.9331186 -0.5
v 0.35114264 0.25 0.5
v 0.35114264 0.25 -0.5
v 0.04136443 0.9331186 0.5
v 0.5 0.25 0.5
v 0.35114264 0.25 0.5
v 0.07571685 1.2149487 0.5
v -0 0.95739317 0.5
v -0 1.25 0.5
v -0.07571685 1.2149487 0.5
v -0.04136443 0.9331186 0.5
v -0.5 0.25 0.5
v -0.35114264 0.25 0.5
v 0.5 1 -0.5
v 0.5 0 0.5
v 0.5 0.25 0.5
v 0.5 1.25 -0.5
v -0 0.95739317 -0.5
v -0.04136443 0.9331186 0.5
v -0 0.95739317 0.5
v -0.04136443 0.9331186 -0.5
v -0.35114264 0.25 0.5
v -0.35114264 0.25 -0.5
v -0.5 1 -0.5
v -0.5 1.25 -0.5
v -0.5 0.25 0.5
v -0.5 0 0.5
v -0.068819344 0.24354245 0.23650113
v -0.068819344 0.96201366 0.23650113
v 0.06881839 0.96201366 0.23650113
v 0.06881839 0.24354245 0.23650113
v -0.068819344 0.96201366 0.06402677
v -0.068819344 0.24354245 0.06402677
v 0.06881839 0.24354245 0.06402677
v 0.06881839 0.96201366 0.06402677
v -0.068819344 0.24354245 0.06402677
v -0.068819344 0.96201366 0.06402677
v -0.068819344 0.96201366 0.23650113
v -0.068819344 0.24354245 0.23650113
v 0.06881839 0.96201366 0.23650113
v 0.06881839 0.96201366 0.06402677
v 0.06881839 0.24354245 0.06402677
v 0.06881839 0.24354245 0.23650113
v -0.26587796 0.43828076 0.21225014
v -0.26587796 0.5673819 0.21225014
v 0.265877 0.5673819 0.21225014
v 0.265877 0.43828076 0.21225014
v -0.26587796 0.5673819 0.21225014
v -0.26587796 0.5673819 0.08933504
v 0.265877 0.5673819 0.08933504
v 0.265877 0.5673819 0.21225014
v -0.26587796 0.5673819 0.08933504
v -0.26587796 0.43828076 0.08933504
v 0.265877 0.43828076 0.08933504
v 0.265877 0.5673819 0.08933504
v -0.26587796 0.43828076 0.08933504
v -0.26587796 0.43828076 0.21225014
v 0.265877 0.43828076 0.21225014
v 0.265877 0.43828076 0.08933504
v 0.5 1 -0.5
v -0 1 -0.5
v -0 0.95739317 -0.5
v -0.5 1 -0.5
v 0.04136443 0.9331186 -0.5
v -0.04136443 0.9331186 -0.5
v -0.35114264 0.25 -0.5
v -0.5 0 -0.5
v 0.35114264 0.25 -0.5
v 0.5 0 -0.5
vt 0.3708496 0.01335907
vt 0.12036133 0.01335907
vt 0.3708496 0.26391602
vt 0.39990234 0.01335907
vt 0.39990234 0.26391602
vt 0.6503906 0.01335907
vt 0.2602539 0.49047852
vt 0.22302246 0.55322266
vt 0.2602539 0.55322266
vt 0.047088623 0.55322266
vt 0.009796143 0.49047852
vt 0.009796143 0.55322266
vt 0.26342773 0.6274414
vt 0.15722656 0.9692383
vt 0.26342773 0.9814453
vt 0.1381836 0.9814453
vt 0.012992859 0.9814453
vt 0.119262695 0.9692383
vt 0.012992859 0.6274414
vt 0.8144531 0.35107422
vt 0.6894531 0.28857422
vt 0.6894531 0.35107422
vt 0.8144531 0.28857422
vt 0.9399414 0.28857422
vt 0.9399414 0.35107422
vt 0.73828125 0.8544922
vt 0.98876953 0.8544922
vt 0.98876953 0.6040039
vt 0.73828125 0.6040039
vt 0.20092773 0.21240234
vt 0.024978638 0.21240234
vt 0.024978638 0.46289062
vt 0.20092773 0.46289062
vt 0.28857422 0.99121094
vt 0.5527344 0.99121094
vt 0.5527344 0.7495117
vt 0.57177734 0.99121094
vt 0.57177734 0.74072266
vt 0.59033203 0.7495117
vt 0.59033203 0.99121094
vt 0.8544922 0.99121094
vt 0.3010254 0.58203125
vt 0.55126953 0.58203125
vt 0.55126953 0.57177734
vt 0.3010254 0.57177734
vt 0.55126953 0.38378906
vt 0.3010254 0.38378906
vt 0.14538574 0.7475586
vt 0.2602539 0.57666016
vt 0.22302246 0.57666016
vt 0.15405273 0.8183594
vt 0.13500977 0.75341797
vt 0.13500977 0.82714844
vt 0.11608887 0.8183594
vt 0.124694824 0.7475586
vt 0.009796143 0.57666016
vt 0.047088623 0.57666016
vt 0.3708496 0.28833008
vt 0.12036133 0.037872314
vt 0.12036133 0.1005249
vt 0.3708496 0.35107422
vt 0.8232422 0.58203125
vt 0.5727539 0.57177734
vt 0.5727539 0.58203125
vt 0.8232422 0.57177734
vt 0.5727539 0.38378906
vt 0.8232422 0.38378906
vt 0.39990234 0.28833008
vt 0.39990234 0.35107422
vt 0.6503906 0.1005249
vt 0.6503906 0.037872314
vt 0.28637695 0.6118164
vt 0.28637695 0.7915039
vt 0.32104492 0.7915039
vt 0.32104492 0.6118164
vt 0.36767578 0.7915039
vt 0.36767578 0.6118164
vt 0.3330078 0.6118164
vt 0.3330078 0.7915039
vt 0.38012695 0.6118164
vt 0.38012695 0.7915039
vt 0.42333984 0.7915039
vt 0.42333984 0.6118164
vt 0.43530273 0.7915039
vt 0.47851562 0.7915039
vt 0.47851562 0.6118164
vt 0.43530273 0.6118164
vt 0.8564453 0.4506836
vt 0.8564453 0.48291016
vt 0.9897461 0.48291016
vt 0.9897461 0.4506836
vt 0.8564453 0.54248047
vt 0.8564453 0.5732422
vt 0.9897461 0.5732422
vt 0.9897461 0.54248047
vt 0.8564453 0.4074707
vt 0.8564453 0.4399414
vt 0.9897461 0.4399414
vt 0.9897461 0.4074707
vt 0.8564453 0.49926758
vt 0.8564453 0.53027344
vt 0.9897461 0.53027344
vt 0.9897461 0.49926758
vt 0.6894531 0.26391602
vt 0.8144531 0.26391602
vt 0.8144531 0.25317383
vt 0.9399414 0.26391602
vt 0.8041992 0.24719238
vt 0.82470703 0.24719238
vt 0.90234375 0.076049805
vt 0.9399414 0.013427734
vt 0.7265625 0.076049805
vt 0.6894531 0.013427734
vn 1 0 0
vn 1 0 0
vn 1 0 0
vn -1 0 0
vn -1 0 0
vn -1 0 0
vn -0 0 1
vn -0 0 1
vn -0 0 1
vn -0 0 1
vn -0 0 1
vn -0 0 1
vn 0.00029993057 0.70703125 0.70703125
vn -0 0.7089844 0.7050781
vn -0 0.7089844 0.7050781
vn -0 0.7089844 0.7050781
vn -0 0.7089844 0.7050781
vn -0 0.7089844 0.7050781
vn -0.00029993057 0.70703125 0.70703125
vn -0 0 -1
vn -0 0 -1
vn -0 0 -1
vn -0 0 -1
vn -0 0 -1
vn -0 0 -1
vn -0 -1 0
vn -0 -1 0
vn -0 -1 0
vn -0 -1 0
vn -0 1 0
vn -0 1 0
vn -0 1 0
vn -0 1 0
vn 0.91552734 0.4025879 0
vn 0.8730469 0.4873047 0
vn 0.8203125 0.57177734 0
vn -0 1 0
vn -0 1 0
vn -0.8203125 0.57177734 0
vn -0.8730469 0.4873047 0
vn -0.91552734 0.4025879 0
vn -0 -1 0
vn -0 -1 0
vn -0.8955078 -0.44458008 0
vn -0.8955078 -0.44458008 0
vn -0.91064453 -0.41308594 0
vn -0.91064453 -0.41308594 0
vn -0 0 1
vn -0 0 1
vn -0 0 1
vn -0 0 1
vn -0 0 1
vn -0 0 1
vn -0 0 1
vn -0 0 1
vn -0 0 1
vn -0 0 1
vn 1 0 0
vn 1 0 0
vn 1 0 0
vn 1 0 0
vn -0 -1 0
vn 0.8955078 -0.44458008 0
vn -0 -1 0
vn 0.8955078 -0.44458008 0
vn 0.91064453 -0.41308594 0
vn 0.91064453 -0.41308594 0
vn -1 0 0
vn -1 0 0
vn -1 0 0
vn -1 0 0
vn -0 0 1
vn -0 0 1
vn -0 0 1
vn -0 0 1
vn -0 0 -1
vn -0 0 -1
vn -0 0 -1
vn -0 0 -1
vn -1 0 0
vn -1 0 0
vn -1 0 0
vn -1 0 0
vn 1 0 0
vn 1 0 0
vn 1 0 0
vn 1 0 0
vn -0 0 1
vn -0 0 1
vn -0 0 1
vn -0 0 1
vn -0 1 0
vn -0 1 0
vn -0 1 0
vn -0 1 0
vn -0 0 -1
vn -0 0 -1
vn -0 0 -1
vn -0 0 -1
vn -0 -1 0
vn -0 -1 0
vn -0 -1 0
vn -0 -1 0
vn -0 0 -1
vn -0 0 -1
vn -0 0 -1
vn -0 0 -1
vn -0 0 -1
vn -0 0 -1
vn -0 0 -1
vn -0 0 -1
vn -0 0 -1
vn -0 0 -1
g b005v001_h_0
f 3/3/3 2/2/2 1/1/1
f 6/6/6 5/5/5 4/4/4
f 9/9/9 8/8/8 7/7/7
f 8/8/8 10/10/10 7/7/7
f 10/10/10 11/11/11 7/7/7
f 10/10/10 12/12/12 11/11/11
f 15/15/15 14/14/14 13/13/13
f 16/16/16 14/14/14 15/15/15
f 18/18/18 16/16/16 17/17/17
f 18/18/18 17/17/17 19/19/19
f 22/22/22 21/21/21 20/20/20
f 23/23/23 20/20/20 21/21/21
f 20/20/20 23/23/23 24/24/24
f 24/24/24 25/25/25 20/20/20
f 28/28/28 27/27/27 26/26/26
f 29/29/29 28/28/28 26/26/26
f 32/32/32 31/31/31 30/30/30
f 33/33/33 32/32/32 30/30/30
f 36/36/36 35/35/35 34/34/34
f 37/37/37 35/35/35 36/36/36
f 38/38/38 37/37/37 36/36/36
f 38/38/38 39/39/39 37/37/37
f 39/39/39 40/40/40 37/37/37
f 39/39/39 41/41/41 40/40/40
f 44/44/44 43/43/43 42/42/42
f 45/45/45 44/44/44 42/42/42
f 46/46/46 44/44/44 45/45/45
f 47/47/47 46/46/46 45/45/45
f 50/50/50 49/49/49 48/48/48
f 49/49/49 51/51/51 48/48/48
f 48/48/48 51/51/51 52/52/52
f 51/51/51 53/53/53 52/52/52
f 53/53/53 54/54/54 52/52/52
f 54/54/54 55/55/55 52/52/52
f 54/54/54 56/56/56 55/55/55
f 56/56/56 57/57/57 55/55/55
f 60/60/60 59/59/59 58/58/58
f 61/61/61 60/60/60 58/58/58
f 64/64/64 63/63/63 62/62/62
f 63/63/63 65/65/65 62/62/62
f 63/63/63 66/66/66 65/65/65
f 66/66/66 67/67/67 65/65/65
f 70/70/70 69/69/69 68/68/68
f 71/71/71 70/70/70 68/68/68
f 74/74/74 73/73/73 72/72/72
f 75/75/75 74/74/74 72/72/72
f 78/78/78 77/77/77 76/76/76
f 79/79/79 78/78/78 76/76/76
f 82/82/82 81/81/81 80/80/80
f 83/83/83 82/82/82 80/80/80
f 86/86/86 85/85/85 84/84/84
f 87/87/87 86/86/86 84/84/84
f 90/90/90 89/89/89 88/88/88
f 91/91/91 90/90/90 88/88/88
f 94/94/94 93/93/93 92/92/92
f 95/95/95 94/94/94 92/92/92
f 98/98/98 97/97/97 96/96/96
f 99/99/99 98/98/98 96/96/96
f 102/102/102 101/101/101 100/100/100
f 103/103/103 102/102/102 100/100/100
f 106/106/106 105/105/105 104/104/104
f 105/105/105 106/106/106 107/107/107
f 108/108/108 106/106/106 104/104/104
f 106/106/106 109/109/109 107/107/107
f 109/109/109 110/110/110 107/107/107
f 110/110/110 111/111/111 107/107/107
f 112/112/112 108/108/108 104/104/104
f 111/111/111 110/110/110 112/112/112
f 113/113/113 112/112/112 104/104/104
f 113/113/113 111/111/111 112/112/112
