#
# OBJECT NAME
#
o model_2728
mtllib 2728.mtl

#
# VERTEX BUFFER 000
#
v -0.499999 0 0.499981
v -0.499999 0.329981 0.17
v -0.499999 1e-005 -0.50001
v -0.499999 0.329981 0.499981
v -0.499999 0.664986 0.17
v -0.499999 0.664986 -0.165005
v -0.499999 1 -0.165005
v -0.499999 1.00001 -0.50001
v -0.499999 0.329981 0.499981
v -0.499999 0 0.499981
v 0.499995 0 0.499981
v 0.499995 0.329981 0.499981
v -0.499999 0 0.499981
v -0.499999 1e-005 -0.50001
v 0.499995 1e-005 -0.50001
v 0.499995 0 0.499981
v 0.499995 0 0.499981
v 0.499995 1e-005 -0.50001
v 0.499995 0.329981 0.17
v -0.499999 0.329981 0.17
v -0.499999 0.329981 0.499981
v 0.499995 0.329981 0.499981
v 0.499995 0.329981 0.17
v 0.499995 0.329981 0.499981
v -0.499999 0.664986 0.17
v -0.499999 0.329981 0.17
v 0.499995 0.329981 0.17
v 0.499995 0.664986 0.17
v -0.499999 0.664986 -0.165005
v -0.499999 0.664986 0.17
v 0.499995 0.664986 0.17
v 0.499995 0.664986 -0.165005
v 0.499995 0.664986 -0.165005
v 0.499995 0.664986 0.17
v -0.499999 1 -0.165005
v -0.499999 0.664986 -0.165005
v 0.499995 0.664986 -0.165005
v 0.499995 1 -0.165005
v -0.499999 1.00001 -0.50001
v -0.499999 1 -0.165005
v 0.499995 1 -0.165005
v 0.499995 1.00001 -0.50001
v 0.499995 1.00001 -0.50001
v 0.499995 1 -0.165005
v -0.499999 1e-005 -0.50001
v -0.499999 1.00001 -0.50001
v 0.499995 1.00001 -0.50001
v 0.499995 1e-005 -0.50001

vn -1 0 0
vn -1 0 0
vn -1 0 0
vn -1 0 0
vn -1 0 0
vn -1 0 0
vn -1 0 0
vn -1 0 0
vn 0 0 1
vn 0 0 1
vn 0 0 1
vn 0 0 1
vn 0 -1 0
vn 0 -1 0
vn 0 -1 0
vn 0 -1 0
vn 1 0 0
vn 1 0 0
vn 1 0 0
vn 0 1 0
vn 0 1 0
vn 0 1 0
vn 0 1 0
vn 1 0 0
vn 0 0 1
vn 0 0 1
vn 0 0 1
vn 0 0 1
vn 0 1 0
vn 0 1 0
vn 0 1 0
vn 0 1 0
vn 1 0 0
vn 1 0 0
vn 0 0 1
vn 0 0 1
vn 0 0 1
vn 0 0 1
vn 0 1 0
vn 0 1 0
vn 0 1 0
vn 0 1 0
vn 1 0 0
vn 1 0 0
vn 0 0 -1
vn 0 0 -1
vn 0 0 -1
vn 0 0 -1

vt 0.751868 0.0039109
vt 0.833408 0.166077
vt 0.99812 0.0039109
vt 0.751868 0.166077
vt 0.833408 0.33062
vt 0.916065 0.33062
vt 0.916065 0.496089
vt 0.99812 0.496089
vt 0.250395 0.165737
vt 0.250395 0.00591004
vt 0.500175 0.00591004
vt 0.500175 0.165737
vt 0.751868 0.503911
vt 0.751868 0.996089
vt 0.99812 0.996089
vt 0.99812 0.503911
vt 0.751868 0.0039109
vt 0.99812 0.0039109
vt 0.833408 0.166077
vt 0.250395 0.334281
vt 0.250395 0.170504
vt 0.500175 0.170504
vt 0.500175 0.334281
vt 0.751868 0.166077
vt 0.250395 0.496975
vt 0.250395 0.342849
vt 0.500175 0.342849
vt 0.500175 0.496975
vt 0.250395 0.665241
vt 0.250395 0.503169
vt 0.500175 0.503169
vt 0.500175 0.665241
vt 0.916065 0.33062
vt 0.833408 0.33062
vt 0.250395 0.833534
vt 0.250395 0.673339
vt 0.500175 0.673339
vt 0.500175 0.833534
vt 0.250395 0.996328
vt 0.250395 0.838489
vt 0.500175 0.838489
vt 0.500175 0.996328
vt 0.99812 0.496089
vt 0.916065 0.496089
vt 0.751868 0.503911
vt 0.751868 0.996089
vt 0.99812 0.996089
vt 0.99812 0.503911


#
# MESH 000
#
g surface_000
usemtl surface_000
f 45/45/45 47/47/47 48/48/48
f 45/45/45 46/46/46 47/47/47
f 33/33/33 43/43/43 44/44/44
f 33/33/33 18/18/18 43/43/43
f 19/19/19 18/18/18 33/33/33
f 17/17/17 18/18/18 19/19/19
f 17/17/17 19/19/19 24/24/24
f 19/19/19 33/33/33 34/34/34
f 39/39/39 41/41/41 42/42/42
f 39/39/39 40/40/40 41/41/41
f 35/35/35 37/37/37 38/38/38
f 35/35/35 36/36/36 37/37/37
f 29/29/29 31/31/31 32/32/32
f 29/29/29 30/30/30 31/31/31
f 25/25/25 27/27/27 28/28/28
f 25/25/25 26/26/26 27/27/27
f 20/20/20 22/22/22 23/23/23
f 20/20/20 21/21/21 22/22/22
f 13/13/13 15/15/15 16/16/16
f 13/13/13 14/14/14 15/15/15
f 9/9/9 11/11/11 12/12/12
f 9/9/9 10/10/10 11/11/11
f 6/6/6 7/7/7 8/8/8
f 6/6/6 8/8/8 3/3/3
f 2/2/2 6/6/6 3/3/3
f 2/2/2 5/5/5 6/6/6
f 1/1/1 2/2/2 3/3/3
f 1/1/1 4/4/4 2/2/2

