# Blender 4.1.1
# www.blender.org
mtllib figurine.mtl
o polySurface22
v 0.091552 0.876340 -0.091552
v 0.091552 0.876340 0.091552
v 0.225548 1.014053 -0.000000
v 0.091552 0.876340 0.091552
v -0.091552 0.876340 0.091552
v 0.000000 1.014053 0.225548
v -0.091552 0.876340 0.091552
v -0.091552 0.876340 -0.091552
v -0.225548 1.014053 -0.000000
v -0.091552 0.876340 -0.091552
v 0.091552 0.876340 -0.091552
v 0.000000 1.014053 -0.225548
v -0.091552 0.876340 -0.091552
v 0.000000 0.716477 -0.273144
v 0.091552 0.876340 -0.091552
v -0.091552 0.876340 0.091552
v -0.273144 0.716477 -0.000000
v -0.091552 0.876340 -0.091552
v 0.091552 0.876340 0.091552
v 0.000000 0.716477 0.273144
v -0.091552 0.876340 0.091552
v 0.091552 0.876340 -0.091552
v 0.273144 0.716477 -0.000000
v 0.091552 0.876340 0.091552
v 0.000000 1.319117 -0.000000
v 0.144599 1.124922 -0.144599
v 0.225548 1.014053 -0.000000
v 0.144599 1.124922 0.144599
v 0.091552 0.876340 0.091552
v 0.000000 1.014053 0.225548
v 0.144599 1.124922 0.144599
v 0.225548 1.014053 -0.000000
v 0.192613 0.555948 0.192613
v 0.000000 0.716477 0.273144
v 0.091552 0.876340 0.091552
v 0.273144 0.716477 -0.000000
v 0.000000 0.108849 -0.000000
v 0.192613 0.555948 0.192613
v 0.273144 0.716477 -0.000000
v 0.192613 0.555948 -0.192613
v 0.000000 1.319117 -0.000000
v 0.144599 1.124922 0.144599
v 0.000000 1.014053 0.225548
v -0.144599 1.124922 0.144599
v -0.091552 0.876340 0.091552
v -0.225548 1.014053 -0.000000
v -0.144599 1.124922 0.144599
v 0.000000 1.014053 0.225548
v -0.192613 0.555948 0.192613
v -0.273144 0.716477 -0.000000
v -0.091552 0.876340 0.091552
v 0.000000 0.716477 0.273144
v 0.000000 0.108849 -0.000000
v -0.192613 0.555948 0.192613
v 0.000000 0.716477 0.273144
v 0.192613 0.555948 0.192613
v 0.000000 1.319117 -0.000000
v -0.144599 1.124922 0.144599
v -0.225548 1.014053 -0.000000
v -0.144599 1.124922 -0.144599
v -0.091552 0.876340 -0.091552
v 0.000000 1.014053 -0.225548
v -0.144599 1.124922 -0.144599
v -0.225548 1.014053 -0.000000
v -0.192613 0.555948 -0.192613
v 0.000000 0.716477 -0.273144
v -0.091552 0.876340 -0.091552
v -0.273144 0.716477 -0.000000
v 0.000000 0.108849 -0.000000
v -0.192613 0.555948 -0.192613
v -0.273144 0.716477 -0.000000
v -0.192613 0.555948 0.192613
v 0.000000 1.319117 -0.000000
v -0.144599 1.124922 -0.144599
v 0.000000 1.014053 -0.225548
v 0.144599 1.124922 -0.144599
v 0.091552 0.876340 -0.091552
v 0.225548 1.014053 -0.000000
v 0.144599 1.124922 -0.144599
v 0.000000 1.014053 -0.225548
v 0.192613 0.555948 -0.192613
v 0.273144 0.716477 -0.000000
v 0.091552 0.876340 -0.091552
v 0.000000 0.716477 -0.273144
v 0.000000 0.108849 -0.000000
v 0.192613 0.555948 -0.192613
v 0.000000 0.716477 -0.273144
v -0.192613 0.555948 -0.192613
vn 0.7167 -0.6974 -0.0000
vn -0.0000 -0.6974 0.7167
vn -0.7167 -0.6974 -0.0000
vn -0.0000 -0.6974 -0.7167
vn -0.0000 0.7506 -0.6608
vn -0.6608 0.7506 -0.0000
vn -0.0000 0.7506 0.6608
vn 0.6608 0.7506 -0.0000
vn 0.8041 0.5945 -0.0000
vn 0.6769 -0.2889 0.6770
vn 0.6770 -0.2889 0.6769
vn 0.6458 0.4074 0.6458
vn 0.6458 0.4074 0.6457
vn 0.9121 -0.4100 -0.0000
vn -0.0000 0.5945 0.8041
vn -0.6770 -0.2889 0.6769
vn -0.6769 -0.2889 0.6770
vn -0.6458 0.4074 0.6458
vn -0.0000 -0.4100 0.9121
vn -0.8041 0.5945 -0.0000
vn -0.6769 -0.2889 -0.6770
vn -0.6770 -0.2889 -0.6769
vn -0.6458 0.4074 -0.6458
vn -0.6458 0.4074 -0.6457
vn -0.9121 -0.4100 -0.0000
vn -0.0000 0.5945 -0.8041
vn 0.6770 -0.2889 -0.6769
vn 0.6769 -0.2889 -0.6770
vn 0.6458 0.4074 -0.6458
vn -0.0000 -0.4100 -0.9121
vt 0.139126 0.750954
vt 0.077137 0.657709
vt 0.172492 0.644071
vt 0.498741 0.965053
vt 0.589936 1.027361
vt 0.507800 1.075129
vt 0.884325 0.900959
vt 0.822336 0.807715
vt 0.917691 0.794077
vt -0.005330 0.972863
vt -0.096525 0.910555
vt -0.014389 0.862787
vt 0.227362 0.761223
vt 0.351845 0.823888
vt 0.217062 0.859333
vt 0.466949 0.395899
vt 0.531935 0.282772
vt 0.558123 0.410580
vt 0.296834 1.008796
vt 0.172351 0.946131
vt 0.307134 0.910685
vt 0.119841 0.478594
vt 0.184826 0.365467
vt 0.211015 0.493275
vt 0.101685 0.751394
vt 0.178121 0.832021
vt 0.090560 0.962505
vt 0.017199 0.823541
vt -0.082404 0.746134
vt -0.154045 0.673787
vt -0.062610 0.615025
vt 0.007402 0.698160
vt 0.003843 0.440396
vt -0.115356 0.390736
vt -0.053287 0.274847
vt 0.067045 0.327791
vt -0.164667 -0.189292
vt -0.047428 -0.086078
vt -0.153375 0.205812
vt -0.275820 -0.079550
vt 0.550571 0.617115
vt 0.607228 0.540201
vt 0.730939 0.594535
vt 0.624440 0.677689
vt 0.849870 0.639302
vt 0.756243 0.599295
vt 0.818784 0.510402
vt 0.914969 0.561016
vt 0.742092 0.185807
vt 0.662414 0.084191
vt 0.773234 0.013469
vt 0.852295 0.118503
vt 1.289296 0.962140
vt 1.172057 0.858926
vt 1.278004 0.567035
vt 1.400449 0.852398
vt -0.253126 0.618697
vt -0.168640 0.690844
vt -0.242001 0.829808
vt -0.329562 0.699324
vt 0.437788 0.623053
vt 0.366147 0.550706
vt 0.457581 0.491943
vt 0.527594 0.575079
vt 0.460706 0.461302
vt 0.341507 0.411641
vt 0.403576 0.295753
vt 0.523908 0.348697
vt 0.390650 0.137111
vt 0.273411 0.033896
vt 0.379358 -0.257994
vt 0.501803 0.027369
vt 0.623735 0.838048
vt 0.567079 0.914963
vt 0.443368 0.860628
vt 0.549867 0.777474
vt 0.331650 0.744922
vt 0.250429 0.683523
vt 0.332555 0.612330
vt 0.413702 0.684639
vt 0.297933 0.344455
vt 0.218255 0.242839
vt 0.329075 0.172117
vt 0.408136 0.277151
vt 1.022055 0.054003
vt 1.139295 0.157217
vt 1.033348 0.449107
vt 0.910903 0.163745
s 0
f 3/1/1 2/2/1 1/3/1
f 6/4/2 5/5/2 4/6/2
f 9/7/3 8/8/3 7/9/3
f 12/10/4 11/11/4 10/12/4
f 15/13/5 14/14/5 13/15/5
f 18/16/6 17/17/6 16/18/6
f 21/19/7 20/20/7 19/21/7
f 24/22/8 23/23/8 22/24/8
f 27/25/9 26/26/9 25/27/9
f 28/28/9 27/25/9 25/27/9
f 31/29/10 30/30/10 29/31/10
f 32/32/11 31/29/11 29/31/11
f 35/33/12 34/34/12 33/35/12
f 36/36/13 35/33/13 33/35/12
f 39/37/14 38/38/14 37/39/14
f 40/40/14 39/37/14 37/39/14
f 43/41/15 42/42/15 41/43/15
f 44/44/15 43/41/15 41/43/15
f 47/45/16 46/46/16 45/47/16
f 48/48/17 47/45/17 45/47/17
f 51/49/18 50/50/18 49/51/18
f 52/52/18 51/49/18 49/51/18
f 55/53/19 54/54/19 53/55/19
f 56/56/19 55/53/19 53/55/19
f 59/57/20 58/58/20 57/59/20
f 60/60/20 59/57/20 57/59/20
f 63/61/21 62/62/21 61/63/21
f 64/64/22 63/61/22 61/63/22
f 67/65/23 66/66/23 65/67/23
f 68/68/24 67/65/24 65/67/23
f 71/69/25 70/70/25 69/71/25
f 72/72/25 71/69/25 69/71/25
f 75/73/26 74/74/26 73/75/26
f 76/76/26 75/73/26 73/75/26
f 79/77/27 78/78/27 77/79/27
f 80/80/28 79/77/28 77/79/28
f 83/81/29 82/82/29 81/83/29
f 84/84/29 83/81/29 81/83/29
f 87/85/30 86/86/30 85/87/30
f 88/88/30 87/85/30 85/87/30
o z034v001_h
v 0.284517 -0.117803 0.000000
v 0.000000 -0.117803 0.000000
v 0.274822 -0.117803 0.073638
v 0.274822 -0.117803 -0.073638
v 0.246399 -0.117803 0.142259
v 0.246399 -0.117803 -0.142258
v 0.201184 -0.117803 0.201184
v 0.201184 -0.117803 -0.201184
v 0.142259 -0.117803 0.246399
v 0.142258 -0.117803 -0.246399
v 0.073638 -0.117803 0.274822
v 0.073638 -0.117803 -0.274822
v -0.000000 -0.117803 0.284517
v 0.000000 -0.117803 -0.284517
v -0.073638 -0.117803 0.274822
v -0.073638 -0.117803 -0.274822
v -0.142259 -0.117803 0.246399
v -0.142258 -0.117803 -0.246399
v -0.201184 -0.117803 0.201184
v -0.201184 -0.117803 -0.201184
v -0.246399 -0.117803 0.142259
v -0.246399 -0.117803 -0.142258
v -0.274822 -0.117803 0.073638
v -0.274822 -0.117803 -0.073638
v -0.284517 -0.117803 -0.000000
v 0.274822 -0.117803 0.073638
v 0.228984 -0.039349 0.000000
v 0.284517 -0.117803 0.000000
v 0.221182 -0.039349 0.059265
v 0.000000 -0.039349 0.000000
v 0.246399 -0.117803 0.142259
v 0.221182 -0.039349 -0.059265
v 0.274822 -0.117803 -0.073638
v 0.198306 -0.039349 0.114492
v 0.201184 -0.117803 0.201184
v 0.198306 -0.039349 -0.114492
v 0.246399 -0.117803 -0.142258
v 0.161916 -0.039349 0.161916
v 0.142259 -0.117803 0.246399
v 0.161916 -0.039349 -0.161916
v 0.201184 -0.117803 -0.201184
v 0.114492 -0.039349 0.198306
v 0.114492 -0.039349 -0.198306
v 0.059265 -0.039349 0.221182
v 0.073638 -0.117803 0.274822
v 0.142258 -0.117803 -0.246399
v -0.000000 -0.117803 0.284517
v 0.059265 -0.039349 -0.221181
v 0.073638 -0.117803 -0.274822
v 0.000000 -0.039349 0.228984
v -0.073638 -0.117803 0.274822
v 0.000000 -0.039349 -0.228984
v 0.000000 -0.117803 -0.284517
v -0.059265 -0.039349 0.221182
v -0.142259 -0.117803 0.246399
v -0.059265 -0.039349 -0.221182
v -0.073638 -0.117803 -0.274822
v -0.114492 -0.039349 0.198306
v -0.114492 -0.039349 -0.198306
v -0.161916 -0.039349 0.161916
v -0.201184 -0.117803 0.201184
v -0.142258 -0.117803 -0.246399
v -0.246399 -0.117803 0.142259
v -0.161916 -0.039349 -0.161916
v -0.201184 -0.117803 -0.201184
v -0.198306 -0.039349 0.114492
v -0.274822 -0.117803 0.073638
v -0.198306 -0.039349 -0.114492
v -0.246399 -0.117803 -0.142258
v -0.221182 -0.039349 0.059265
v -0.284517 -0.117803 -0.000000
v -0.221182 -0.039349 -0.059265
v -0.274822 -0.117803 -0.073638
v -0.228984 -0.039349 -0.000000
vn -0.0000 -1.0000 -0.0000
vn 0.8163 0.5776 -0.0000
vn 0.4763 0.8793 -0.0000
vn 0.7885 0.5776 0.2113
vn 0.4600 0.8793 0.1233
vn -0.0000 1.0000 -0.0000
vn 0.4599 0.8794 0.1233
vn 0.7070 0.5776 0.4081
vn 0.4600 0.8793 -0.1233
vn 0.4599 0.8793 -0.1233
vn 0.7885 0.5776 -0.2113
vn 0.4124 0.8793 0.2381
vn 0.4600 0.8793 0.1232
vn 0.4123 0.8793 0.2382
vn 0.7069 0.5776 0.4082
vn 0.4123 0.8794 0.2382
vn 0.5772 0.5777 0.5772
vn 0.4124 0.8793 -0.2381
vn 0.4599 0.8794 -0.1233
vn 0.7070 0.5776 -0.4081
vn 0.3367 0.8794 0.3367
vn 0.3366 0.8794 0.3367
vn 0.4082 0.5776 0.7069
vn 0.3367 0.8794 -0.3366
vn 0.4123 0.8794 -0.2381
vn 0.7069 0.5776 -0.4082
vn 0.3366 0.8794 -0.3367
vn 0.5772 0.5777 -0.5772
vn 0.3367 0.8794 -0.3367
vn 0.2381 0.8794 0.4123
vn 0.3367 0.8794 0.3366
vn 0.2381 0.8793 0.4124
vn 0.2381 0.8793 -0.4124
vn 0.2382 0.8794 -0.4123
vn 0.1233 0.8793 0.4599
vn 0.4081 0.5776 0.7070
vn 0.2113 0.5776 0.7885
vn 0.1233 0.8794 0.4599
vn 0.4082 0.5776 -0.7069
vn 0.1233 0.8793 0.4600
vn -0.0000 0.5776 0.8163
vn 0.1233 0.8794 -0.4599
vn 0.4081 0.5776 -0.7070
vn 0.1232 0.8793 -0.4600
vn 0.2382 0.8793 -0.4123
vn 0.2113 0.5776 -0.7885
vn -0.0000 0.8793 0.4763
vn -0.2113 0.5776 0.7885
vn -0.0000 0.8793 -0.4763
vn 0.1233 0.8793 -0.4600
vn -0.0000 0.5776 -0.8163
vn -0.1233 0.8793 0.4600
vn -0.1233 0.8794 0.4599
vn -0.4081 0.5776 0.7070
vn -0.1233 0.8793 -0.4600
vn -0.1233 0.8793 -0.4599
vn -0.2113 0.5776 -0.7885
vn -0.2381 0.8793 0.4124
vn -0.1232 0.8793 0.4600
vn -0.2382 0.8793 0.4123
vn -0.2381 0.8793 -0.4124
vn -0.1233 0.8794 -0.4599
vn -0.3367 0.8794 0.3366
vn -0.4082 0.5776 0.7069
vn -0.2382 0.8794 0.4123
vn -0.5772 0.5777 0.5772
vn -0.3367 0.8794 0.3367
vn -0.4081 0.5776 -0.7070
vn -0.7069 0.5776 0.4082
vn -0.3366 0.8794 -0.3367
vn -0.2381 0.8794 -0.4123
vn -0.4082 0.5776 -0.7069
vn -0.3367 0.8794 -0.3366
vn -0.5772 0.5777 -0.5772
vn -0.3367 0.8794 -0.3367
vn -0.4123 0.8794 0.2381
vn -0.3366 0.8794 0.3367
vn -0.4124 0.8793 0.2381
vn -0.7070 0.5776 0.4081
vn -0.7885 0.5776 0.2113
vn -0.4123 0.8794 -0.2382
vn -0.4124 0.8793 -0.2381
vn -0.7069 0.5776 -0.4082
vn -0.4599 0.8794 0.1233
vn -0.4599 0.8793 0.1233
vn -0.4600 0.8793 0.1233
vn -0.8163 0.5776 -0.0000
vn -0.4599 0.8794 -0.1233
vn -0.7070 0.5776 -0.4081
vn -0.4600 0.8793 -0.1232
vn -0.4123 0.8793 -0.2382
vn -0.7885 0.5776 -0.2113
vn -0.4763 0.8793 -0.0000
vn -0.4600 0.8793 -0.1233
vt 0.968750 0.232178
vt 0.809082 0.182861
vt 0.974121 0.189453
vt 0.968750 0.146729
vt 0.952148 0.271973
vt 0.952148 0.106995
vt 0.925781 0.306152
vt 0.925781 0.072815
vt 0.891602 0.332520
vt 0.891602 0.046570
vt 0.852051 0.348877
vt 0.852051 0.030090
vt 0.809082 0.354492
vt 0.809082 0.024460
vt 0.766602 0.348877
vt 0.766602 0.030090
vt 0.726562 0.332520
vt 0.726562 0.046570
vt 0.692383 0.306152
vt 0.692383 0.072815
vt 0.666504 0.271973
vt 0.666504 0.106995
vt 0.649902 0.232178
vt 0.649902 0.146729
vt 0.644043 0.189453
vt 0.791992 0.596191
vt 0.688965 0.596191
vt 0.779297 0.499268
vt 0.679688 0.525879
vt 0.416992 0.596191
vt 0.741699 0.408691
vt 0.679688 0.666992
vt 0.779297 0.693359
vt 0.652832 0.460205
vt 0.682129 0.331055
vt 0.652832 0.732422
vt 0.741699 0.784180
vt 0.609375 0.403809
vt 0.604492 0.271484
vt 0.609375 0.789062
vt 0.682129 0.861816
vt 0.553223 0.360596
vt 0.553223 0.832031
vt 0.487305 0.333496
vt 0.514160 0.234009
vt 0.604492 0.921387
vt 0.416992 0.221191
vt 0.487305 0.859375
vt 0.514160 0.958984
vt 0.416992 0.324219
vt 0.319824 0.234009
vt 0.416992 0.868652
vt 0.416992 0.971680
vt 0.346436 0.333496
vt 0.229248 0.271484
vt 0.346436 0.859375
vt 0.319824 0.958984
vt 0.280762 0.360596
vt 0.280762 0.832031
vt 0.224365 0.403809
vt 0.151611 0.331055
vt 0.229248 0.921387
vt 0.091919 0.408691
vt 0.224365 0.789062
vt 0.151611 0.861816
vt 0.181030 0.460205
vt 0.054443 0.499268
vt 0.181030 0.732422
vt 0.091919 0.784180
vt 0.153809 0.525879
vt 0.041656 0.596191
vt 0.153809 0.666992
vt 0.054443 0.693359
vt 0.144531 0.596191
s 0
f 91/89/31 90/90/31 89/91/31
f 89/91/31 90/90/31 92/92/31
f 93/93/31 90/90/31 91/89/31
f 92/92/31 90/90/31 94/94/31
f 95/95/31 90/90/31 93/93/31
f 94/94/31 90/90/31 96/96/31
f 97/97/31 90/90/31 95/95/31
f 96/96/31 90/90/31 98/98/31
f 99/99/31 90/90/31 97/97/31
f 98/98/31 90/90/31 100/100/31
f 101/101/31 90/90/31 99/99/31
f 100/100/31 90/90/31 102/102/31
f 103/103/31 90/90/31 101/101/31
f 102/102/31 90/90/31 104/104/31
f 105/105/31 90/90/31 103/103/31
f 104/104/31 90/90/31 106/106/31
f 107/107/31 90/90/31 105/105/31
f 106/106/31 90/90/31 108/108/31
f 109/109/31 90/90/31 107/107/31
f 108/108/31 90/90/31 110/110/31
f 111/111/31 90/90/31 109/109/31
f 110/110/31 90/90/31 112/112/31
f 113/113/31 90/90/31 111/111/31
f 112/112/31 90/90/31 113/113/31
f 116/114/32 115/115/33 114/116/34
f 115/115/33 117/117/35 114/116/34
f 115/115/33 118/118/36 117/117/35
f 114/116/34 117/117/37 119/119/38
f 120/120/39 115/115/33 116/114/32
f 120/120/40 118/118/36 115/115/33
f 121/121/41 120/120/39 116/114/32
f 117/117/37 122/122/42 119/119/38
f 117/117/43 118/118/36 122/122/44
f 119/119/45 122/122/46 123/123/47
f 124/124/48 120/120/49 121/121/41
f 124/124/48 118/118/36 120/120/40
f 125/125/50 124/124/48 121/121/41
f 122/122/46 126/126/51 123/123/47
f 122/122/44 118/118/36 126/126/52
f 123/123/47 126/126/51 127/127/53
f 128/128/54 124/124/55 125/125/56
f 128/128/57 118/118/36 124/124/48
f 129/129/58 128/128/59 125/125/56
f 126/126/52 130/130/60 127/127/53
f 126/126/61 118/118/36 130/130/62
f 131/131/63 118/118/36 128/128/54
f 131/131/64 128/128/59 129/129/58
f 130/130/62 118/118/36 132/132/65
f 127/127/66 130/130/62 133/133/67
f 130/130/62 132/132/68 133/133/67
f 134/134/69 131/131/64 129/129/58
f 133/133/67 132/132/70 135/135/71
f 136/136/72 131/131/63 134/134/73
f 136/136/74 118/118/36 131/131/75
f 137/137/76 136/136/72 134/134/73
f 132/132/70 138/138/77 135/135/71
f 132/132/65 118/118/36 138/138/77
f 135/135/71 138/138/77 139/139/78
f 140/140/79 136/136/80 137/137/76
f 140/140/79 118/118/36 136/136/80
f 141/141/81 140/140/79 137/137/76
f 138/138/77 142/142/82 139/139/78
f 138/138/77 118/118/36 142/142/82
f 139/139/78 142/142/83 143/143/84
f 144/144/85 140/140/79 141/141/81
f 144/144/86 118/118/36 140/140/79
f 145/145/87 144/144/85 141/141/81
f 142/142/83 146/146/88 143/143/84
f 142/142/89 118/118/36 146/146/90
f 147/147/91 118/118/36 144/144/86
f 147/147/91 144/144/92 145/145/87
f 146/146/88 118/118/36 148/148/93
f 143/143/94 146/146/95 149/149/96
f 146/146/95 148/148/97 149/149/96
f 150/150/98 147/147/91 145/145/87
f 149/149/96 148/148/97 151/151/99
f 152/152/100 147/147/101 150/150/102
f 152/152/103 118/118/36 147/147/91
f 153/153/104 152/152/105 150/150/102
f 148/148/93 154/154/106 151/151/99
f 148/148/107 118/118/36 154/154/108
f 151/151/109 154/154/108 155/155/110
f 156/156/111 152/152/105 153/153/104
f 156/156/112 118/118/36 152/152/100
f 157/157/113 156/156/111 153/153/104
f 154/154/108 158/158/114 155/155/110
f 154/154/108 118/118/36 158/158/115
f 155/155/110 158/158/116 159/159/117
f 160/160/118 156/156/112 157/157/119
f 160/160/120 118/118/36 156/156/121
f 161/161/122 160/160/118 157/157/119
f 159/159/117 162/162/123 161/161/122
f 158/158/116 162/162/123 159/159/117
f 158/158/115 118/118/36 162/162/123
f 162/162/123 160/160/124 161/161/122
f 162/162/123 118/118/36 160/160/124
