#
# OBJECT NAME
#
o model_4127
mtllib 4127.mtl

#
# VERTEX BUFFER 000
#
v 1.48677 0.27942 0
v 1.48677 0.584636 0
v 1.48677 0.584636 -0.32364
v -0.32364 0.584636 1.48677
v 0 0.584636 1.48677
v 0 0.27942 1.48677
v 0 0.584636 1.48677
v 0.32364 0.584636 1.48677
v -1.48677 0.584636 -0.32364
v -1.48677 0.584636 0
v -1.48677 0.27942 0
v -1.48677 0.584636 0
v -1.48677 0.584636 0.32364
v 0.32364 0.584636 -1.48677
v 0 0.584636 -1.48677
v 0 0.27942 -1.48677
v 0 0.584636 -1.48677
v -0.32364 0.584636 -1.48677
v 1.48677 0.584636 0.32364
v 1.48677 0.584636 0
v 1.44221 0.73 1.44221
v 1.48677 0.584636 1.48677
v 1.44221 0.73 0.55125
v 1.48677 0.584636 0.32364
v 0.996119 0.73 0.997255
v 1.44221 0.73 1.44221
v 1.44221 0.73 0.55125
v 1.48677 0.27942 0
v 1.48677 0.584636 0
v 1.48677 0.584636 0.32364
v 1.44221 0.73 0
v 0 0.73 0
v 1.44221 0.73 0.55125
v 0.996119 0.73 0.997255
v 1.44221 0.73 0.55125
v 1.44221 0.73 0
v 0.32364 0.584636 1.48677
v 1.48677 0.584636 1.48677
v 0.55125 0.73 1.44221
v 1.44221 0.73 1.44221
v 0.55125 0.73 1.44221
v 0.55125 0.73 1.44221
v 0.32364 0.584636 1.48677
v 0 0.584636 1.48677
v 0 0.27942 1.48677
v 0 0.73 1.44221
v 0.55125 0.73 1.44221
v 0 0.73 1.44221
v -1.27685 0 1.0059
v -1.28929 0.0824878 0.993463
v -1.00566 0 1.0059
v -0.993216 0.0824878 0.993463
v -1.28929 0.0824878 0.993463
v -1.28929 0.0824878 1.28953
v -0.993216 0.0824878 0.993463
v -0.993216 0.0824878 1.28953
v -1.28929 0.0824878 1.28953
v -1.27685 0 1.27709
v -0.993216 0.0824878 1.28953
v -1.00566 0 1.27709
v -1.27685 0 1.27709
v -1.27685 0 1.0059
v -1.00566 0 1.27709
v -1.00566 0 1.0059
v -1.00566 0 1.0059
v -0.993216 0.0824878 0.993463
v -1.00566 0 1.27709
v -0.993216 0.0824878 1.28953
v -1.27685 0 1.27709
v -1.28929 0.0824878 1.28953
v -1.27685 0 1.0059
v -1.28929 0.0824878 0.993463
v -1.14125 0.370312 0.955287
v -0.95504 0.370312 1.1415
v -1.14125 0.0824881 1.02698
v -1.02673 0.0824881 1.1415
v -1.14125 0.370312 1.32771
v -1.32746 0.370312 1.1415
v -1.14125 0.0824881 1.25602
v -1.25577 0.0824881 1.1415
v -1.34419 0.370311 0.93856
v -1.39924 0.438283 0.883505
v -0.938313 0.370311 0.93856
v -0.883258 0.438283 0.883505
v -1.39924 0.438283 1.39949
v -1.34419 0.370311 1.34444
v -0.883258 0.438283 1.39949
v -0.938313 0.370311 1.34444
v -1.34419 0.370311 1.34444
v -1.34419 0.370311 0.93856
v -0.938313 0.370311 1.34444
v -0.938313 0.370311 0.93856
v -0.938313 0.370311 0.93856
v -0.883258 0.438283 0.883505
v -0.938313 0.370311 1.34444
v -0.883258 0.438283 1.39949
v -1.34419 0.370311 1.34444
v -1.39924 0.438283 1.39949
v -1.34419 0.370311 0.93856
v -1.39924 0.438283 0.883505
v -1.39924 0.438283 1.39949
v -1.41402 0.586509 1.41426
v -1.39924 0.438283 0.883505
v -1.41402 0.586509 0.868732
v -1.41402 0.586509 1.41426
v -1.39924 0.438283 1.39949
v -0.868485 0.586509 1.41426
v -0.883258 0.438283 1.39949
v -0.883258 0.438283 0.883505
v -0.868485 0.586509 0.868732
v -0.883258 0.438283 1.39949
v -0.868485 0.586509 1.41426
v -1.39924 0.438283 0.883505
v -1.41402 0.586509 0.868732
v -0.883258 0.438283 0.883505
v -0.868485 0.586509 0.868732
v -1.27685 2.38419e-007 -1.0059
v -1.28929 0.0824881 -0.993462
v -1.27685 2.38419e-007 -1.27709
v -1.28929 0.0824881 -1.28953
v -1.28929 0.0824881 -0.993462
v -0.993216 0.0824881 -0.993462
v -1.28929 0.0824881 -1.28953
v -0.993216 0.0824881 -1.28953
v -0.993216 0.0824881 -0.993462
v -1.00566 2.38419e-007 -1.0059
v -0.993216 0.0824881 -1.28953
v -1.00566 2.38419e-007 -1.27709
v -1.00566 2.38419e-007 -1.0059
v -1.27685 2.38419e-007 -1.0059
v -1.00566 2.38419e-007 -1.27709
v -1.27685 2.38419e-007 -1.27709
v -1.27685 2.38419e-007 -1.27709
v -1.28929 0.0824881 -1.28953
v -1.00566 2.38419e-007 -1.27709
v -0.993216 0.0824881 -1.28953
v -1.00566 2.38419e-007 -1.0059
v -0.993216 0.0824881 -0.993462
v -1.27685 2.38419e-007 -1.0059
v -1.28929 0.0824881 -0.993462
v -1.32746 0.370312 -1.1415
v -1.14125 0.370312 -1.32771
v -1.25577 0.0824881 -1.1415
v -1.14125 0.0824881 -1.25602
v -0.95504 0.370312 -1.1415
v -1.14125 0.370312 -0.955286
v -1.02673 0.0824881 -1.1415
v -1.14125 0.0824881 -1.02698
v -1.34419 0.370312 -0.93856
v -1.39925 0.438283 -0.883505
v -1.34419 0.370312 -1.34444
v -1.39925 0.438283 -1.39949
v -0.883259 0.438283 -0.883505
v -0.938314 0.370312 -0.93856
v -0.883259 0.438283 -1.39949
v -0.938314 0.370312 -1.34444
v -0.938314 0.370312 -0.93856
v -1.34419 0.370312 -0.93856
v -0.938314 0.370312 -1.34444
v -1.34419 0.370312 -1.34444
v -1.34419 0.370312 -1.34444
v -1.39925 0.438283 -1.39949
v -0.938314 0.370312 -1.34444
v -0.883259 0.438283 -1.39949
v -0.938314 0.370312 -0.93856
v -0.883259 0.438283 -0.883505
v -1.34419 0.370312 -0.93856
v -1.39925 0.438283 -0.883505
v -0.883259 0.438283 -0.883505
v -0.868485 0.586509 -0.868732
v -1.39925 0.438283 -0.883505
v -1.41402 0.586509 -0.868732
v -0.868485 0.586509 -0.868732
v -0.883259 0.438283 -0.883505
v -0.868485 0.586509 -1.41426
v -0.883259 0.438283 -1.39949
v -1.39925 0.438283 -1.39949
v -1.41402 0.586509 -1.41426
v -0.883259 0.438283 -1.39949
v -0.868485 0.586509 -1.41426
v -1.39925 0.438283 -0.883505
v -1.41402 0.586509 -0.868732
v -1.39925 0.438283 -1.39949
v -1.41402 0.586509 -1.41426
v -0.66399 0.25692 -0.66399
v 0.66399 0.25692 -0.66399
v -0.66399 0.25692 0.66399
v 0.66399 0.25692 0.66399
v -1.48677 0.584636 -1.48677
v 1.48677 0.584636 -1.48677
v -1.25973 0.584636 -1.25973
v 1.25973 0.584636 -1.25973
v 1.48677 0.584636 -1.48677
v 1.48677 0.584636 1.48677
v 1.25973 0.584636 -1.25973
v 1.25973 0.584636 1.25973
v 1.48677 0.584636 1.48677
v -1.48677 0.584636 1.48677
v 1.25973 0.584636 1.25973
v -1.25973 0.584636 1.25973
v -1.48677 0.584636 1.48677
v -1.48677 0.584636 -1.48677
v -1.25973 0.584636 1.25973
v -1.25973 0.584636 -1.25973
v -1.25973 0.584636 -1.25973
v 1.25973 0.584636 -1.25973
v -1.25973 0.475366 -1.25973
v 1.25973 0.475366 -1.25973
v 1.25973 0.584636 -1.25973
v 1.25973 0.584636 1.25973
v 1.25973 0.475366 -1.25973
v 1.25973 0.475366 1.25973
v 1.25973 0.584636 1.25973
v -1.25973 0.584636 1.25973
v 1.25973 0.475366 1.25973
v -1.25973 0.475366 1.25973
v -1.25973 0.584636 1.25973
v -1.25973 0.584636 -1.25973
v -1.25973 0.475366 1.25973
v -1.25973 0.475366 -1.25973
v -1.25973 0.475366 -1.25973
v 1.25973 0.475366 -1.25973
v -0.872746 0.475366 -0.872745
v 0.872746 0.475366 -0.872745
v 1.25973 0.475366 -1.25973
v 1.25973 0.475366 1.25973
v 0.872746 0.475366 -0.872745
v 0.872746 0.475366 0.872745
v 1.25973 0.475366 1.25973
v -1.25973 0.475366 1.25973
v 0.872746 0.475366 0.872745
v -0.872746 0.475366 0.872745
v -1.25973 0.475366 1.25973
v -1.25973 0.475366 -1.25973
v -0.872746 0.475366 0.872745
v -0.872746 0.475366 -0.872745
v 0.872746 0.475366 0.872745
v -0.872746 0.475366 0.872745
v 0.66399 0.25692 0.66399
v -0.66399 0.25692 0.66399
v 0.872746 0.475366 -0.872745
v 0.872746 0.475366 0.872745
v 0.66399 0.25692 -0.66399
v 0.66399 0.25692 0.66399
v -0.872746 0.475366 -0.872745
v 0.872746 0.475366 -0.872745
v -0.66399 0.25692 -0.66399
v 0.66399 0.25692 -0.66399
v -0.872746 0.475366 0.872745
v -0.872746 0.475366 -0.872745
v -0.66399 0.25692 0.66399
v -0.66399 0.25692 -0.66399
v 1.00565 2.38419e-007 1.2771
v 0.993216 0.0824881 1.28953
v 1.00565 2.38419e-007 1.0059
v 0.993216 0.0824881 0.993463
v 0.993216 0.0824881 1.28953
v 1.28929 0.0824881 1.28953
v 0.993216 0.0824881 0.993463
v 1.28929 0.0824881 0.993463
v 1.28929 0.0824881 1.28953
v 1.27685 2.38419e-007 1.2771
v 1.28929 0.0824881 0.993463
v 1.27685 2.38419e-007 1.0059
v 1.27685 2.38419e-007 1.2771
v 1.00565 2.38419e-007 1.2771
v 1.27685 2.38419e-007 1.0059
v 1.00565 2.38419e-007 1.0059
v 1.00565 2.38419e-007 1.0059
v 0.993216 0.0824881 0.993463
v 1.27685 2.38419e-007 1.0059
v 1.28929 0.0824881 0.993463
v 1.27685 2.38419e-007 1.2771
v 1.28929 0.0824881 1.28953
v 1.00565 2.38419e-007 1.2771
v 0.993216 0.0824881 1.28953
v 0.95504 0.370312 1.1415
v 1.14125 0.370312 0.955287
v 1.02673 0.0824881 1.1415
v 1.14125 0.0824881 1.02698
v 1.32746 0.370312 1.1415
v 1.14125 0.370312 1.32771
v 1.25577 0.0824881 1.1415
v 1.14125 0.0824881 1.25602
v 0.938313 0.370312 1.34444
v 0.883258 0.438283 1.39949
v 0.938313 0.370312 0.938561
v 0.883258 0.438283 0.883505
v 1.39924 0.438283 1.39949
v 1.34419 0.370312 1.34444
v 1.39924 0.438283 0.883505
v 1.34419 0.370312 0.938561
v 1.34419 0.370312 1.34444
v 0.938313 0.370312 1.34444
v 1.34419 0.370312 0.938561
v 0.938313 0.370312 0.938561
v 0.938313 0.370312 0.938561
v 0.883258 0.438283 0.883505
v 1.34419 0.370312 0.938561
v 1.39924 0.438283 0.883505
v 1.34419 0.370312 1.34444
v 1.39924 0.438283 1.39949
v 0.938313 0.370312 1.34444
v 0.883258 0.438283 1.39949
v 1.39924 0.438283 1.39949
v 1.41402 0.586509 1.41427
v 0.883258 0.438283 1.39949
v 0.868485 0.586509 1.41427
v 1.41402 0.586509 1.41427
v 1.39924 0.438283 1.39949
v 1.41402 0.586509 0.868732
v 1.39924 0.438283 0.883505
v 0.883258 0.438283 0.883505
v 0.868485 0.586509 0.868732
v 1.39924 0.438283 0.883505
v 1.41402 0.586509 0.868732
v 0.883258 0.438283 1.39949
v 0.868485 0.586509 1.41427
v 0.883258 0.438283 0.883505
v 0.868485 0.586509 0.868732
v 1.00565 2.38419e-007 -1.27709
v 0.993216 0.0824881 -1.28953
v 1.27685 2.38419e-007 -1.27709
v 1.28929 0.0824881 -1.28953
v 0.993216 0.0824881 -1.28953
v 0.993216 0.0824881 -0.993462
v 1.28929 0.0824881 -1.28953
v 1.28929 0.0824881 -0.993462
v 0.993216 0.0824881 -0.993462
v 1.00566 2.38419e-007 -1.0059
v 1.28929 0.0824881 -0.993462
v 1.27685 2.38419e-007 -1.0059
v 1.00566 2.38419e-007 -1.0059
v 1.00565 2.38419e-007 -1.27709
v 1.27685 2.38419e-007 -1.0059
v 1.27685 2.38419e-007 -1.27709
v 1.27685 2.38419e-007 -1.27709
v 1.28929 0.0824881 -1.28953
v 1.27685 2.38419e-007 -1.0059
v 1.28929 0.0824881 -0.993462
v 1.00566 2.38419e-007 -1.0059
v 0.993216 0.0824881 -0.993462
v 1.00565 2.38419e-007 -1.27709
v 0.993216 0.0824881 -1.28953
v 1.14125 0.370312 -1.32771
v 1.32746 0.370312 -1.1415
v 1.14125 0.0824881 -1.25602
v 1.25577 0.0824881 -1.1415
v 1.14125 0.370312 -0.955286
v 0.95504 0.370312 -1.1415
v 1.14125 0.0824881 -1.02698
v 1.02673 0.0824881 -1.1415
v 0.938313 0.370312 -1.34444
v 0.883258 0.438283 -1.39949
v 1.34419 0.370312 -1.34444
v 0.883258 0.438283 -1.39949
v 1.39925 0.438283 -1.39949
v 0.883258 0.438283 -0.883505
v 0.938313 0.370312 -0.93856
v 1.39925 0.438283 -0.883505
v 1.34419 0.370312 -0.93856
v 0.938313 0.370312 -0.93856
v 0.938313 0.370312 -1.34444
v 1.34419 0.370312 -0.93856
v 1.34419 0.370312 -1.34444
v 1.34419 0.370312 -1.34444
v 1.39925 0.438283 -1.39949
v 1.34419 0.370312 -0.93856
v 1.39925 0.438283 -0.883505
v 0.938313 0.370312 -0.93856
v 0.883258 0.438283 -0.883505
v 0.938313 0.370312 -1.34444
v 0.883258 0.438283 -1.39949
v 0.883258 0.438283 -0.883505
v 0.868485 0.586509 -0.868732
v 0.883258 0.438283 -1.39949
v 0.868485 0.586509 -1.41426
v 0.868485 0.586509 -0.868732
v 0.883258 0.438283 -0.883505
v 1.41402 0.586509 -0.868732
v 1.39925 0.438283 -0.883505
v 1.39925 0.438283 -1.39949
v 1.41402 0.586509 -1.41426
v 1.39925 0.438283 -0.883505
v 1.41402 0.586509 -0.868732
v 0.883258 0.438283 -1.39949
v 0.868485 0.586509 -1.41426
v 1.39925 0.438283 -1.39949
v 1.41402 0.586509 -1.41426
v 1.44221 0.73 -1.44221
v 1.48677 0.584636 -1.48677
v 0.55125 0.73 -1.44221
v 0.32364 0.584636 -1.48677
v 0.997255 0.73 -0.996119
v 1.44221 0.73 -1.44221
v 0.55125 0.73 -1.44221
v 1.48677 0.584636 -0.32364
v 1.48677 0.584636 -1.48677
v 1.44221 0.73 -0.55125
v 1.44221 0.73 -1.44221
v 1.44221 0.73 -0.55125
v -1.44221 0.73 1.44221
v -1.48677 0.584636 1.48677
v -0.55125 0.73 1.44221
v -0.32364 0.584636 1.48677
v -0.997255 0.73 0.996119
v -1.44221 0.73 1.44221
v -0.55125 0.73 1.44221
v -1.48677 0.584636 0.32364
v -1.48677 0.584636 1.48677
v -1.44221 0.73 0.55125
v -1.44221 0.73 1.44221
v -1.44221 0.73 0.55125
v -1.44221 0.73 -1.44221
v -1.48677 0.584636 -1.48677
v -1.44221 0.73 -0.55125
v -1.48677 0.584636 -0.32364
v -0.996119 0.73 -0.997255
v -1.44221 0.73 -1.44221
v -1.44221 0.73 -0.55125
v -0.32364 0.584636 -1.48677
v -1.48677 0.584636 -1.48677
v -0.55125 0.73 -1.44221
v -1.44221 0.73 -1.44221
v -0.55125 0.73 -1.44221
v 0 0.584636 1.48677
v -0.32364 0.584636 1.48677
v 0 0.73 1.44221
v 0 0.73 0
v -0.55125 0.73 1.44221
v -0.997255 0.73 0.996119
v -0.55125 0.73 1.44221
v 0 0.73 1.44221
v -1.44221 0.73 0.55125
v -1.48677 0.584636 0.32364
v -1.48677 0.584636 0
v -1.48677 0.27942 0
v -1.44221 0.73 0
v -1.44221 0.73 0.55125
v -1.44221 0.73 0
v -1.48677 0.584636 0
v -1.48677 0.584636 -0.32364
v -1.44221 0.73 0
v 0 0.73 0
v -1.44221 0.73 -0.55125
v -0.996119 0.73 -0.997255
v -1.44221 0.73 -0.55125
v -1.44221 0.73 0
v -0.55125 0.73 -1.44221
v -0.32364 0.584636 -1.48677
v 0 0.584636 -1.48677
v 0 0.27942 -1.48677
v 0 0.73 -1.44221
v -0.55125 0.73 -1.44221
v 0 0.73 -1.44221
v 0 0.584636 -1.48677
v 0.32364 0.584636 -1.48677
v 0 0.73 -1.44221
v 0 0.73 0
v 0.55125 0.73 -1.44221
v 0.997255 0.73 -0.996119
v 0.55125 0.73 -1.44221
v 0 0.73 -1.44221
v 1.44221 0.73 -0.55125
v 1.48677 0.584636 -0.32364
v 1.48677 0.584636 0
v 1.44221 0.73 0
v 1.44221 0.73 -0.55125
v 1.44221 0.73 0
v 1.32746 0.370312 -1.1415
v 1.25577 0.0824881 -1.1415
v 0.95504 0.370312 -1.1415
v 1.02673 0.0824881 -1.1415
v 1.14125 0.370312 0.955287
v 1.14125 0.0824881 1.02698
v 1.14125 0.370312 1.32771
v 1.14125 0.0824881 1.25602
v -1.32746 0.370312 1.1415
v -1.25577 0.0824881 1.1415
v -0.95504 0.370312 1.1415
v -1.02673 0.0824881 1.1415
v -1.14125 0.370312 -1.32771
v -1.14125 0.0824881 -1.25602
v -1.14125 0.370312 -0.955286
v -1.14125 0.0824881 -1.02698

vn -1 0 0
vn -1 0 0
vn -1 0 0
vn 0 0 -1
vn 0 0 -1
vn 0 0 -1
vn 0 0 -1
vn 0 0 -1
vn 1 0 0
vn 1 0 0
vn 1 0 0
vn 1 0 0
vn 1 0 0
vn 0 0 1
vn 0 0 1
vn 0 0 1
vn 0 0 1
vn 0 0 1
vn -1 0 0
vn -1 0 0
vn 0.956055 0.292969 0
vn 0.956055 0.292969 0
vn 0.956055 0.292969 0
vn 0.956055 0.292969 0
vn 0 1 0
vn 0 1 0
vn 0 1 0
vn 1 0 0
vn 0.985352 0.169922 0
vn 0.970215 0.241821 0
vn 0 1 0
vn 0 1 0
vn 0 1 0
vn 0 1 0
vn 0.956055 0.292969 0
vn 0.956055 0.292969 0
vn 0 0.292969 0.956055
vn 0 0.292969 0.956055
vn 0 0.292969 0.956055
vn 0 0.292969 0.956055
vn 0 1 -2.98023e-007
vn 0 1 -2.98023e-007
vn 0 0.241821 0.970215
vn 0 0.169922 0.985352
vn 0 0 1
vn 0 1 0
vn 0 0.292969 0.956055
vn 0 0.292969 0.956055
vn 0 -0.149048 -0.98877
vn 0 -0.149048 -0.98877
vn 0 -0.149048 -0.98877
vn 0 -0.149048 -0.98877
vn 0 1 0
vn 0 1 0
vn 0 1 0
vn 0 1 0
vn 0 -0.149048 0.98877
vn 0 -0.149048 0.98877
vn 0 -0.149048 0.98877
vn 0 -0.149048 0.98877
vn 0 -1 0
vn 0 -1 0
vn 0 -1 0
vn 0 -1 0
vn 0.98877 -0.149048 0
vn 0.98877 -0.149048 0
vn 0.98877 -0.149048 0
vn 0.98877 -0.149048 0
vn -0.98877 -0.149048 0
vn -0.98877 -0.149048 0
vn -0.98877 -0.149048 0
vn -0.98877 -0.149048 0
vn 1.19209e-007 -0.241577 -0.970215
vn 0.970215 -0.241577 0
vn 0 -0.241577 -0.970215
vn 0.970215 -0.241577 0
vn 1.19209e-007 -0.241577 0.970215
vn -0.970215 -0.241577 0
vn 0 -0.241577 0.970215
vn -0.970215 -0.241577 0
vn 0 -0.629395 -0.776855
vn 0 -0.629395 -0.776855
vn 0 -0.629395 -0.776855
vn 0 -0.629395 -0.776855
vn 0 -0.629395 0.776855
vn 0 -0.629395 0.776855
vn 0 -0.629395 0.776855
vn 0 -0.629395 0.776855
vn 0 -1 0
vn 0 -1 0
vn 0 -1 0
vn 0 -1 0
vn 0.776855 -0.629395 0
vn 0.776855 -0.629395 0
vn 0.776855 -0.629395 0
vn 0.776855 -0.629395 0
vn -0.776855 -0.629395 0
vn -0.776855 -0.629395 0
vn -0.776855 -0.629395 0
vn -0.776855 -0.629395 0
vn -0.994629 -0.0991211 0
vn -0.994629 -0.0991211 0
vn -0.994629 -0.0991211 0
vn -0.994629 -0.0991211 0
vn 0 -0.0991211 0.994629
vn 0 -0.0991211 0.994629
vn 0 -0.0991211 0.994629
vn 0 -0.0991211 0.994629
vn 0.994629 -0.0991211 0
vn 0.994629 -0.0991211 0
vn 0.994629 -0.0991211 0
vn 0.994629 -0.0991211 0
vn 0 -0.0991211 -0.994629
vn 0 -0.0991211 -0.994629
vn 0 -0.0991211 -0.994629
vn 0 -0.0991211 -0.994629
vn -0.98877 -0.149048 0
vn -0.98877 -0.149048 0
vn -0.98877 -0.149048 0
vn -0.98877 -0.149048 0
vn 0 1 0
vn 0 1 0
vn 0 1 0
vn 0 1 0
vn 0.98877 -0.149048 0
vn 0.98877 -0.149048 0
vn 0.98877 -0.149048 0
vn 0.98877 -0.149048 0
vn 0 -1 0
vn 0 -1 0
vn 0 -1 0
vn 0 -1 0
vn 0 -0.149048 -0.98877
vn 0 -0.149048 -0.98877
vn 0 -0.149048 -0.98877
vn 0 -0.149048 -0.98877
vn 0 -0.149048 0.98877
vn 0 -0.149048 0.98877
vn 0 -0.149048 0.98877
vn 0 -0.149048 0.98877
vn -0.970215 -0.241577 0
vn 1.19209e-007 -0.241577 -0.970215
vn -0.970215 -0.241577 0
vn 0 -0.241577 -0.970215
vn 0.970215 -0.241577 0
vn 1.19209e-007 -0.241577 0.970215
vn 0.970215 -0.241577 0
vn 0 -0.241577 0.970215
vn -0.776855 -0.629395 0
vn -0.776855 -0.629395 0
vn -0.776855 -0.629395 0
vn -0.776855 -0.629395 0
vn 0.776855 -0.629395 0
vn 0.776855 -0.629395 0
vn 0.776855 -0.629395 0
vn 0.776855 -0.629395 0
vn 0 -1 0
vn 0 -1 0
vn 0 -1 0
vn 0 -1 0
vn 0 -0.629395 -0.776855
vn 0 -0.629395 -0.776855
vn 0 -0.629395 -0.776855
vn 0 -0.629395 -0.776855
vn 0 -0.629395 0.776855
vn 0 -0.629395 0.776855
vn 0 -0.629395 0.776855
vn 0 -0.629395 0.776855
vn 0 -0.0991211 0.994629
vn 0 -0.0991211 0.994629
vn 0 -0.0991211 0.994629
vn 0 -0.0991211 0.994629
vn 0.994629 -0.0991211 0
vn 0.994629 -0.0991211 0
vn 0.994629 -0.0991211 0
vn 0.994629 -0.0991211 0
vn 0 -0.0991211 -0.994629
vn 0 -0.0991211 -0.994629
vn 0 -0.0991211 -0.994629
vn 0 -0.0991211 -0.994629
vn -0.994629 -0.0991211 0
vn -0.994629 -0.0991211 0
vn -0.994629 -0.0991211 0
vn -0.994629 -0.0991211 0
vn 0 -1 0
vn 0 -1 0
vn 0 -1 0
vn 0 -1 0
vn 0 -1 0
vn 0 -1 0
vn 0 -1 0
vn 0 -1 0
vn 0 -1 0
vn 0 -1 0
vn 0 -1 0
vn 0 -1 0
vn 0 -1 0
vn 0 -1 0
vn 0 -1 0
vn 0 -1 0
vn 0 -1 0
vn 0 -1 0
vn 0 -1 0
vn 0 -1 0
vn 0 0 -1
vn 0 0 -1
vn 0 0 -1
vn 0 0 -1
vn 1 0 0
vn 1 0 0
vn 1 0 0
vn 1 0 0
vn 0 0 1
vn 0 0 1
vn 0 0 1
vn 0 0 1
vn -1 0 0
vn -1 0 0
vn -1 0 0
vn -1 0 0
vn 0 -1 0
vn 0 -1 0
vn 0 -1 0
vn 0 -1 0
vn 0 -1 0
vn 0 -1 0
vn 0 -1 0
vn 0 -1 0
vn 0 -1 0
vn 0 -1 0
vn 0 -1 0
vn 0 -1 0
vn 0 -1 0
vn 0 -1 0
vn 0 -1 0
vn 0 -1 0
vn 0 -0.69043 0.722656
vn 0 -0.69043 0.722656
vn 0 -0.69043 0.722656
vn 0 -0.69043 0.722656
vn 0.722656 -0.69043 0
vn 0.722656 -0.69043 0
vn 0.722656 -0.69043 0
vn 0.722656 -0.69043 0
vn 0 -0.69043 -0.722656
vn 0 -0.69043 -0.722656
vn 0 -0.69043 -0.722656
vn 0 -0.69043 -0.722656
vn -0.722656 -0.69043 0
vn -0.722656 -0.69043 0
vn -0.722656 -0.69043 0
vn -0.722656 -0.69043 0
vn -0.98877 -0.149048 0
vn -0.98877 -0.149048 0
vn -0.98877 -0.149048 0
vn -0.98877 -0.149048 0
vn 0 1 0
vn 0 1 0
vn 0 1 0
vn 0 1 0
vn 0.98877 -0.149048 0
vn 0.98877 -0.149048 0
vn 0.98877 -0.149048 0
vn 0.98877 -0.149048 0
vn 0 -1 0
vn 0 -1 0
vn 0 -1 0
vn 0 -1 0
vn 0 -0.149048 -0.98877
vn 0 -0.149048 -0.98877
vn 0 -0.149048 -0.98877
vn 0 -0.149048 -0.98877
vn 0 -0.149048 0.98877
vn 0 -0.149048 0.98877
vn 0 -0.149048 0.98877
vn 0 -0.149048 0.98877
vn -0.970215 -0.241577 0
vn 0 -0.241577 -0.970215
vn -0.970215 -0.241577 0
vn 0 -0.241577 -0.970215
vn 0.970215 -0.241577 0
vn 0 -0.241577 0.970215
vn 0.970215 -0.241577 0
vn -1.19209e-007 -0.241577 0.970215
vn -0.776855 -0.629395 0
vn -0.776855 -0.629395 0
vn -0.776855 -0.629395 0
vn -0.776855 -0.629395 0
vn 0.776855 -0.629395 0
vn 0.776855 -0.629395 0
vn 0.776855 -0.629395 0
vn 0.776855 -0.629395 0
vn 0 -1 0
vn 0 -1 0
vn 0 -1 0
vn 0 -1 0
vn 0 -0.629395 -0.776855
vn 0 -0.629395 -0.776855
vn 0 -0.629395 -0.776855
vn 0 -0.629395 -0.776855
vn 0 -0.629395 0.776855
vn 0 -0.629395 0.776855
vn 0 -0.629395 0.776855
vn 0 -0.629395 0.776855
vn 0 -0.0991211 0.994629
vn 0 -0.0991211 0.994629
vn 0 -0.0991211 0.994629
vn 0 -0.0991211 0.994629
vn 0.994629 -0.0991211 0
vn 0.994629 -0.0991211 0
vn 0.994629 -0.0991211 0
vn 0.994629 -0.0991211 0
vn 0 -0.0991211 -0.994629
vn 0 -0.0991211 -0.994629
vn 0 -0.0991211 -0.994629
vn 0 -0.0991211 -0.994629
vn -0.994629 -0.0991211 0
vn -0.994629 -0.0991211 0
vn -0.994629 -0.0991211 0
vn -0.994629 -0.0991211 0
vn 0 -0.149048 -0.98877
vn 0 -0.149048 -0.98877
vn 0 -0.149048 -0.98877
vn 0 -0.149048 -0.98877
vn 0 1 0
vn 0 1 0
vn 0 1 0
vn 0 1 0
vn 0 -0.149048 0.98877
vn 0 -0.149048 0.98877
vn 0 -0.149048 0.98877
vn 0 -0.149048 0.98877
vn 0 -1 0
vn 0 -1 0
vn 0 -1 0
vn 0 -1 0
vn 0.98877 -0.149048 0
vn 0.98877 -0.149048 0
vn 0.98877 -0.149048 0
vn 0.98877 -0.149048 0
vn -0.98877 -0.149048 3.57628e-007
vn -0.98877 -0.149048 3.57628e-007
vn -0.98877 -0.149048 3.57628e-007
vn -0.98877 -0.149048 3.57628e-007
vn 0 -0.241577 -0.970215
vn 0.970215 -0.241577 0
vn 0 -0.241577 -0.970215
vn 0.970215 -0.241577 0
vn 0 -0.241577 0.970215
vn -0.970215 -0.241577 0
vn -1.19209e-007 -0.241577 0.970215
vn -0.970215 -0.241577 0
vn 0 -0.629395 -0.776855
vn 0 -0.629395 -0.776855
vn 0 -0.629395 -0.776855
vn 0 -0.629395 -0.776855
vn 0 -0.629395 -0.776855
vn 0 -0.629395 0.776855
vn 0 -0.629395 0.776855
vn 0 -0.629395 0.776855
vn 0 -0.629395 0.776855
vn 0 -1 0
vn 0 -1 0
vn 0 -1 0
vn 0 -1 0
vn 0.776855 -0.629395 0
vn 0.776855 -0.629395 0
vn 0.776855 -0.629395 0
vn 0.776855 -0.629395 0
vn -0.776855 -0.629395 0
vn -0.776855 -0.629395 0
vn -0.776855 -0.629395 0
vn -0.776855 -0.629395 0
vn -0.994629 -0.0991211 0
vn -0.994629 -0.0991211 0
vn -0.994629 -0.0991211 0
vn -0.994629 -0.0991211 0
vn 0 -0.0991211 0.994629
vn 0 -0.0991211 0.994629
vn 0 -0.0991211 0.994629
vn 0 -0.0991211 0.994629
vn 0.994629 -0.0991211 0
vn 0.994629 -0.0991211 0
vn 0.994629 -0.0991211 0
vn 0.994629 -0.0991211 0
vn 0 -0.0991211 -0.994629
vn 0 -0.0991211 -0.994629
vn 0 -0.0991211 -0.994629
vn 0 -0.0991211 -0.994629
vn 0 0.292969 -0.956055
vn 0 0.292969 -0.956055
vn 0 0.292969 -0.956055
vn 0 0.292969 -0.956055
vn 0 1 0
vn 0 1 0
vn 0 1 0
vn 0.956055 0.292969 0
vn 0.956055 0.292969 0
vn 0.956055 0.292969 0
vn 0.956055 0.292969 0
vn 0 1 0
vn 0 0.292969 0.956055
vn 0 0.292969 0.956055
vn 0 0.292969 0.956055
vn 0 0.292969 0.956055
vn 0 1 0
vn 0 1 0
vn 0 1 0
vn -0.956055 0.292969 0
vn -0.956055 0.292969 0
vn -0.956055 0.292969 0
vn -0.956055 0.292969 0
vn 0 1 0
vn -0.956055 0.292969 0
vn -0.956055 0.292969 0
vn -0.956055 0.292969 0
vn -0.956055 0.292969 0
vn 0 1 0
vn 0 1 0
vn 0 1 0
vn 0 0.292969 -0.956055
vn 0 0.292969 -0.956055
vn 0 0.292969 -0.956055
vn 0 0.292969 -0.956055
vn 0 1 2.98023e-007
vn 0 0.169922 0.985352
vn 0 0.241821 0.970215
vn 0 1 0
vn 0 1 0
vn 0 1 0
vn 0 1 0
vn 0 0.292969 0.956055
vn 0 0.292969 0.956055
vn 0 1 -1.19209e-007
vn -0.970215 0.241821 0
vn -0.985352 0.169922 0
vn -1 0 0
vn 0 1 0
vn -0.956055 0.292969 0
vn -0.956055 0.292969 0
vn -0.985352 0.169922 0
vn -0.970215 0.241821 0
vn 0 1 0
vn 0 1 0
vn 0 1 0
vn 0 1 0
vn -0.956055 0.292969 0
vn -0.956055 0.292969 0
vn 0 1 0
vn 0 0.241821 -0.970215
vn 0 0.169922 -0.985352
vn 0 0 -1
vn 0 1 0
vn 0 0.292969 -0.956055
vn 0 0.292969 -0.956055
vn 0 0.169922 -0.985352
vn 0 0.241821 -0.970215
vn 0 1 0
vn 0 1 0
vn 0 1 0
vn 0 1 0
vn 0 0.292969 -0.956055
vn 0 0.292969 -0.956055
vn 0 1 1.19209e-007
vn 0.970215 0.241821 0
vn 0.985352 0.169922 0
vn 0 1 0
vn 0.956055 0.292969 0
vn 0.956055 0.292969 0
vn 0.970215 -0.241577 0
vn 0.970215 -0.241577 0
vn -0.970215 -0.241577 0
vn -0.970215 -0.241577 0
vn 0 -0.241577 -0.970215
vn 0 -0.241577 -0.970215
vn 0 -0.241577 0.970215
vn -1.19209e-007 -0.241577 0.970215
vn -0.970215 -0.241577 0
vn -0.970215 -0.241577 0
vn 0.970215 -0.241577 0
vn 0.970215 -0.241577 0
vn 1.19209e-007 -0.241577 -0.970215
vn 0 -0.241577 -0.970215
vn 1.19209e-007 -0.241577 0.970215
vn 0 -0.241577 0.970215

vt 0.40091 0.00737041
vt 0.40091 0.102551
vt 0.349917 0.102551
vt 0.451903 0.102551
vt 0.40091 0.102551
vt 0.40091 0.00737041
vt 0.40091 0.102551
vt 0.349917 0.102551
vt 0.451903 0.102551
vt 0.40091 0.102551
vt 0.40091 0.00737041
vt 0.40091 0.102551
vt 0.349917 0.102551
vt 0.451903 0.102551
vt 0.40091 0.102551
vt 0.40091 0.00737041
vt 0.40091 0.102551
vt 0.349917 0.102551
vt 0.451903 0.102551
vt 0.40091 0.102551
vt 0.198706 0.0681365
vt 0.191493 0.0119889
vt 0.340806 0.0681365
vt 0.37696 0.0119889
vt 0.414167 0.82893
vt 0.495527 0.990155
vt 0.332366 0.990584
vt 0.40091 0.00737041
vt 0.40091 0.102551
vt 0.349917 0.102551
vt 0.390911 0.54112
vt 0.166322 0.541121
vt 0.390911 0.369334
vt 0.320673 0.230344
vt 0.314055 0.155958
vt 0.40091 0.155958
vt 0.00206481 0.011989
vt 0.18402 0.011989
vt 0.0374604 0.0681365
vt 0.176936 0.0681365
vt 0.495635 0.667442
vt 0.250626 0.091682
vt 0.451903 0.102551
vt 0.40091 0.102551
vt 0.40091 0.00737041
vt 0.166322 0.0916818
vt 0.487766 0.155958
vt 0.40091 0.155958
vt 0.32447 0.558869
vt 0.32447 0.583396
vt 0.279085 0.558869
vt 0.279085 0.583396
vt 0.444354 0.642276
vt 0.444354 0.553455
vt 0.489231 0.642276
vt 0.489231 0.553455
vt 0.279085 0.583396
vt 0.279085 0.558869
vt 0.32447 0.583396
vt 0.32447 0.558869
vt 0.489231 0.419913
vt 0.489231 0.508735
vt 0.444354 0.419913
vt 0.444354 0.508735
vt 0.383389 0.558376
vt 0.383389 0.583396
vt 0.338015 0.558376
vt 0.338015 0.583396
vt 0.383389 0.558376
vt 0.383389 0.583396
vt 0.338015 0.558376
vt 0.338015 0.583396
vt 0.0411898 0.274014
vt 0.00321825 0.274014
vt 0.0411898 0.176472
vt 0.00321825 0.176472
vt 0.0411898 0.274014
vt 0.00321825 0.274014
vt 0.0411898 0.176472
vt 0.00321825 0.176472
vt 0.326721 0.613128
vt 0.335903 0.638033
vt 0.269862 0.613128
vt 0.26068 0.638033
vt 0.26068 0.638001
vt 0.269966 0.613128
vt 0.335903 0.638001
vt 0.326617 0.613128
vt 0.486645 0.206064
vt 0.486645 0.327827
vt 0.425124 0.206064
vt 0.425124 0.327827
vt 0.414355 0.613128
vt 0.423586 0.637474
vt 0.357666 0.613128
vt 0.348382 0.637474
vt 0.414355 0.613128
vt 0.423586 0.637506
vt 0.357561 0.613128
vt 0.348382 0.637506
vt 0.423586 0.651723
vt 0.423586 0.693554
vt 0.348382 0.651723
vt 0.348382 0.693554
vt 0.26068 0.694103
vt 0.26068 0.651723
vt 0.335903 0.694103
vt 0.335903 0.651723
vt 0.423586 0.651723
vt 0.423586 0.693566
vt 0.348382 0.651723
vt 0.348382 0.693566
vt 0.335903 0.651723
vt 0.335903 0.694092
vt 0.26068 0.651723
vt 0.26068 0.694092
vt 0.32447 0.558869
vt 0.32447 0.583396
vt 0.279085 0.558869
vt 0.279085 0.583396
vt 0.444354 0.642276
vt 0.444354 0.553455
vt 0.489231 0.642276
vt 0.489231 0.553455
vt 0.279085 0.583396
vt 0.279085 0.558869
vt 0.32447 0.583396
vt 0.32447 0.558869
vt 0.489231 0.419913
vt 0.489231 0.508735
vt 0.444354 0.419913
vt 0.444354 0.508735
vt 0.383389 0.558376
vt 0.383389 0.583396
vt 0.338015 0.558376
vt 0.338015 0.583396
vt 0.383389 0.558376
vt 0.383389 0.583396
vt 0.338015 0.558376
vt 0.338015 0.583396
vt 0.0411898 0.274014
vt 0.00321825 0.274014
vt 0.0411898 0.176472
vt 0.00321825 0.176472
vt 0.0411898 0.274014
vt 0.00321825 0.274014
vt 0.0411898 0.176472
vt 0.00321825 0.176472
vt 0.326721 0.613128
vt 0.335903 0.638033
vt 0.269862 0.613128
vt 0.26068 0.638033
vt 0.26068 0.638001
vt 0.269966 0.613128
vt 0.335903 0.638001
vt 0.326617 0.613128
vt 0.486645 0.206064
vt 0.486645 0.327827
vt 0.425124 0.206064
vt 0.425124 0.327827
vt 0.414355 0.613128
vt 0.423586 0.637474
vt 0.357666 0.613128
vt 0.348382 0.637474
vt 0.414355 0.613128
vt 0.423586 0.637506
vt 0.357561 0.613128
vt 0.348382 0.637506
vt 0.423586 0.651723
vt 0.423586 0.693554
vt 0.348382 0.651723
vt 0.348382 0.693554
vt 0.26068 0.694103
vt 0.26068 0.651723
vt 0.335903 0.694103
vt 0.335903 0.651723
vt 0.423586 0.651723
vt 0.423586 0.693566
vt 0.348382 0.651723
vt 0.348382 0.693566
vt 0.335903 0.651723
vt 0.335903 0.694092
vt 0.26068 0.651723
vt 0.26068 0.694092
vt 0.157556 0.595045
vt 0.00481052 0.595045
vt 0.157556 0.292732
vt 0.00481052 0.292732
vt 0.00110279 0.781407
vt 0.41438 0.781407
vt 0.0325566 0.843656
vt 0.382927 0.843606
vt 0.00110279 0.781407
vt 0.41438 0.781407
vt 0.0325566 0.843656
vt 0.382933 0.843656
vt 0.00110279 0.781407
vt 0.41438 0.781407
vt 0.0325566 0.843656
vt 0.382933 0.843656
vt 0.00110279 0.781407
vt 0.41438 0.781407
vt 0.0325566 0.843656
vt 0.382933 0.843656
vt 0.353171 0.74998
vt 0.00281656 0.74998
vt 0.353171 0.719931
vt 0.00310676 0.719931
vt 0.353171 0.74998
vt 0.00281636 0.74998
vt 0.353171 0.719931
vt 0.00310676 0.719931
vt 0.353171 0.74998
vt 0.00281656 0.74998
vt 0.353171 0.719931
vt 0.00310676 0.719931
vt 0.353171 0.74998
vt 0.00281656 0.74998
vt 0.353171 0.719931
vt 0.00281663 0.719931
vt 0.00174193 0.868399
vt 0.376724 0.868399
vt 0.059562 0.982797
vt 0.319165 0.982863
vt 0.00174193 0.868399
vt 0.376724 0.868399
vt 0.059562 0.982932
vt 0.319165 0.982664
vt 0.00174193 0.868399
vt 0.376724 0.868399
vt 0.059562 0.982797
vt 0.319165 0.982863
vt 0.00174193 0.868399
vt 0.376724 0.868399
vt 0.059562 0.982797
vt 0.319165 0.982863
vt 0.245829 0.695227
vt 0.00356948 0.695227
vt 0.216922 0.614938
vt 0.0324768 0.614938
vt 0.245828 0.695227
vt 0.00356924 0.695227
vt 0.216922 0.614938
vt 0.0324769 0.614938
vt 0.245829 0.695227
vt 0.00356948 0.695227
vt 0.216922 0.614938
vt 0.0324768 0.614938
vt 0.245829 0.695227
vt 0.00356957 0.695227
vt 0.216922 0.614938
vt 0.0324766 0.614938
vt 0.32447 0.558869
vt 0.32447 0.583396
vt 0.279085 0.558869
vt 0.279085 0.583396
vt 0.444354 0.642276
vt 0.444354 0.553455
vt 0.489231 0.642276
vt 0.489231 0.553455
vt 0.279085 0.583396
vt 0.279085 0.558869
vt 0.32447 0.583396
vt 0.32447 0.558869
vt 0.489231 0.419913
vt 0.489231 0.508735
vt 0.444354 0.419913
vt 0.444354 0.508735
vt 0.383389 0.558376
vt 0.383389 0.583396
vt 0.338015 0.558376
vt 0.338015 0.583396
vt 0.383389 0.558376
vt 0.383389 0.583396
vt 0.338015 0.558376
vt 0.338015 0.583396
vt 0.0411898 0.274014
vt 0.00321825 0.274014
vt 0.0411898 0.176472
vt 0.00321825 0.176472
vt 0.0411898 0.274014
vt 0.00321825 0.274014
vt 0.0411898 0.176472
vt 0.00321825 0.176472
vt 0.326721 0.613128
vt 0.335903 0.638033
vt 0.269862 0.613128
vt 0.26068 0.638033
vt 0.26068 0.638001
vt 0.269966 0.613128
vt 0.335903 0.638001
vt 0.326617 0.613128
vt 0.486645 0.206064
vt 0.486645 0.327827
vt 0.425124 0.206064
vt 0.425124 0.327827
vt 0.414355 0.613128
vt 0.423586 0.637474
vt 0.357666 0.613128
vt 0.348382 0.637474
vt 0.414355 0.613128
vt 0.423586 0.637506
vt 0.357561 0.613128
vt 0.348382 0.637506
vt 0.423586 0.651723
vt 0.423586 0.693554
vt 0.348382 0.651723
vt 0.348382 0.693554
vt 0.26068 0.694103
vt 0.26068 0.651723
vt 0.335903 0.694103
vt 0.335903 0.651723
vt 0.423586 0.651723
vt 0.423586 0.693566
vt 0.348382 0.651723
vt 0.348382 0.693566
vt 0.335903 0.651723
vt 0.335903 0.694092
vt 0.26068 0.651723
vt 0.26068 0.694092
vt 0.32447 0.558869
vt 0.32447 0.583396
vt 0.279085 0.558869
vt 0.279085 0.583396
vt 0.444354 0.642276
vt 0.444354 0.553455
vt 0.489231 0.642276
vt 0.489231 0.553455
vt 0.279085 0.583396
vt 0.279085 0.558869
vt 0.32447 0.583396
vt 0.32447 0.558869
vt 0.489231 0.419913
vt 0.489231 0.508735
vt 0.444354 0.419913
vt 0.444354 0.508735
vt 0.383389 0.558376
vt 0.383389 0.583396
vt 0.338015 0.558376
vt 0.338015 0.583396
vt 0.383389 0.558376
vt 0.383389 0.583396
vt 0.338015 0.558376
vt 0.338015 0.583396
vt 0.0411898 0.274014
vt 0.00321825 0.274014
vt 0.0411898 0.176472
vt 0.00321825 0.176472
vt 0.0411898 0.274014
vt 0.00321825 0.274014
vt 0.0411898 0.176472
vt 0.00321825 0.176472
vt 0.326721 0.613128
vt 0.335903 0.638033
vt 0.269862 0.613128
vt 0.335903 0.638033
vt 0.26068 0.638033
vt 0.26068 0.638001
vt 0.269966 0.613128
vt 0.335903 0.638001
vt 0.326617 0.613128
vt 0.486645 0.206064
vt 0.486645 0.327827
vt 0.425124 0.206064
vt 0.425124 0.327827
vt 0.414355 0.613128
vt 0.423586 0.637474
vt 0.357666 0.613128
vt 0.348382 0.637474
vt 0.414355 0.613128
vt 0.423586 0.637506
vt 0.357561 0.613128
vt 0.348382 0.637506
vt 0.423586 0.651723
vt 0.423586 0.693554
vt 0.348382 0.651723
vt 0.348382 0.693554
vt 0.26068 0.694103
vt 0.26068 0.651723
vt 0.335903 0.694103
vt 0.335903 0.651723
vt 0.423586 0.651723
vt 0.423586 0.693566
vt 0.348382 0.651723
vt 0.348382 0.693566
vt 0.335903 0.651723
vt 0.335903 0.694092
vt 0.26068 0.651723
vt 0.26068 0.694092
vt 0.198706 0.0681365
vt 0.191493 0.0119889
vt 0.340806 0.0681365
vt 0.37696 0.0119889
vt 0.414167 0.82893
vt 0.495527 0.990155
vt 0.332366 0.990584
vt 0.00206481 0.011989
vt 0.18402 0.011989
vt 0.0374604 0.0681365
vt 0.176936 0.0681365
vt 0.495635 0.667442
vt 0.198706 0.0681365
vt 0.191493 0.0119889
vt 0.340806 0.0681365
vt 0.37696 0.0119889
vt 0.414167 0.82893
vt 0.495527 0.990155
vt 0.332366 0.990584
vt 0.00206481 0.011989
vt 0.18402 0.011989
vt 0.0374604 0.0681365
vt 0.176936 0.0681365
vt 0.495635 0.667442
vt 0.198706 0.0681365
vt 0.191493 0.0119889
vt 0.340806 0.0681365
vt 0.37696 0.0119889
vt 0.414167 0.82893
vt 0.495527 0.990155
vt 0.332366 0.990584
vt 0.00206481 0.011989
vt 0.18402 0.011989
vt 0.0374604 0.0681365
vt 0.176936 0.0681365
vt 0.495635 0.667442
vt 0.40091 0.102551
vt 0.349917 0.102551
vt 0.390911 0.54112
vt 0.166322 0.541121
vt 0.390911 0.369334
vt 0.320673 0.230344
vt 0.314055 0.155958
vt 0.40091 0.155958
vt 0.250626 0.091682
vt 0.451903 0.102551
vt 0.40091 0.102551
vt 0.40091 0.00737041
vt 0.166322 0.0916818
vt 0.487766 0.155958
vt 0.40091 0.155958
vt 0.40091 0.102551
vt 0.349917 0.102551
vt 0.390911 0.54112
vt 0.166322 0.541121
vt 0.390911 0.369334
vt 0.320673 0.230344
vt 0.314055 0.155958
vt 0.40091 0.155958
vt 0.250626 0.091682
vt 0.451903 0.102551
vt 0.40091 0.102551
vt 0.40091 0.00737041
vt 0.166322 0.0916818
vt 0.487766 0.155958
vt 0.40091 0.155958
vt 0.40091 0.102551
vt 0.349917 0.102551
vt 0.390911 0.54112
vt 0.166322 0.541121
vt 0.390911 0.369334
vt 0.320673 0.230344
vt 0.314055 0.155958
vt 0.40091 0.155958
vt 0.250626 0.091682
vt 0.451903 0.102551
vt 0.40091 0.102551
vt 0.166322 0.0916818
vt 0.487766 0.155958
vt 0.40091 0.155958
vt 0.0791614 0.274014
vt 0.0791614 0.176472
vt 0.0791614 0.274014
vt 0.0791614 0.176472
vt 0.0791614 0.274014
vt 0.0791614 0.176472
vt 0.0791614 0.274014
vt 0.0791614 0.176472
vt 0.0791614 0.274014
vt 0.0791614 0.176472
vt 0.0791614 0.274014
vt 0.0791614 0.176472
vt 0.0791614 0.274014
vt 0.0791614 0.176472
vt 0.0791614 0.274014
vt 0.0791614 0.176472


#
# MESH 000
#
g surface_000
usemtl surface_000
f 355/355/355 356/356/356 357/357/357
f 353/353/353 354/354/354 355/355/355
f 19/19/19 20/20/20 1/1/1
f 16/16/16 17/17/17 18/18/18
f 14/14/14 15/15/15 16/16/16
f 11/11/11 12/12/12 13/13/13
f 9/9/9 10/10/10 11/11/11
f 6/6/6 7/7/7 8/8/8
f 4/4/4 5/5/5 6/6/6
f 1/1/1 2/2/2 3/3/3
f 484/484/484 141/141/141 485/485/485
f 485/485/485 141/141/141 143/143/143
f 141/141/141 142/142/142 143/143/143
f 143/143/143 142/142/142 144/144/144
f 482/482/482 145/145/145 483/483/483
f 483/483/483 145/145/145 147/147/147
f 145/145/145 146/146/146 147/147/147
f 147/147/147 146/146/146 148/148/148
f 480/480/480 77/77/77 481/481/481
f 481/481/481 77/77/77 79/79/79
f 77/77/77 78/78/78 79/79/79
f 79/79/79 78/78/78 80/80/80
f 478/478/478 73/73/73 479/479/479
f 479/479/479 73/73/73 75/75/75
f 73/73/73 74/74/74 75/75/75
f 75/75/75 74/74/74 76/76/76
f 476/476/476 277/277/277 477/477/477
f 477/477/477 277/277/277 279/279/279
f 277/277/277 278/278/278 279/279/279
f 279/279/279 278/278/278 280/280/280
f 474/474/474 281/281/281 475/475/475
f 475/475/475 281/281/281 283/283/283
f 281/281/281 282/282/282 283/283/283
f 283/283/283 282/282/282 284/284/284
f 472/472/472 345/345/345 473/473/473
f 473/473/473 345/345/345 347/347/347
f 345/345/345 346/346/346 347/347/347
f 347/347/347 346/346/346 348/348/348
f 470/470/470 349/349/349 471/471/471
f 471/471/471 349/349/349 351/351/351
f 349/349/349 350/350/350 351/351/351
f 351/351/351 350/350/350 352/352/352
f 468/468/468 469/469/469 465/465/465
f 465/465/465 469/469/469 466/466/466
f 465/465/465 466/466/466 28/28/28
f 467/467/467 464/464/464 459/459/459
f 459/459/459 464/464/464 461/461/461
f 460/460/460 459/459/459 461/461/461
f 458/458/458 459/459/459 460/460/460
f 462/462/462 457/457/457 463/463/463
f 463/463/463 457/457/457 456/456/456
f 452/452/452 456/456/456 457/457/457
f 454/454/454 455/455/455 450/450/450
f 450/450/450 455/455/455 451/451/451
f 450/450/450 451/451/451 452/452/452
f 453/453/453 449/449/449 444/444/444
f 444/444/444 449/449/449 446/446/446
f 445/445/445 444/444/444 446/446/446
f 443/443/443 444/444/444 445/445/445
f 447/447/447 442/442/442 448/448/448
f 448/448/448 442/442/442 441/441/441
f 437/437/437 441/441/441 442/442/442
f 439/439/439 440/440/440 435/435/435
f 435/435/435 440/440/440 436/436/436
f 435/435/435 436/436/436 437/437/437
f 438/438/438 434/434/434 429/429/429
f 429/429/429 434/434/434 431/431/431
f 430/430/430 429/429/429 431/431/431
f 428/428/428 429/429/429 430/430/430
f 432/432/432 427/427/427 433/433/433
f 433/433/433 427/427/427 426/426/426
f 45/45/45 426/426/426 427/427/427
f 419/419/419 418/418/418 425/425/425
f 418/418/418 419/419/419 420/420/420
f 423/423/423 422/422/422 424/424/424
f 421/421/421 422/422/422 423/423/423
f 416/416/416 415/415/415 417/417/417
f 414/414/414 415/415/415 416/416/416
f 407/407/407 406/406/406 413/413/413
f 406/406/406 407/407/407 408/408/408
f 411/411/411 410/410/410 412/412/412
f 409/409/409 410/410/410 411/411/411
f 404/404/404 403/403/403 405/405/405
f 402/402/402 403/403/403 404/404/404
f 395/395/395 394/394/394 401/401/401
f 394/394/394 395/395/395 396/396/396
f 399/399/399 398/398/398 400/400/400
f 397/397/397 398/398/398 399/399/399
f 392/392/392 391/391/391 393/393/393
f 390/390/390 391/391/391 392/392/392
f 388/388/388 387/387/387 389/389/389
f 386/386/386 387/387/387 388/388/388
f 384/384/384 383/383/383 385/385/385
f 382/382/382 383/383/383 384/384/384
f 380/380/380 379/379/379 381/381/381
f 378/378/378 379/379/379 380/380/380
f 376/376/376 375/375/375 377/377/377
f 374/374/374 375/375/375 376/376/376
f 372/372/372 371/371/371 373/373/373
f 370/370/370 371/371/371 372/372/372
f 368/368/368 367/367/367 369/369/369
f 366/366/366 367/367/367 368/368/368
f 364/364/364 363/363/363 365/365/365
f 362/362/362 363/363/363 364/364/364
f 360/360/360 359/359/359 361/361/361
f 358/358/358 359/359/359 360/360/360
f 343/343/343 342/342/342 344/344/344
f 341/341/341 342/342/342 343/343/343
f 339/339/339 338/338/338 340/340/340
f 337/337/337 338/338/338 339/339/339
f 335/335/335 334/334/334 336/336/336
f 333/333/333 334/334/334 335/335/335
f 331/331/331 330/330/330 332/332/332
f 329/329/329 330/330/330 331/331/331
f 327/327/327 326/326/326 328/328/328
f 325/325/325 326/326/326 327/327/327
f 323/323/323 322/322/322 324/324/324
f 321/321/321 322/322/322 323/323/323
f 319/319/319 318/318/318 320/320/320
f 317/317/317 318/318/318 319/319/319
f 315/315/315 314/314/314 316/316/316
f 313/313/313 314/314/314 315/315/315
f 311/311/311 310/310/310 312/312/312
f 309/309/309 310/310/310 311/311/311
f 307/307/307 306/306/306 308/308/308
f 305/305/305 306/306/306 307/307/307
f 303/303/303 302/302/302 304/304/304
f 301/301/301 302/302/302 303/303/303
f 299/299/299 298/298/298 300/300/300
f 297/297/297 298/298/298 299/299/299
f 295/295/295 294/294/294 296/296/296
f 293/293/293 294/294/294 295/295/295
f 291/291/291 290/290/290 292/292/292
f 289/289/289 290/290/290 291/291/291
f 287/287/287 286/286/286 288/288/288
f 285/285/285 286/286/286 287/287/287
f 275/275/275 274/274/274 276/276/276
f 273/273/273 274/274/274 275/275/275
f 271/271/271 270/270/270 272/272/272
f 269/269/269 270/270/270 271/271/271
f 267/267/267 266/266/266 268/268/268
f 265/265/265 266/266/266 267/267/267
f 263/263/263 262/262/262 264/264/264
f 261/261/261 262/262/262 263/263/263
f 259/259/259 258/258/258 260/260/260
f 257/257/257 258/258/258 259/259/259
f 255/255/255 254/254/254 256/256/256
f 253/253/253 254/254/254 255/255/255
f 251/251/251 250/250/250 252/252/252
f 249/249/249 250/250/250 251/251/251
f 247/247/247 246/246/246 248/248/248
f 245/245/245 246/246/246 247/247/247
f 243/243/243 242/242/242 244/244/244
f 241/241/241 242/242/242 243/243/243
f 239/239/239 238/238/238 240/240/240
f 237/237/237 238/238/238 239/239/239
f 235/235/235 234/234/234 236/236/236
f 233/233/233 234/234/234 235/235/235
f 231/231/231 230/230/230 232/232/232
f 229/229/229 230/230/230 231/231/231
f 227/227/227 226/226/226 228/228/228
f 225/225/225 226/226/226 227/227/227
f 223/223/223 222/222/222 224/224/224
f 221/221/221 222/222/222 223/223/223
f 219/219/219 218/218/218 220/220/220
f 217/217/217 218/218/218 219/219/219
f 215/215/215 214/214/214 216/216/216
f 213/213/213 214/214/214 215/215/215
f 211/211/211 210/210/210 212/212/212
f 209/209/209 210/210/210 211/211/211
f 207/207/207 206/206/206 208/208/208
f 205/205/205 206/206/206 207/207/207
f 203/203/203 202/202/202 204/204/204
f 201/201/201 202/202/202 203/203/203
f 199/199/199 198/198/198 200/200/200
f 197/197/197 198/198/198 199/199/199
f 195/195/195 194/194/194 196/196/196
f 193/193/193 194/194/194 195/195/195
f 191/191/191 190/190/190 192/192/192
f 189/189/189 190/190/190 191/191/191
f 187/187/187 186/186/186 188/188/188
f 185/185/185 186/186/186 187/187/187
f 183/183/183 182/182/182 184/184/184
f 181/181/181 182/182/182 183/183/183
f 179/179/179 178/178/178 180/180/180
f 177/177/177 178/178/178 179/179/179
f 175/175/175 174/174/174 176/176/176
f 173/173/173 174/174/174 175/175/175
f 171/171/171 170/170/170 172/172/172
f 169/169/169 170/170/170 171/171/171
f 167/167/167 166/166/166 168/168/168
f 165/165/165 166/166/166 167/167/167
f 163/163/163 162/162/162 164/164/164
f 161/161/161 162/162/162 163/163/163
f 159/159/159 158/158/158 160/160/160
f 157/157/157 158/158/158 159/159/159
f 155/155/155 154/154/154 156/156/156
f 153/153/153 154/154/154 155/155/155
f 151/151/151 150/150/150 152/152/152
f 149/149/149 150/150/150 151/151/151
f 139/139/139 138/138/138 140/140/140
f 137/137/137 138/138/138 139/139/139
f 135/135/135 134/134/134 136/136/136
f 133/133/133 134/134/134 135/135/135
f 131/131/131 130/130/130 132/132/132
f 129/129/129 130/130/130 131/131/131
f 127/127/127 126/126/126 128/128/128
f 125/125/125 126/126/126 127/127/127
f 123/123/123 122/122/122 124/124/124
f 121/121/121 122/122/122 123/123/123
f 119/119/119 118/118/118 120/120/120
f 117/117/117 118/118/118 119/119/119
f 115/115/115 114/114/114 116/116/116
f 113/113/113 114/114/114 115/115/115
f 111/111/111 110/110/110 112/112/112
f 109/109/109 110/110/110 111/111/111
f 107/107/107 106/106/106 108/108/108
f 105/105/105 106/106/106 107/107/107
f 103/103/103 102/102/102 104/104/104
f 101/101/101 102/102/102 103/103/103
f 99/99/99 98/98/98 100/100/100
f 97/97/97 98/98/98 99/99/99
f 95/95/95 94/94/94 96/96/96
f 93/93/93 94/94/94 95/95/95
f 91/91/91 90/90/90 92/92/92
f 89/89/89 90/90/90 91/91/91
f 87/87/87 86/86/86 88/88/88
f 85/85/85 86/86/86 87/87/87
f 83/83/83 82/82/82 84/84/84
f 81/81/81 82/82/82 83/83/83
f 71/71/71 70/70/70 72/72/72
f 69/69/69 70/70/70 71/71/71
f 67/67/67 66/66/66 68/68/68
f 65/65/65 66/66/66 67/67/67
f 63/63/63 62/62/62 64/64/64
f 61/61/61 62/62/62 63/63/63
f 59/59/59 58/58/58 60/60/60
f 57/57/57 58/58/58 59/59/59
f 55/55/55 54/54/54 56/56/56
f 53/53/53 54/54/54 55/55/55
f 51/51/51 50/50/50 52/52/52
f 49/49/49 50/50/50 51/51/51
f 47/47/47 48/48/48 43/43/43
f 43/43/43 48/48/48 44/44/44
f 43/43/43 44/44/44 45/45/45
f 46/46/46 42/42/42 32/32/32
f 32/32/32 42/42/42 34/34/34
f 33/33/33 32/32/32 34/34/34
f 31/31/31 32/32/32 33/33/33
f 26/26/26 25/25/25 41/41/41
f 25/25/25 26/26/26 27/27/27
f 39/39/39 38/38/38 40/40/40
f 37/37/37 38/38/38 39/39/39
f 35/35/35 30/30/30 36/36/36
f 36/36/36 30/30/30 29/29/29
f 28/28/28 29/29/29 30/30/30
f 23/23/23 22/22/22 24/24/24
f 21/21/21 22/22/22 23/23/23

