#
# OBJECT NAME
#
o model_4129
mtllib 4129.mtl

#
# VERTEX BUFFER 000
#
v 1.44221 0.73 1.44221
v 1.48677 0.584636 1.48677
v 1.44205 0.73 0.55125
v 1.48677 0.584636 0.32364
v 0.995962 0.73 0.997255
v 1.44221 0.73 1.44221
v 1.44205 0.73 0.55125
v 1.48677 0.27942 0
v 1.48677 0.584636 0
v 1.48677 0.584636 0.32364
v 1.44205 0.73 0
v -0.000157356 0.73 0
v 1.44205 0.73 0.55125
v 0.995962 0.73 0.997255
v 1.44205 0.73 0.55125
v 1.44205 0.73 0
v 0.323641 0.584636 1.48677
v 1.48677 0.584636 1.48677
v 0.55125 0.73 1.44221
v 1.44221 0.73 1.44221
v 0.55125 0.73 1.44221
v 0.55125 0.73 1.44221
v 0.323641 0.584636 1.48677
v 0 0.584636 1.48677
v 0 0.27942 1.48677
v 0 0.73 1.44221
v 0.55125 0.73 1.44221
v 0 0.73 1.44221
v -1.14125 0.370312 0.955287
v -0.95504 0.370312 1.1415
v -1.14125 0 1.02698
v -1.02673 0 1.1415
v -1.14125 0.370312 1.32771
v -1.32746 0.370312 1.1415
v -1.14125 0 1.25602
v -1.25577 0 1.1415
v -1.34419 0.370311 1.34444
v -1.41402 0.586509 1.41426
v -1.34419 0.370311 0.93856
v -1.41402 0.586509 0.868732
v -1.41402 0.586509 1.41426
v -1.34419 0.370311 1.34444
v -0.868485 0.586509 1.41426
v -0.938313 0.370311 1.34444
v -0.938313 0.370311 0.93856
v -0.868485 0.586509 0.868732
v -0.938313 0.370311 1.34444
v -0.868485 0.586509 1.41426
v -1.34419 0.370311 0.93856
v -1.41402 0.586509 0.868732
v -0.938313 0.370311 0.93856
v -0.868485 0.586509 0.868732
v -1.32746 0.370312 -1.1415
v -1.14125 0.370312 -1.32771
v -1.25577 0 -1.1415
v -1.14125 0 -1.25602
v -0.95504 0.370312 -1.1415
v -1.14125 0.370312 -0.955286
v -1.02673 0 -1.1415
v -1.14125 0 -1.02698
v -0.938314 0.370312 -0.93856
v -0.868485 0.586509 -0.868732
v -1.34419 0.370312 -0.93856
v -1.41402 0.586509 -0.868732
v -0.868485 0.586509 -0.868732
v -0.938314 0.370312 -0.93856
v -0.868485 0.586509 -1.41426
v -0.938314 0.370312 -1.34444
v -1.34419 0.370312 -1.34444
v -1.41402 0.586509 -1.41426
v -0.938314 0.370312 -1.34444
v -0.868485 0.586509 -1.41426
v -1.34419 0.370312 -0.93856
v -1.41402 0.586509 -0.868732
v -1.34419 0.370312 -1.34444
v -1.41402 0.586509 -1.41426
v 0.929731 0.584636 0.929731
v -0.929731 0.584636 0.929731
v 0.663833 0.25692 0.66399
v -0.664146 0.25692 0.66399
v 0.929731 0.584636 -0.929731
v 0.929731 0.584636 0.929731
v 0.663833 0.25692 -0.66399
v 0.663833 0.25692 0.66399
v -0.929731 0.584636 -0.929731
v 0.929731 0.584636 -0.929731
v -0.664146 0.25692 -0.66399
v 0.663833 0.25692 -0.66399
v -0.929731 0.584636 0.929731
v -0.929731 0.584636 -0.929731
v -0.664146 0.25692 0.66399
v -0.664146 0.25692 -0.66399
v 0.95504 0.370312 1.1415
v 1.14125 0.370312 0.955287
v 1.02673 0 1.1415
v 1.14125 0 1.02698
v 1.32746 0.370312 1.1415
v 1.14125 0.370312 1.32771
v 1.25577 0 1.1415
v 1.14125 0 1.25602
v 1.41402 0.586509 1.41427
v 0.868485 0.586509 1.41427
v 1.34403 0.370312 1.34444
v 0.938157 0.370312 1.34444
v 1.41402 0.586509 1.41427
v 1.34403 0.370312 1.34444
v 1.41402 0.586509 0.868732
v 1.34403 0.370312 0.938561
v 0.938157 0.370312 0.938561
v 0.868485 0.586509 0.868732
v 1.34403 0.370312 0.938561
v 1.41402 0.586509 0.868732
v 0.938157 0.370312 1.34444
v 0.868485 0.586509 1.41427
v 0.938157 0.370312 0.938561
v 0.868485 0.586509 0.868732
v 1.14125 0.370312 -1.32771
v 1.32746 0.370312 -1.1415
v 1.14125 0 -1.25602
v 1.25577 0 -1.1415
v 1.14125 0.370312 -0.955286
v 0.95504 0.370312 -1.1415
v 1.14125 0 -1.02698
v 1.02673 0 -1.1415
v 0.938157 0.370312 -0.93856
v 0.868485 0.586509 -0.868732
v 0.938157 0.370312 -1.34444
v 0.868485 0.586509 -1.41426
v 0.938157 0.370312 -0.93856
v 1.34403 0.370312 -0.93856
v 0.868485 0.586509 -0.868732
v 1.41402 0.586509 -0.868732
v 1.34403 0.370312 -1.34444
v 1.41402 0.586509 -1.41426
v 1.34403 0.370312 -0.93856
v 1.41402 0.586509 -0.868732
v 0.938157 0.370312 -1.34444
v 0.868485 0.586509 -1.41426
v 1.34403 0.370312 -1.34444
v 1.41402 0.586509 -1.41426
v 1.44221 0.73 -1.44221
v 1.48677 0.584636 -1.48677
v 0.55125 0.73 -1.44221
v 0.323641 0.584636 -1.48677
v 0.997255 0.73 -0.996119
v 1.44221 0.73 -1.44221
v 0.55125 0.73 -1.44221
v 1.48677 0.584636 -0.32364
v 1.48677 0.584636 -1.48677
v 1.44221 0.73 -0.55125
v 1.44221 0.73 -1.44221
v 1.44221 0.73 -0.55125
v -1.44221 0.73 1.44221
v -1.48677 0.584636 1.48677
v -0.55125 0.73 1.44221
v -0.323641 0.584636 1.48677
v -0.997255 0.73 0.996119
v -1.44221 0.73 1.44221
v -0.55125 0.73 1.44221
v -1.48677 0.584636 0.32364
v -1.48677 0.584636 1.48677
v -1.44221 0.73 0.55125
v -1.44221 0.73 1.44221
v -1.44221 0.73 0.55125
v -1.44221 0.73 -1.44221
v -1.48677 0.584636 -1.48677
v -1.44221 0.73 -0.55125
v -1.48677 0.584636 -0.32364
v -0.99612 0.73 -0.997255
v -1.44221 0.73 -1.44221
v -1.44221 0.73 -0.55125
v -0.323641 0.584636 -1.48677
v -1.48677 0.584636 -1.48677
v -0.55125 0.73 -1.44221
v -1.44221 0.73 -1.44221
v -0.55125 0.73 -1.44221
v 0 0.584636 1.48677
v -0.323641 0.584636 1.48677
v 0 0.73 1.44221
v 0 0.73 0
v -0.55125 0.73 1.44221
v -0.997255 0.73 0.996119
v -0.55125 0.73 1.44221
v 0 0.73 1.44221
v -1.44221 0.73 0.55125
v -1.48677 0.584636 0.32364
v -1.48677 0.584636 0
v -1.48677 0.27942 0
v -1.44221 0.73 0
v -1.44221 0.73 0.55125
v -1.44221 0.73 0
v -1.48677 0.584636 0
v -1.48677 0.584636 -0.32364
v -1.44221 0.73 0
v 0 0.73 0
v -1.44221 0.73 -0.55125
v -0.99612 0.73 -0.997255
v -1.44221 0.73 -0.55125
v -1.44221 0.73 0
v -0.55125 0.73 -1.44221
v -0.323641 0.584636 -1.48677
v 0 0.584636 -1.48677
v 0 0.27942 -1.48677
v 0 0.73 -1.44221
v -0.55125 0.73 -1.44221
v 0 0.73 -1.44221
v 0 0.584636 -1.48677
v 0.323641 0.584636 -1.48677
v 0 0.73 -1.44221
v 0 0.73 0
v 0.55125 0.73 -1.44221
v 0.997255 0.73 -0.996119
v 0.55125 0.73 -1.44221
v 0 0.73 -1.44221
v 1.44221 0.73 -0.55125
v 1.48677 0.584636 -0.32364
v 1.48677 0.584636 0
v 1.44221 0.73 0
v 1.44221 0.73 -0.55125
v 1.44221 0.73 0
v 1.32746 0.370312 -1.1415
v 1.25577 0 -1.1415
v 0.95504 0.370312 -1.1415
v 1.14125 0.370312 -1.32771
v 1.02673 0 -1.1415
v 1.14125 0.370312 0.955287
v 1.14125 0 1.02698
v 1.14125 0.370312 1.32771
v 1.14125 0 1.25602
v -1.32746 0.370312 1.1415
v -1.25577 0 1.1415
v -0.95504 0.370312 1.1415
v -1.02673 0 1.1415
v -1.14125 0.370312 -1.32771
v -1.14125 0 -1.25602
v -1.14125 0.370312 -0.955286
v -1.14125 0 -1.02698
v -0.664146 0.25692 0.66399
v -0.664146 0.25692 -0.66399
v 0.663833 0.25692 0.66399
v 0.663833 0.25692 -0.66399
v 0.938157 0.370312 0.938561
v 1.34403 0.370312 0.938561
v 0.938157 0.370312 1.34444
v 1.34403 0.370312 1.34444
v -1.34419 0.370311 1.34444
v -1.34419 0.370311 0.93856
v -0.938313 0.370311 1.34444
v -0.938313 0.370311 0.93856
v -1.34419 0.370312 -0.93856
v -1.34419 0.370312 -1.34444
v -0.938314 0.370312 -0.93856
v -0.938314 0.370312 -1.34444
v 0.938157 0.370312 -0.93856
v 0.938157 0.370312 -1.34444
v 1.34403 0.370312 -0.93856
v 1.34403 0.370312 -1.34444
v -1.48677 0.584636 1.48677
v -1.48677 0.584636 -1.48677
v 1.48677 0.584636 1.48677
v 1.48677 0.584636 -1.48677
v -1.14125 0 1.25602
v -1.25577 0 1.1415
v -1.02673 0 1.1415
v -1.14125 0 1.02698
v 1.14125 0 1.25602
v 1.02673 0 1.1415
v 1.25577 0 1.1415
v 1.14125 0 1.02698
v 1.14125 0 -1.02698
v 1.02673 0 -1.1415
v 1.25577 0 -1.1415
v 1.14125 0 -1.25602
v -1.25577 0 -1.1415
v -1.14125 0 -1.25602
v -1.14125 0 -1.02698
v -1.02673 0 -1.1415

vn 0.955566 0.293457 -7.31945e-005
vn 0.955566 0.293457 -7.31945e-005
vn 0.955566 0.293457 -7.31945e-005
vn 0.955566 0.293457 -7.31945e-005
vn 0 1 0
vn 0 1 0
vn 0 1 0
vn 1 0 0
vn 0.984863 0.170532 0
vn 0.969727 0.242554 0
vn 0 1 0
vn 0 1 0
vn 0 1 0
vn 0 1 0
vn 0.955566 0.293945 0
vn 0.955566 0.293945 0
vn 0 0.292969 0.956055
vn 0 0.292969 0.956055
vn 0 0.292969 0.956055
vn 0 0.292969 0.956055
vn 0 1 -2.98023e-007
vn 0 1 -2.98023e-007
vn 0 0.241821 0.970215
vn 0 0.169922 0.985352
vn 0 0 1
vn 0 1 0
vn 0 0.292969 0.956055
vn 0 0.292969 0.956055
vn -9.53674e-007 -0.190063 -0.981445
vn 0.981445 -0.190063 0
vn 1.07288e-006 -0.190063 -0.981445
vn 0.981445 -0.190063 0
vn -9.53674e-007 -0.190063 0.981445
vn -0.981445 -0.190063 0
vn 9.53674e-007 -0.190063 0.981445
vn -0.981445 -0.190063 0
vn -0.951172 -0.307129 0
vn -0.951172 -0.307129 0
vn -0.951172 -0.307129 0
vn -0.951172 -0.307129 0
vn 0 -0.307129 0.951172
vn 0 -0.307129 0.951172
vn 0 -0.307129 0.951172
vn 0 -0.307129 0.951172
vn 0.951172 -0.307129 0
vn 0.951172 -0.307129 0
vn 0.951172 -0.307129 0
vn 0.951172 -0.307129 0
vn 0 -0.307129 -0.951172
vn 0 -0.307129 -0.951172
vn 0 -0.307129 -0.951172
vn 0 -0.307129 -0.951172
vn -0.981445 -0.190063 0
vn -9.53674e-007 -0.190063 -0.981445
vn -0.981445 -0.190063 0
vn 8.9407e-007 -0.190063 -0.981445
vn 0.981445 -0.190063 0
vn -9.53674e-007 -0.190063 0.981445
vn 0.981445 -0.190063 0
vn 9.53674e-007 -0.190063 0.981445
vn 0 -0.307129 0.951172
vn 0 -0.307129 0.951172
vn 0 -0.307129 0.951172
vn 0 -0.307129 0.951172
vn 0.951172 -0.307129 0
vn 0.951172 -0.307129 0
vn 0.951172 -0.307129 0
vn 0.951172 -0.307129 0
vn 0 -0.307129 -0.951172
vn 0 -0.307129 -0.951172
vn 0 -0.307129 -0.951172
vn 0 -0.307129 -0.951172
vn -0.951172 -0.307129 0
vn -0.951172 -0.307129 0
vn -0.951172 -0.307129 0
vn -0.951172 -0.307129 0
vn 0 -0.629395 0.776367
vn 0 -0.629395 0.776367
vn 0 -0.629395 0.776367
vn 0 -0.629395 0.776367
vn 0.776367 -0.629883 0
vn 0.776367 -0.629883 0
vn 0.776367 -0.629883 0
vn 0.776367 -0.629883 0
vn 0 -0.629395 -0.776367
vn 0 -0.629395 -0.776367
vn 0 -0.629395 -0.776367
vn 0 -0.629395 -0.776367
vn -0.776855 -0.629395 0
vn -0.776855 -0.629395 0
vn -0.776855 -0.629395 0
vn -0.776855 -0.629395 0
vn -0.981445 -0.190063 0
vn 0 -0.190063 -0.981445
vn -0.981445 -0.190063 0
vn 0 -0.190063 -0.981445
vn 0.981445 -0.190063 0
vn 0 -0.190063 0.981445
vn 0.981445 -0.190063 0
vn 0 -0.190063 0.981445
vn 0 -0.307129 0.951172
vn 0 -0.307129 0.951172
vn 0 -0.307129 0.951172
vn 0 -0.307129 0.951172
vn 0.951172 -0.307861 0
vn 0.951172 -0.307861 0
vn 0.951172 -0.307861 0
vn 0.951172 -0.307861 0
vn 0 -0.307129 -0.951172
vn 0 -0.307129 -0.951172
vn 0 -0.307129 -0.951172
vn 0 -0.307129 -0.951172
vn -0.95166 -0.306641 0
vn -0.95166 -0.306641 0
vn -0.95166 -0.306641 0
vn -0.95166 -0.306641 0
vn 0 -0.190063 -0.981445
vn 0.981445 -0.190063 0
vn 0 -0.190063 -0.981445
vn 0.981445 -0.190063 0
vn 0 -0.190063 0.981445
vn -0.981445 -0.190063 0
vn 0 -0.190063 0.981445
vn -0.981445 -0.190063 0
vn -0.95166 -0.306641 0
vn -0.95166 -0.306641 0
vn -0.95166 -0.306641 0
vn -0.95166 -0.306641 0
vn 0 -0.307129 0.951172
vn 0 -0.307129 0.951172
vn 0 -0.307129 0.951172
vn 0 -0.307129 0.951172
vn 0.951172 -0.307861 0
vn 0.951172 -0.307861 0
vn 0.951172 -0.307861 0
vn 0.951172 -0.307861 0
vn 0 -0.307129 -0.951172
vn 0 -0.307129 -0.951172
vn 0 -0.307129 -0.951172
vn 0 -0.307129 -0.951172
vn 0 0.292969 -0.956055
vn 0 0.292969 -0.956055
vn 0 0.292969 -0.956055
vn 0 0.292969 -0.956055
vn 0 1 1.19209e-007
vn 0 1 1.19209e-007
vn 0 1 1.19209e-007
vn 0.956055 0.292969 0
vn 0.956055 0.292969 0
vn 0.956055 0.292969 0
vn 0.956055 0.292969 0
vn 0 1 0
vn 0 0.292969 0.956055
vn 0 0.292969 0.956055
vn 0 0.292969 0.956055
vn 0 0.292969 0.956055
vn 0 1 -1.19209e-007
vn 0 1 -1.19209e-007
vn 0 1 -1.19209e-007
vn -0.956055 0.292969 0
vn -0.956055 0.292969 0
vn -0.956055 0.292969 0
vn -0.956055 0.292969 0
vn 0 1 0
vn -0.956055 0.292969 0
vn -0.956055 0.292969 0
vn -0.956055 0.292969 0
vn -0.956055 0.292969 0
vn 0 1 0
vn 0 1 0
vn 0 1 0
vn 0 0.292969 -0.956055
vn 0 0.292969 -0.956055
vn 0 0.292969 -0.956055
vn 0 0.292969 -0.956055
vn 0 1 0
vn 0 0.169922 0.985352
vn 0 0.241821 0.970215
vn 0 1 0
vn 0 1 0
vn 0 1 0
vn 0 1 0
vn 0 0.292969 0.956055
vn 0 0.292969 0.956055
vn 0 1 -1.19209e-007
vn -0.970215 0.241821 0
vn -0.985352 0.169922 0
vn -1 0 0
vn 0 1 0
vn -0.956055 0.292969 0
vn -0.956055 0.292969 0
vn -0.985352 0.169922 0
vn -0.970215 0.241821 0
vn 0 1 0
vn 0 1 0
vn 0 1 0
vn 0 1 0
vn -0.956055 0.292969 0
vn -0.956055 0.292969 0
vn 0 1 0
vn 0 0.241821 -0.970215
vn 0 0.169922 -0.985352
vn 0 0 -1
vn 0 1 0
vn 0 0.292969 -0.956055
vn 0 0.292969 -0.956055
vn 0 0.169922 -0.985352
vn 0 0.241821 -0.970215
vn 0 1 0
vn 0 1 0
vn 0 1 0
vn 0 1 0
vn 0 0.292969 -0.956055
vn 0 0.292969 -0.956055
vn 0 1 1.19209e-007
vn 0.970215 0.241821 0
vn 0.985352 0.169922 0
vn 0 1 0
vn 0.956055 0.292969 0
vn 0.956055 0.292969 0
vn 0.981445 -0.190063 0
vn 0.981445 -0.190063 0
vn -0.981445 -0.190063 0
vn 0 -0.190063 -0.981445
vn -0.981445 -0.190063 0
vn 0 -0.190063 -0.981445
vn 0 -0.190063 -0.981445
vn 0 -0.190063 0.981445
vn 0 -0.190063 0.981445
vn -0.981445 -0.190063 0
vn -0.981445 -0.190063 0
vn 0.981445 -0.190063 0
vn 0.981445 -0.190063 0
vn -9.53674e-007 -0.190063 -0.981445
vn 8.9407e-007 -0.190063 -0.981445
vn -9.53674e-007 -0.190063 0.981445
vn 9.53674e-007 -0.190063 0.981445
vn 0 -1 0
vn 0 -1 0
vn 0 -1 0
vn 0 -1 0
vn 0 -1 0
vn 0 -1 0
vn 0 -1 0
vn 0 -1 0
vn 0 -1 0
vn 0 -1 0
vn 0 -1 0
vn 0 -1 0
vn 0 -1 0
vn 0 -1 0
vn 0 -1 0
vn 0 -1 0
vn 0 -1 0
vn 0 -1 0
vn 0 -1 0
vn 0 -1 0
vn 0 -1 0
vn 0 -1 0
vn 0 -1 0
vn 0 -1 0
vn 0 -1 0
vn 0 -1 0
vn 0 -1 0
vn 0 -1 0
vn 0 -1 0
vn 0 -1 0
vn 0 -1 0
vn 0 -1 0
vn 0 -1 0
vn 0 -1 0
vn 0 -1 0
vn 0 -1 0
vn 0 -1 0
vn 0 -1 0
vn 0 -1 0
vn 0 -1 0

vt 0.198706 0.0681365
vt 0.191493 0.0119889
vt 0.340806 0.0681365
vt 0.37696 0.0119889
vt 0.414167 0.82893
vt 0.495527 0.990155
vt 0.332366 0.990584
vt 0.40091 0.00737041
vt 0.40091 0.102551
vt 0.349917 0.102551
vt 0.390911 0.54112
vt 0.166322 0.541121
vt 0.390911 0.369334
vt 0.320673 0.230344
vt 0.314055 0.155958
vt 0.40091 0.155958
vt 0.00206481 0.011989
vt 0.18402 0.011989
vt 0.0374604 0.0681365
vt 0.176936 0.0681365
vt 0.495635 0.667442
vt 0.250626 0.091682
vt 0.451903 0.102551
vt 0.40091 0.102551
vt 0.40091 0.00737041
vt 0.166322 0.0916818
vt 0.487766 0.155958
vt 0.40091 0.155958
vt 0.0411898 0.274014
vt 0.00321825 0.274014
vt 0.0411898 0.176472
vt 0.00321825 0.176472
vt 0.0411898 0.274014
vt 0.00321825 0.274014
vt 0.0411898 0.176472
vt 0.00321825 0.176472
vt 0.423586 0.651723
vt 0.423586 0.708914
vt 0.348382 0.651723
vt 0.348382 0.708914
vt 0.26068 0.709463
vt 0.26068 0.651723
vt 0.335903 0.709463
vt 0.335903 0.651723
vt 0.423586 0.651723
vt 0.423586 0.708925
vt 0.348382 0.651723
vt 0.348382 0.708925
vt 0.335903 0.651723
vt 0.335903 0.709451
vt 0.26068 0.651723
vt 0.26068 0.709451
vt 0.0411898 0.274014
vt 0.00321825 0.274014
vt 0.0411898 0.176472
vt 0.00321825 0.176472
vt 0.0411898 0.274014
vt 0.00321825 0.274014
vt 0.0411898 0.176472
vt 0.00321825 0.176472
vt 0.423586 0.651723
vt 0.423586 0.708914
vt 0.348382 0.651723
vt 0.348382 0.708914
vt 0.26068 0.709463
vt 0.26068 0.651723
vt 0.335903 0.709463
vt 0.335903 0.651723
vt 0.423586 0.651723
vt 0.423586 0.708925
vt 0.348382 0.651723
vt 0.348382 0.708925
vt 0.335903 0.651723
vt 0.335903 0.709451
vt 0.26068 0.651723
vt 0.26068 0.709451
vt 0.245829 0.695227
vt 0.00356948 0.695227
vt 0.216922 0.614938
vt 0.0324768 0.614938
vt 0.245828 0.695227
vt 0.00356924 0.695227
vt 0.216922 0.614938
vt 0.0324769 0.614938
vt 0.245829 0.695227
vt 0.00356948 0.695227
vt 0.216922 0.614938
vt 0.0324768 0.614938
vt 0.245829 0.695227
vt 0.00356957 0.695227
vt 0.216922 0.614938
vt 0.0324766 0.614938
vt 0.0411898 0.274014
vt 0.00321825 0.274014
vt 0.0411898 0.176472
vt 0.00321825 0.176472
vt 0.0411898 0.274014
vt 0.00321825 0.274014
vt 0.0411898 0.176472
vt 0.00321825 0.176472
vt 0.423586 0.708914
vt 0.348382 0.708914
vt 0.423586 0.651723
vt 0.348382 0.651723
vt 0.26068 0.709463
vt 0.26068 0.651723
vt 0.335903 0.709463
vt 0.335903 0.651723
vt 0.423586 0.651723
vt 0.423586 0.708925
vt 0.348382 0.651723
vt 0.348382 0.708925
vt 0.335903 0.651723
vt 0.335903 0.709451
vt 0.26068 0.651723
vt 0.26068 0.709451
vt 0.0411898 0.274014
vt 0.00321825 0.274014
vt 0.0411898 0.176472
vt 0.00321825 0.176472
vt 0.0411898 0.274014
vt 0.00321825 0.274014
vt 0.0411898 0.176472
vt 0.00321825 0.176472
vt 0.423586 0.651723
vt 0.423586 0.708914
vt 0.348382 0.651723
vt 0.348382 0.708914
vt 0.26068 0.651723
vt 0.335903 0.651723
vt 0.26068 0.709463
vt 0.335903 0.709463
vt 0.423586 0.651723
vt 0.423586 0.708925
vt 0.348382 0.651723
vt 0.348382 0.708925
vt 0.335903 0.651723
vt 0.335903 0.709451
vt 0.26068 0.651723
vt 0.26068 0.709451
vt 0.198706 0.0681365
vt 0.191493 0.0119889
vt 0.340806 0.0681365
vt 0.37696 0.0119889
vt 0.414167 0.82893
vt 0.495527 0.990155
vt 0.332366 0.990584
vt 0.00206481 0.011989
vt 0.18402 0.011989
vt 0.0374604 0.0681365
vt 0.176936 0.0681365
vt 0.495635 0.667442
vt 0.198706 0.0681365
vt 0.191493 0.0119889
vt 0.340806 0.0681365
vt 0.37696 0.0119889
vt 0.414167 0.82893
vt 0.495527 0.990155
vt 0.332366 0.990584
vt 0.00206481 0.011989
vt 0.18402 0.011989
vt 0.0374604 0.0681365
vt 0.176936 0.0681365
vt 0.495635 0.667442
vt 0.198706 0.0681365
vt 0.191493 0.0119889
vt 0.340806 0.0681365
vt 0.37696 0.0119889
vt 0.414167 0.82893
vt 0.495527 0.990155
vt 0.332366 0.990584
vt 0.00206481 0.011989
vt 0.18402 0.011989
vt 0.0374604 0.0681365
vt 0.176936 0.0681365
vt 0.495635 0.667442
vt 0.40091 0.102551
vt 0.349917 0.102551
vt 0.390911 0.54112
vt 0.166322 0.541121
vt 0.390911 0.369334
vt 0.320673 0.230344
vt 0.314055 0.155958
vt 0.40091 0.155958
vt 0.250626 0.091682
vt 0.451903 0.102551
vt 0.40091 0.102551
vt 0.40091 0.00737041
vt 0.166322 0.0916818
vt 0.487766 0.155958
vt 0.40091 0.155958
vt 0.40091 0.102551
vt 0.349917 0.102551
vt 0.390911 0.54112
vt 0.166322 0.541121
vt 0.390911 0.369334
vt 0.320673 0.230344
vt 0.314055 0.155958
vt 0.40091 0.155958
vt 0.250626 0.091682
vt 0.451903 0.102551
vt 0.40091 0.102551
vt 0.40091 0.00737041
vt 0.166322 0.0916818
vt 0.487766 0.155958
vt 0.40091 0.155958
vt 0.40091 0.102551
vt 0.349917 0.102551
vt 0.390911 0.54112
vt 0.166322 0.541121
vt 0.390911 0.369334
vt 0.320673 0.230344
vt 0.314055 0.155958
vt 0.40091 0.155958
vt 0.250626 0.091682
vt 0.451903 0.102551
vt 0.40091 0.102551
vt 0.166322 0.0916818
vt 0.487766 0.155958
vt 0.40091 0.155958
vt 0.0791614 0.274014
vt 0.0791614 0.176472
vt 0.0791614 0.274014
vt 0.0411898 0.274014
vt 0.0791614 0.176472
vt 0.0791614 0.274014
vt 0.0791614 0.176472
vt 0.0791614 0.274014
vt 0.0791614 0.176472
vt 0.0791614 0.274014
vt 0.0791614 0.176472
vt 0.0791614 0.274014
vt 0.0791614 0.176472
vt 0.0791614 0.274014
vt 0.0791614 0.176472
vt 0.0791614 0.274014
vt 0.0791614 0.176472
vt 0.0580919 0.492205
vt 0.0580919 0.396268
vt 0.106564 0.492205
vt 0.106564 0.396268
vt 0.116578 0.512041
vt 0.131392 0.512041
vt 0.116578 0.541363
vt 0.131392 0.541363
vt 0.0332697 0.541362
vt 0.0332697 0.512041
vt 0.0480846 0.541362
vt 0.0480846 0.512041
vt 0.0332697 0.376433
vt 0.0332697 0.347111
vt 0.0480845 0.376433
vt 0.0480845 0.347111
vt 0.116578 0.376433
vt 0.116578 0.347111
vt 0.131392 0.376433
vt 0.131392 0.347111
vt 0.0280653 0.551645
vt 0.0280653 0.336828
vt 0.136603 0.551645
vt 0.136603 0.336828
vt 0.0406772 0.534975
vt 0.0364971 0.526702
vt 0.0448572 0.526702
vt 0.0406772 0.518428
vt 0.123991 0.534975
vt 0.119811 0.526702
vt 0.128171 0.526702
vt 0.123991 0.518428
vt 0.123991 0.370045
vt 0.119811 0.361772
vt 0.128171 0.361772
vt 0.123991 0.353499
vt 0.0364971 0.361772
vt 0.0406772 0.353499
vt 0.0406772 0.370045
vt 0.0448572 0.361772


#
# MESH 000
#
g surface_000
usemtl surface_000
f 276/276/276 275/275/275 277/277/277
f 274/274/274 275/275/275 276/276/276
f 272/272/272 271/271/271 273/273/273
f 270/270/270 271/271/271 272/272/272
f 268/268/268 267/267/267 269/269/269
f 266/266/266 267/267/267 268/268/268
f 264/264/264 263/263/263 265/265/265
f 262/262/262 263/263/263 264/264/264
f 260/260/260 259/259/259 261/261/261
f 258/258/258 259/259/259 260/260/260
f 256/256/256 255/255/255 257/257/257
f 254/254/254 255/255/255 256/256/256
f 252/252/252 251/251/251 253/253/253
f 250/250/250 251/251/251 252/252/252
f 248/248/248 247/247/247 249/249/249
f 246/246/246 247/247/247 248/248/248
f 244/244/244 243/243/243 245/245/245
f 242/242/242 243/243/243 244/244/244
f 240/240/240 239/239/239 241/241/241
f 238/238/238 239/239/239 240/240/240
f 236/236/236 53/53/53 237/237/237
f 237/237/237 53/53/53 55/55/55
f 53/53/53 54/54/54 55/55/55
f 55/55/55 54/54/54 56/56/56
f 234/234/234 57/57/57 235/235/235
f 235/235/235 57/57/57 59/59/59
f 57/57/57 58/58/58 59/59/59
f 59/59/59 58/58/58 60/60/60
f 232/232/232 33/33/33 233/233/233
f 233/233/233 33/33/33 35/35/35
f 33/33/33 34/34/34 35/35/35
f 35/35/35 34/34/34 36/36/36
f 230/230/230 29/29/29 231/231/231
f 231/231/231 29/29/29 31/31/31
f 29/29/29 30/30/30 31/31/31
f 31/31/31 30/30/30 32/32/32
f 228/228/228 93/93/93 229/229/229
f 229/229/229 93/93/93 95/95/95
f 93/93/93 94/94/94 95/95/95
f 95/95/95 94/94/94 96/96/96
f 226/226/226 97/97/97 227/227/227
f 227/227/227 97/97/97 99/99/99
f 97/97/97 98/98/98 99/99/99
f 99/99/99 98/98/98 100/100/100
f 225/225/225 224/224/224 119/119/119
f 223/223/223 224/224/224 225/225/225
f 221/221/221 121/121/121 222/222/222
f 222/222/222 121/121/121 123/123/123
f 121/121/121 122/122/122 123/123/123
f 123/123/123 122/122/122 124/124/124
f 219/219/219 220/220/220 216/216/216
f 216/216/216 220/220/220 217/217/217
f 216/216/216 217/217/217 8/8/8
f 218/218/218 215/215/215 210/210/210
f 210/210/210 215/215/215 212/212/212
f 211/211/211 210/210/210 212/212/212
f 209/209/209 210/210/210 211/211/211
f 213/213/213 208/208/208 214/214/214
f 214/214/214 208/208/208 207/207/207
f 203/203/203 207/207/207 208/208/208
f 205/205/205 206/206/206 201/201/201
f 201/201/201 206/206/206 202/202/202
f 201/201/201 202/202/202 203/203/203
f 204/204/204 200/200/200 195/195/195
f 195/195/195 200/200/200 197/197/197
f 196/196/196 195/195/195 197/197/197
f 194/194/194 195/195/195 196/196/196
f 198/198/198 193/193/193 199/199/199
f 199/199/199 193/193/193 192/192/192
f 188/188/188 192/192/192 193/193/193
f 190/190/190 191/191/191 186/186/186
f 186/186/186 191/191/191 187/187/187
f 186/186/186 187/187/187 188/188/188
f 189/189/189 185/185/185 180/180/180
f 180/180/180 185/185/185 182/182/182
f 181/181/181 180/180/180 182/182/182
f 179/179/179 180/180/180 181/181/181
f 183/183/183 178/178/178 184/184/184
f 184/184/184 178/178/178 177/177/177
f 25/25/25 177/177/177 178/178/178
f 170/170/170 169/169/169 176/176/176
f 169/169/169 170/170/170 171/171/171
f 174/174/174 173/173/173 175/175/175
f 172/172/172 173/173/173 174/174/174
f 167/167/167 166/166/166 168/168/168
f 165/165/165 166/166/166 167/167/167
f 158/158/158 157/157/157 164/164/164
f 157/157/157 158/158/158 159/159/159
f 162/162/162 161/161/161 163/163/163
f 160/160/160 161/161/161 162/162/162
f 155/155/155 154/154/154 156/156/156
f 153/153/153 154/154/154 155/155/155
f 146/146/146 145/145/145 152/152/152
f 145/145/145 146/146/146 147/147/147
f 150/150/150 149/149/149 151/151/151
f 148/148/148 149/149/149 150/150/150
f 143/143/143 142/142/142 144/144/144
f 141/141/141 142/142/142 143/143/143
f 139/139/139 138/138/138 140/140/140
f 137/137/137 138/138/138 139/139/139
f 135/135/135 134/134/134 136/136/136
f 133/133/133 134/134/134 135/135/135
f 131/131/131 130/130/130 132/132/132
f 129/129/129 130/130/130 131/131/131
f 127/127/127 126/126/126 128/128/128
f 125/125/125 126/126/126 127/127/127
f 119/119/119 118/118/118 120/120/120
f 117/117/117 118/118/118 119/119/119
f 115/115/115 114/114/114 116/116/116
f 113/113/113 114/114/114 115/115/115
f 111/111/111 110/110/110 112/112/112
f 109/109/109 110/110/110 111/111/111
f 107/107/107 106/106/106 108/108/108
f 105/105/105 106/106/106 107/107/107
f 103/103/103 102/102/102 104/104/104
f 101/101/101 102/102/102 103/103/103
f 91/91/91 90/90/90 92/92/92
f 89/89/89 90/90/90 91/91/91
f 87/87/87 86/86/86 88/88/88
f 85/85/85 86/86/86 87/87/87
f 83/83/83 82/82/82 84/84/84
f 81/81/81 82/82/82 83/83/83
f 79/79/79 78/78/78 80/80/80
f 77/77/77 78/78/78 79/79/79
f 75/75/75 74/74/74 76/76/76
f 73/73/73 74/74/74 75/75/75
f 71/71/71 70/70/70 72/72/72
f 69/69/69 70/70/70 71/71/71
f 67/67/67 66/66/66 68/68/68
f 65/65/65 66/66/66 67/67/67
f 63/63/63 62/62/62 64/64/64
f 61/61/61 62/62/62 63/63/63
f 51/51/51 50/50/50 52/52/52
f 49/49/49 50/50/50 51/51/51
f 47/47/47 46/46/46 48/48/48
f 45/45/45 46/46/46 47/47/47
f 43/43/43 42/42/42 44/44/44
f 41/41/41 42/42/42 43/43/43
f 39/39/39 38/38/38 40/40/40
f 37/37/37 38/38/38 39/39/39
f 27/27/27 28/28/28 23/23/23
f 23/23/23 28/28/28 24/24/24
f 23/23/23 24/24/24 25/25/25
f 26/26/26 22/22/22 12/12/12
f 12/12/12 22/22/22 14/14/14
f 13/13/13 12/12/12 14/14/14
f 11/11/11 12/12/12 13/13/13
f 6/6/6 5/5/5 21/21/21
f 5/5/5 6/6/6 7/7/7
f 19/19/19 18/18/18 20/20/20
f 17/17/17 18/18/18 19/19/19
f 15/15/15 10/10/10 16/16/16
f 16/16/16 10/10/10 9/9/9
f 8/8/8 9/9/9 10/10/10
f 3/3/3 2/2/2 4/4/4
f 1/1/1 2/2/2 3/3/3

