#
# OBJECT NAME
#
o model_3365
mtllib 3365.mtl

#
# VERTEX BUFFER 000
#
v -0.31282 1.74118 -0.281433
v -0.31282 1.64772 -0.374889
v 0.31282 1.74118 -0.281433
v 0.31282 1.64772 -0.374889
v -0.31282 1.83463 -0.374889
v -0.31282 1.74118 -0.281433
v 0.31282 1.83463 -0.374889
v 0.31282 1.74118 -0.281433
v -0.31282 1.74118 -0.468346
v -0.31282 1.83463 -0.374889
v 0.31282 1.74118 -0.468346
v 0.31282 1.83463 -0.374889
v -0.31282 1.64772 -0.374889
v -0.31282 1.74118 -0.468346
v 0.31282 1.64772 -0.374889
v 0.31282 1.74118 -0.468346
v -0.191866 1.61607 -0.374889
v -0.0996094 1.61607 -0.374889
v -0.191866 1.74118 -0.249779
v -0.0996094 1.74118 -0.249779
v -0.191866 1.74118 -0.249779
v -0.0996094 1.74118 -0.249779
v -0.191866 1.86629 -0.374889
v -0.0996094 1.86629 -0.374889
v -0.191866 1.86629 -0.374889
v -0.0996094 1.86629 -0.374889
v -0.191866 1.74118 -0.5
v -0.0996094 1.74118 -0.5
v -0.191866 1.74118 -0.5
v -0.0996094 1.74118 -0.5
v -0.191866 1.61607 -0.374889
v -0.0996094 1.61607 -0.374889
v -0.0996094 1.86629 -0.374889
v -0.0996094 1.74118 -0.249779
v -0.0996094 1.74118 -0.5
v -0.0996094 1.61607 -0.374889
v -0.191866 1.86629 -0.374889
v -0.191866 1.74118 -0.5
v -0.191866 1.74118 -0.249779
v -0.191866 1.61607 -0.374889
v -0.47117 1.74334 -0.258949
v -0.307835 1.74334 -0.258949
v -0.47117 1.85712 -0.354019
v -0.307835 1.85712 -0.354019
v -0.47117 1.85712 -0.490833
v -0.307835 1.85712 -0.490833
v -0.47117 1.85712 -0.490833
v -0.307835 1.85712 -0.490833
v -0.47117 1.62523 -0.490833
v -0.307835 1.62523 -0.490833
v -0.47117 1.62523 -0.490833
v -0.307835 1.62523 -0.490833
v -0.47117 1.62523 -0.258949
v -0.307835 1.62523 -0.258949
v -0.307835 1.62523 -0.258949
v -0.307835 1.62523 -0.490833
v -0.307835 1.74334 -0.258949
v -0.307835 1.85712 -0.354019
v -0.307835 1.85712 -0.490833
v -0.47117 1.85712 -0.354019
v -0.47117 1.85712 -0.490833
v -0.47117 1.62523 -0.490833
v -0.47117 1.62523 -0.258949
v -0.47117 1.74334 -0.258949
v -0.47117 1.62523 -0.258949
v -0.307835 1.62523 -0.258949
v 0.191866 1.61607 -0.374889
v 0.191866 1.74118 -0.249779
v 0.0996094 1.61607 -0.374889
v 0.0996094 1.74118 -0.249779
v 0.191866 1.74118 -0.249779
v 0.191866 1.86629 -0.374889
v 0.0996094 1.74118 -0.249779
v 0.0996094 1.86629 -0.374889
v 0.191866 1.86629 -0.374889
v 0.191866 1.74118 -0.5
v 0.0996094 1.86629 -0.374889
v 0.0996094 1.74118 -0.5
v 0.191866 1.74118 -0.5
v 0.191866 1.61607 -0.374889
v 0.0996094 1.74118 -0.5
v 0.0996094 1.61607 -0.374889
v 0.0996094 1.86629 -0.374889
v 0.0996094 1.74118 -0.5
v 0.0996094 1.74118 -0.249779
v 0.0996094 1.61607 -0.374889
v 0.191866 1.86629 -0.374889
v 0.191866 1.74118 -0.249779
v 0.191866 1.74118 -0.5
v 0.191866 1.61607 -0.374889
v 0.47117 1.74334 -0.258949
v 0.47117 1.85712 -0.354019
v 0.307835 1.74334 -0.258949
v 0.307835 1.85712 -0.354019
v 0.47117 1.85712 -0.490833
v 0.307835 1.85712 -0.490833
v 0.47117 1.85712 -0.490833
v 0.47117 1.62523 -0.490833
v 0.307835 1.85712 -0.490833
v 0.307835 1.62523 -0.490833
v 0.47117 1.62523 -0.490833
v 0.47117 1.62523 -0.258949
v 0.307835 1.62523 -0.490833
v 0.307835 1.62523 -0.258949
v 0.307835 1.62523 -0.258949
v 0.307835 1.74334 -0.258949
v 0.307835 1.62523 -0.490833
v 0.307835 1.85712 -0.354019
v 0.307835 1.85712 -0.490833
v 0.47117 1.74334 -0.258949
v 0.47117 1.62523 -0.490833
v 0.47117 1.85712 -0.354019
v 0.47117 1.62523 -0.258949
v 0.307835 1.62523 -0.258949
v 0.47117 1.62523 -0.258949
v 0.47117 1.85712 -0.490833

vn 0 -0.707031 0.707031
vn 0 -0.707031 0.707031
vn 0 -0.707031 0.707031
vn 0 -0.707031 0.707031
vn 0 0.707031 0.707031
vn 0 0.707031 0.707031
vn 0 0.707031 0.707031
vn 0 0.707031 0.707031
vn 0 0.707031 -0.707031
vn 0 0.707031 -0.707031
vn 0 0.707031 -0.707031
vn 0 0.707031 -0.707031
vn 0 -0.707031 -0.707031
vn 0 -0.707031 -0.707031
vn 0 -0.707031 -0.707031
vn 0 -0.707031 -0.707031
vn 0 -0.707031 0.707031
vn 0 -0.707031 0.707031
vn 0 -0.707031 0.707031
vn 0 -0.707031 0.707031
vn 0 0.707031 0.707031
vn 0 0.707031 0.707031
vn 0 0.707031 0.707031
vn 0 0.707031 0.707031
vn 0 0.707031 -0.707031
vn 0 0.707031 -0.707031
vn 0 0.707031 -0.707031
vn 0 0.707031 -0.707031
vn 0 -0.707031 -0.707031
vn 0 -0.707031 -0.707031
vn 0 -0.707031 -0.707031
vn 0 -0.707031 -0.707031
vn 1 0 0
vn 1 0 0
vn 1 0 0
vn 1 0 0
vn -1 0 0
vn -1 0 0
vn -1 0 0
vn -1 0 0
vn 0 0.37915 0.924805
vn 0 0.37915 0.924805
vn 0 0.897461 0.44043
vn 0 0.897461 0.44043
vn 0 1 0
vn 0 1 0
vn 0 0 -1
vn 0 0 -1
vn 0 0 -1
vn 0 0 -1
vn 0 -1 0
vn 0 -1 0
vn 0 -1 0
vn 0 -1 0
vn 1 0 0
vn 1 0 0
vn 1 0 0
vn 1 0 0
vn 1 0 0
vn -1 0 0
vn -1 0 0
vn -1 0 0
vn -1 0 0
vn -1 0 0
vn 0 0 1
vn 0 0 1
vn 0 -0.707031 0.707031
vn 0 -0.707031 0.707031
vn 0 -0.707031 0.707031
vn 0 -0.707031 0.707031
vn 0 0.707031 0.707031
vn 0 0.707031 0.707031
vn 0 0.707031 0.707031
vn 0 0.707031 0.707031
vn 0 0.707031 -0.707031
vn 0 0.707031 -0.707031
vn 0 0.707031 -0.707031
vn 0 0.707031 -0.707031
vn 0 -0.707031 -0.707031
vn 0 -0.707031 -0.707031
vn 0 -0.707031 -0.707031
vn 0 -0.707031 -0.707031
vn -1 0 0
vn -1 0 0
vn -1 0 0
vn -1 0 0
vn 1 0 0
vn 1 0 0
vn 1 0 0
vn 1 0 0
vn 0 0.37915 0.924805
vn 0 0.897461 0.44043
vn 0 0.37915 0.924805
vn 0 0.897461 0.44043
vn 0 1 0
vn 0 1 0
vn 0 0 -1
vn 0 0 -1
vn 0 0 -1
vn 0 0 -1
vn 0 -1 0
vn 0 -1 0
vn 0 -1 0
vn 0 -1 0
vn -1 0 0
vn -1 0 0
vn -1 0 0
vn -1 0 0
vn -1 0 0
vn 1 0 0
vn 1 0 0
vn 1 0 0
vn 0 0 1
vn 0 0 1
vn 1 0 0
vn 1 0 0

vt 0.158218 0.0718507
vt 0.158218 0.010556
vt 0.228622 0.0718507
vt 0.228622 0.010556
vt 0.158218 0.0133089
vt 0.158218 0.0722048
vt 0.228622 0.0133089
vt 0.228622 0.0722048
vt 0.158218 0.0718507
vt 0.158218 0.010556
vt 0.228622 0.0718507
vt 0.228622 0.010556
vt 0.158218 0.0133089
vt 0.158218 0.0722048
vt 0.228622 0.0133089
vt 0.228622 0.0722048
vt 0.122296 0.0872549
vt 0.122296 0.0239452
vt 0.150226 0.0872549
vt 0.150226 0.0239452
vt 0.0827795 0.0872549
vt 0.0827795 0.0239452
vt 0.113309 0.0872549
vt 0.113309 0.0239452
vt 0.0827795 0.0872549
vt 0.0827795 0.0239452
vt 0.113309 0.0872549
vt 0.113309 0.0239452
vt 0.122296 0.0872549
vt 0.122296 0.0239452
vt 0.150226 0.0872549
vt 0.150226 0.0239452
vt 0.0378939 0.175511
vt 0.037894 0.023797
vt 0.0732324 0.175512
vt 0.0732321 0.0237968
vt 0.0378939 0.175511
vt 0.037894 0.023797
vt 0.0732324 0.175512
vt 0.0732321 0.0237968
vt 0.344016 0.0259401
vt 0.344016 0.119609
vt 0.323703 0.0259397
vt 0.323703 0.119609
vt 0.30496 0.0259397
vt 0.30496 0.119609
vt 0.365146 0.11961
vt 0.365146 0.0259401
vt 0.396914 0.119609
vt 0.396914 0.0259401
vt 0.396914 0.0259401
vt 0.396914 0.119609
vt 0.365146 0.0259401
vt 0.365146 0.11961
vt 0.403777 0.131145
vt 0.403777 0.0180995
vt 0.417532 0.131145
vt 0.430782 0.0847967
vt 0.430782 0.0180995
vt 0.464237 0.0643479
vt 0.464237 0.130757
vt 0.437232 0.130757
vt 0.437232 0.0171441
vt 0.450987 0.0176404
vt 0.360196 0.0259401
vt 0.360196 0.11961
vt 0.122296 0.0239452
vt 0.150226 0.0239452
vt 0.122296 0.0872549
vt 0.150226 0.0872549
vt 0.0827795 0.0239452
vt 0.113309 0.0239452
vt 0.0827795 0.0872549
vt 0.113309 0.0872549
vt 0.122296 0.0239452
vt 0.150226 0.0239452
vt 0.122296 0.0872549
vt 0.150226 0.0872549
vt 0.0827795 0.0239452
vt 0.113309 0.0239452
vt 0.0827795 0.0872549
vt 0.113309 0.0872549
vt 0.0378939 0.175511
vt 0.037894 0.023797
vt 0.0732324 0.175512
vt 0.0732321 0.0237968
vt 0.0378939 0.175511
vt 0.037894 0.023797
vt 0.0732324 0.175512
vt 0.0732321 0.0237968
vt 0.344016 0.119609
vt 0.323703 0.119609
vt 0.344016 0.0259401
vt 0.323703 0.0259397
vt 0.30496 0.119609
vt 0.30496 0.0259397
vt 0.365146 0.0259401
vt 0.396914 0.0259401
vt 0.365146 0.11961
vt 0.396914 0.119609
vt 0.396914 0.119609
vt 0.365146 0.11961
vt 0.396914 0.0259401
vt 0.365146 0.0259401
vt 0.437232 0.0171441
vt 0.450987 0.0176404
vt 0.437232 0.130757
vt 0.464237 0.0643479
vt 0.464237 0.130757
vt 0.417532 0.131145
vt 0.403777 0.0180995
vt 0.430782 0.0847967
vt 0.360196 0.11961
vt 0.360196 0.0259401
vt 0.403777 0.131145
vt 0.430782 0.0180995


#
# VERTEX BUFFER 001
#
v -0.420565 1.71296 -0.394165
v 0 1.71296 -0.394165
v -0.420565 0.239005 -0.394165
v -0.399186 0.221635 -0.394165
v 0 0.509438 -0.394165
v 0.420567 1.71296 -0.394165
v 0.420567 0.239005 -0.394165
v 0 1.71296 -0.394165
v 0.399186 0.221635 -0.394165
v 0 0.509438 -0.394165
v 0.420567 1.71296 -0.394165
v 0.420567 1.71296 -0.355614
v 0.420567 0.239005 -0.394165
v 0.420567 0.239005 -0.355614
v -0.420565 1.71296 -0.355614
v -0.420565 1.71296 -0.394165
v -0.420565 0.239004 -0.355614
v -0.420565 0.239005 -0.394165
v 0 1.71296 -0.355614
v -0.420565 1.71296 -0.355614
v 0 0.509438 -0.355614
v -0.399186 0.221635 -0.355614
v -0.420565 0.239004 -0.355614
v -0.399186 0.221635 -0.355614
v -0.399186 0.221635 -0.394165
v 0 0.509438 -0.355614
v 0 0.509438 -0.394165
v -0.399186 0.221635 -0.355614
v -0.399186 0.221635 -0.394165
v 0.420567 1.71296 -0.355614
v 0 1.71296 -0.355614
v 0.420567 0.239005 -0.355614
v 0.399186 0.221635 -0.355614
v 0 0.509438 -0.355614
v 0.399186 0.221635 -0.394165
v 0.399186 0.221635 -0.355614
v 0 0.509438 -0.394165
v 0 0.509438 -0.355614
v 0.399186 0.221635 -0.394165
v 0.399186 0.221635 -0.355614

vn 0 0 -1
vn 0 0 -1
vn 0 0 -1
vn 0 0 -1
vn 0 0 -1
vn 0 0 -1
vn 0 0 -1
vn 0 0 -1
vn 0 0 -1
vn 0 0 -1
vn 1 0 0
vn 1 0 0
vn 0.999512 -0.014328 0
vn 0.999512 -0.014328 0
vn -1 0 0
vn -1 0 0
vn -0.999512 -0.014328 0
vn -0.999512 -0.014328 0
vn 0 0 1
vn 0 0 1
vn 0 0 1
vn 0 0 1
vn 0 0 1
vn 0.584473 -0.811035 0
vn 0.584473 -0.811035 0
vn 0.584473 -0.811035 0
vn 0.584473 -0.811035 0
vn -0.630371 -0.775879 -2.14577e-006
vn -0.630371 -0.775879 -2.14577e-006
vn 0 0 1
vn 0 0 1
vn 0 0 1
vn 0 0 1
vn 0 0 1
vn -0.584473 -0.811035 -7.7486e-007
vn -0.584473 -0.811035 -7.7486e-007
vn -0.584473 -0.811035 -7.7486e-007
vn -0.584473 -0.811035 -7.7486e-007
vn 0.630371 -0.775879 -4.17233e-007
vn 0.630371 -0.775879 -4.17233e-007

vt 0.878223 0.98876
vt 0.93217 0.98876
vt 0.878223 0.177085
vt 0.880967 0.167521
vt 0.932171 0.325782
vt 0.878223 0.98876
vt 0.878223 0.177107
vt 0.93217 0.98876
vt 0.880964 0.167512
vt 0.932171 0.325782
vt 0.672765 0.0253438
vt 0.672765 0.04763
vt 0.483037 0.025344
vt 0.483037 0.0476301
vt 0.672765 0.0253438
vt 0.672765 0.04763
vt 0.483037 0.025344
vt 0.483037 0.0476301
vt 0.940931 0.98876
vt 0.997073 0.98876
vt 0.940923 0.316675
vt 0.99422 0.159618
vt 0.997073 0.169417
vt 0.240598 0.0689294
vt 0.240598 0.0515951
vt 0.294855 0.0689293
vt 0.294854 0.0515951
vt 0.478829 0.025344
vt 0.478815 0.0476301
vt 0.997073 0.98876
vt 0.940931 0.98876
vt 0.997073 0.169414
vt 0.99422 0.159584
vt 0.940923 0.316675
vt 0.294974 0.0957904
vt 0.294974 0.113123
vt 0.240717 0.0957904
vt 0.240718 0.113123
vt 0.478829 0.025344
vt 0.478815 0.0476301


#
# MESH 000
#
g surface_000
usemtl surface_000
f 112/112/112 111/111/111 116/116/116
f 110/110/110 111/111/111 112/112/112
f 115/115/115 111/111/111 110/110/110
f 113/113/113 91/91/91 114/114/114
f 114/114/114 91/91/91 93/93/93
f 91/91/91 92/92/92 93/93/93
f 93/93/93 92/92/92 94/94/94
f 92/92/92 95/95/95 94/94/94
f 94/94/94 95/95/95 96/96/96
f 108/108/108 109/109/109 107/107/107
f 106/106/106 108/108/108 107/107/107
f 105/105/105 106/106/106 107/107/107
f 103/103/103 102/102/102 104/104/104
f 101/101/101 102/102/102 103/103/103
f 99/99/99 98/98/98 100/100/100
f 97/97/97 98/98/98 99/99/99
f 89/89/89 88/88/88 90/90/90
f 87/87/87 88/88/88 89/89/89
f 85/85/85 84/84/84 86/86/86
f 83/83/83 84/84/84 85/85/85
f 81/81/81 80/80/80 82/82/82
f 79/79/79 80/80/80 81/81/81
f 77/77/77 76/76/76 78/78/78
f 75/75/75 76/76/76 77/77/77
f 73/73/73 72/72/72 74/74/74
f 71/71/71 72/72/72 73/73/73
f 69/69/69 68/68/68 70/70/70
f 67/67/67 68/68/68 69/69/69
f 65/65/65 66/66/66 41/41/41
f 41/41/41 66/66/66 42/42/42
f 41/41/41 42/42/42 43/43/43
f 43/43/43 42/42/42 44/44/44
f 43/43/43 44/44/44 45/45/45
f 45/45/45 44/44/44 46/46/46
f 62/62/62 63/63/63 64/64/64
f 62/62/62 64/64/64 60/60/60
f 60/60/60 61/61/61 62/62/62
f 56/56/56 59/59/59 58/58/58
f 57/57/57 56/56/56 58/58/58
f 55/55/55 56/56/56 57/57/57
f 53/53/53 52/52/52 54/54/54
f 51/51/51 52/52/52 53/53/53
f 49/49/49 48/48/48 50/50/50
f 47/47/47 48/48/48 49/49/49
f 39/39/39 38/38/38 40/40/40
f 37/37/37 38/38/38 39/39/39
f 35/35/35 34/34/34 36/36/36
f 33/33/33 34/34/34 35/35/35
f 31/31/31 30/30/30 32/32/32
f 29/29/29 30/30/30 31/31/31
f 27/27/27 26/26/26 28/28/28
f 25/25/25 26/26/26 27/27/27
f 23/23/23 22/22/22 24/24/24
f 21/21/21 22/22/22 23/23/23
f 19/19/19 18/18/18 20/20/20
f 17/17/17 18/18/18 19/19/19
f 15/15/15 14/14/14 16/16/16
f 13/13/13 14/14/14 15/15/15
f 11/11/11 10/10/10 12/12/12
f 9/9/9 10/10/10 11/11/11
f 7/7/7 6/6/6 8/8/8
f 5/5/5 6/6/6 7/7/7
f 3/3/3 2/2/2 4/4/4
f 1/1/1 2/2/2 3/3/3

#
# MESH 001
#
g surface_001
usemtl surface_001
f 155/155/155 130/130/130 156/156/156
f 129/129/129 130/130/130 155/155/155
f 129/129/129 128/128/128 130/130/130
f 127/127/127 128/128/128 129/129/129
f 153/153/153 152/152/152 154/154/154
f 151/151/151 152/152/152 153/153/153
f 149/149/149 148/148/148 150/150/150
f 148/148/148 147/147/147 150/150/150
f 146/146/146 147/147/147 148/148/148
f 144/144/144 134/134/134 145/145/145
f 133/133/133 134/134/134 144/144/144
f 133/133/133 132/132/132 134/134/134
f 131/131/131 132/132/132 133/133/133
f 142/142/142 141/141/141 143/143/143
f 140/140/140 141/141/141 142/142/142
f 138/138/138 137/137/137 139/139/139
f 139/139/139 137/137/137 136/136/136
f 135/135/135 136/136/136 137/137/137
f 125/125/125 126/126/126 123/123/123
f 123/123/123 126/126/126 124/124/124
f 122/122/122 123/123/123 124/124/124
f 120/120/120 119/119/119 121/121/121
f 118/118/118 121/121/121 119/119/119
f 117/117/117 118/118/118 119/119/119

