#
# OBJECT NAME
#
o model_4531
mtllib 4531.mtl

#
# VERTEX BUFFER 000
#
v -0.499999 0 0.499981
v 0.499995 0 0.499981
v -0.499999 0.236186 0.499981
v 0.499995 0.236186 0.499981
v 0.499995 9.53674e-006 -0.50001
v 0.499995 0 0.499981
v -0.499999 9.53674e-006 -0.50001
v -0.499999 0 0.499981
v -0.499999 0.329981 0.499981
v 0.499995 0.329981 0.499981
v -0.499999 0.329981 0.169996
v 0.499995 0.329981 0.169996
v -0.499999 0.329981 0.169996
v 0.499995 0.329981 0.169996
v -0.499999 0.570901 0.169996
v 0.499995 0.570901 0.169996
v -0.499999 0.664986 0.169996
v 0.499995 0.664986 0.169996
v -0.499999 0.664986 -0.165008
v 0.499995 0.664986 -0.165008
v -0.499999 0.664986 -0.165008
v 0.499995 0.664986 -0.165008
v -0.499999 0.90625 -0.165003
v 0.499995 0.90625 -0.165003
v -0.499999 1 -0.165006
v 0.499995 1 -0.165006
v -0.499999 1.00001 -0.50001
v 0.499995 1.00001 -0.50001
v 0.499995 0.906256 -0.50001
v 0.499995 9.53674e-006 -0.50001
v -0.499999 0.906256 -0.50001
v -0.499999 9.53674e-006 -0.50001
v -0.499999 0.664986 0.169996
v -0.499999 0.570901 0.169996
v 0.499995 0.664986 0.169996
v 0.499995 0.570901 0.169996
v -0.499999 0.664986 -0.165008
v -0.499999 0.570901 -0.165001
v -0.499999 0.664986 0.169996
v -0.499999 0.570901 0.169996
v 0.499995 0.664986 0.169996
v 0.499995 0.570901 0.169996
v 0.499995 0.664986 -0.165008
v 0.499995 0.570901 -0.165001
v -0.499999 1 -0.165006
v -0.499999 0.90625 -0.165003
v 0.499995 1 -0.165006
v 0.499995 0.90625 -0.165003
v -0.499999 1.00001 -0.50001
v -0.499999 0.906256 -0.50001
v -0.499999 1 -0.165006
v -0.499999 0.90625 -0.165003
v 0.499995 1.00001 -0.50001
v 0.499995 0.906256 -0.50001
v -0.499999 1.00001 -0.50001
v -0.499999 0.906256 -0.50001
v 0.499995 1 -0.165006
v 0.499995 0.90625 -0.165003
v 0.499995 1.00001 -0.50001
v 0.499995 0.906256 -0.50001
v -0.499999 0.329981 0.499981
v -0.499999 0.236186 0.499981
v 0.499995 0.329981 0.499981
v 0.499995 0.236186 0.499981
v -0.499999 0.329981 0.169996
v -0.499999 0.236187 0.170004
v -0.499999 0.329981 0.499981
v -0.499999 0.236186 0.499981
v 0.499995 0.329981 0.499981
v 0.499995 0.236186 0.499981
v 0.499995 0.329981 0.169996
v 0.499995 0.236187 0.170004
v -0.499999 0.570901 -0.165001
v -0.499999 0.329981 0.169996
v -0.499999 0.570901 0.169996
v -0.499999 0.90625 -0.165003
v -0.499999 0.664986 -0.165008
v -0.499999 0.236187 0.170004
v -0.499999 0 0.499981
v -0.499999 0.236186 0.499981
v -0.499999 9.53674e-006 -0.50001
v -0.499999 0.90625 -0.165003
v -0.499999 0.906256 -0.50001
v 0.499995 0.90625 -0.165003
v 0.499995 9.53674e-006 -0.50001
v 0.499995 0.906256 -0.50001
v 0.499995 0.570901 -0.165001
v 0.499995 0.664986 -0.165008
v 0.499995 0.570901 -0.165001
v 0.499995 0.329981 0.169996
v 0.499995 0.236187 0.170004
v 0.499995 0.570901 0.169996
v 0.499995 0 0.499981
v 0.499995 0.236186 0.499981

vn 0 0 1
vn 0 0 1
vn 0 0 1
vn 0 0 1
vn 0 -1 -9.53674e-006
vn 0 -1 0
vn 0 -1 0
vn 0 -1 0
vn 0 1 0
vn 0 1 0
vn 0 1 0
vn 0 1 0
vn 0 0 1
vn 0 0 1
vn 0 0 1
vn 0 0 1
vn 0 1 0
vn 0 1 0
vn 0 1 0
vn 0 1 0
vn 0 0 1
vn 0 0 1
vn 0 0 1
vn 0 0 1
vn 0 1 0
vn 0 1 0
vn 0 1 0
vn 0 1 0
vn 0 0 -1
vn 0 0 -1
vn 0 0 -1
vn 0 0 -1
vn 0 0 1
vn 0 0 1
vn 0 0 1
vn 0 0 1
vn -1 0 0
vn -1 0 0
vn -1 0 0
vn -1 0 0
vn 1 0 0
vn 1 0 0
vn 1 0 0
vn 1 0 0
vn 0 0 1
vn 0 0 1
vn 0 0 1
vn 0 0 1
vn -1 0 0
vn -1 0 0
vn -1 0 0
vn -1 0 0
vn 0 0 -1
vn 0 0 -1
vn 0 0 -1
vn 0 0 -1
vn 1 0 0
vn 1 0 0
vn 1 0 0
vn 1 0 0
vn 0 0 1
vn 0 0 1
vn 0 0 1
vn 0 0 1
vn -1 0 0
vn -1 0 0
vn -1 0 0
vn -1 0 0
vn 1 0 0
vn 1 0 0
vn 1 0 0
vn 1 0 0
vn -1 0 0
vn -1 0 0
vn -1 0 0
vn -1 0 0
vn -1 0 0
vn -1 0 0
vn -1 0 0
vn -1 0 0
vn -1 0 0
vn -1 0 0
vn -1 0 0
vn 1 0 0
vn 1 0 0
vn 1 0 0
vn 1 0 0
vn 1 0 0
vn 1 0 0
vn 1 0 0
vn 1 0 0
vn 1 0 0
vn 1 0 0
vn 1 0 0

vt 0.522742 0.00915235
vt 0.977285 0.00915235
vt 0.522742 0.0765893
vt 0.977285 0.0765893
vt 0.0280539 0.971964
vt 0.0280539 0.528037
vt 0.471981 0.971964
vt 0.471981 0.528037
vt 0.522742 0.133738
vt 0.977285 0.133738
vt 0.522742 0.241637
vt 0.977285 0.241637
vt 0.522742 0.259152
vt 0.977285 0.259152
vt 0.522742 0.326589
vt 0.977285 0.326589
vt 0.522742 0.383933
vt 0.977285 0.383933
vt 0.522742 0.491832
vt 0.977285 0.491832
vt 0.522742 0.508738
vt 0.977285 0.508738
vt 0.522742 0.576175
vt 0.977285 0.576175
vt 0.522742 0.882909
vt 0.977285 0.882909
vt 0.522742 0.990808
vt 0.977285 0.990808
vt -0.971946 0.927829
vt -0.971946 0.528037
vt -0.528019 0.927829
vt -0.528019 0.528037
vt 0.522742 0.375146
vt 0.522742 0.334684
vt 0.977285 0.375146
vt 0.977285 0.334684
vt 0.14128 0.280607
vt 0.14128 0.239089
vt 0.0302979 0.280607
vt 0.0302979 0.239089
vt 0.0302979 0.280607
vt 0.0302979 0.239089
vt 0.14128 0.280607
vt 0.14128 0.239089
vt 0.522742 0.874317
vt 0.522742 0.833855
vt 0.977285 0.874317
vt 0.977285 0.833855
vt 0.14128 0.423842
vt 0.14128 0.382324
vt 0.0302979 0.423842
vt 0.0302979 0.382324
vt -0.477258 0.874317
vt -0.477258 0.833855
vt -0.0227152 0.874317
vt -0.0227152 0.833855
vt 0.0302979 0.423842
vt 0.0302979 0.382324
vt 0.14128 0.423842
vt 0.14128 0.382324
vt 0.522742 0.125146
vt 0.522742 0.0846836
vt 0.977285 0.125146
vt 0.977285 0.0846836
vt 0.14128 0.353779
vt 0.14128 0.312261
vt 0.0302979 0.353779
vt 0.0302979 0.312261
vt 0.0302979 0.353779
vt 0.0302979 0.312261
vt 0.14128 0.353779
vt 0.14128 0.312261
vt 0.25004 0.208373
vt 0.139058 0.13901
vt 0.139058 0.208373
vt 0.25004 0.30052
vt 0.25004 0.236284
vt 0.139058 0.0973916
vt 0.0280766 0.028028
vt 0.0280766 0.0973916
vt 0.472004 0.028028
vt 0.25004 0.30052
vt 0.472004 0.30052
vt 0.25004 0.30052
vt 0.472004 0.028028
vt 0.472004 0.30052
vt 0.25004 0.208373
vt 0.25004 0.236284
vt 0.25004 0.208373
vt 0.139058 0.13901
vt 0.139058 0.0973916
vt 0.139058 0.208373
vt 0.0280766 0.028028
vt 0.0280766 0.0973916


#
# MESH 000
#
g surface_000
usemtl surface_000
f 87/87/87 84/84/84 88/88/88
f 76/76/76 73/73/73 77/77/77
f 93/93/93 91/91/91 94/94/94
f 85/85/85 91/91/91 93/93/93
f 89/89/89 91/91/91 85/85/85
f 89/89/89 90/90/90 91/91/91
f 89/89/89 92/92/92 90/90/90
f 89/89/89 85/85/85 84/84/84
f 84/84/84 85/85/85 86/86/86
f 81/81/81 82/82/82 83/83/83
f 81/81/81 73/73/73 82/82/82
f 81/81/81 78/78/78 73/73/73
f 73/73/73 78/78/78 74/74/74
f 73/73/73 74/74/74 75/75/75
f 81/81/81 79/79/79 78/78/78
f 78/78/78 79/79/79 80/80/80
f 71/71/71 70/70/70 72/72/72
f 69/69/69 70/70/70 71/71/71
f 67/67/67 66/66/66 68/68/68
f 65/65/65 66/66/66 67/67/67
f 63/63/63 62/62/62 64/64/64
f 61/61/61 62/62/62 63/63/63
f 59/59/59 58/58/58 60/60/60
f 57/57/57 58/58/58 59/59/59
f 55/55/55 54/54/54 56/56/56
f 53/53/53 54/54/54 55/55/55
f 51/51/51 50/50/50 52/52/52
f 49/49/49 50/50/50 51/51/51
f 47/47/47 46/46/46 48/48/48
f 45/45/45 46/46/46 47/47/47
f 43/43/43 42/42/42 44/44/44
f 41/41/41 42/42/42 43/43/43
f 39/39/39 38/38/38 40/40/40
f 37/37/37 38/38/38 39/39/39
f 35/35/35 34/34/34 36/36/36
f 33/33/33 34/34/34 35/35/35
f 31/31/31 30/30/30 32/32/32
f 29/29/29 30/30/30 31/31/31
f 27/27/27 26/26/26 28/28/28
f 25/25/25 26/26/26 27/27/27
f 23/23/23 22/22/22 24/24/24
f 21/21/21 22/22/22 23/23/23
f 19/19/19 18/18/18 20/20/20
f 17/17/17 18/18/18 19/19/19
f 15/15/15 14/14/14 16/16/16
f 13/13/13 14/14/14 15/15/15
f 11/11/11 10/10/10 12/12/12
f 9/9/9 10/10/10 11/11/11
f 7/7/7 6/6/6 8/8/8
f 5/5/5 6/6/6 7/7/7
f 3/3/3 2/2/2 4/4/4
f 1/1/1 2/2/2 3/3/3

