#
# OBJECT NAME
#
o model_2803
mtllib 2803.mtl

#
# VERTEX BUFFER 000
#
v -0.0464274 0.683418 -0.59336
v 0.0478722 0.683418 -0.59336
v 0.0682893 0.642656 -0.614248
v -0.0586907 0.642656 -0.614248
v -0.0617934 0.642656 -0.215949
v -0.0617934 0.642656 0.0109094
v -0.0464274 0.683418 -0.0071069
v -0.0464274 0.683418 -0.233965
v -0.0586907 0.642656 -0.614248
v -0.0586907 0.642656 -0.328102
v -0.0464274 0.683418 -0.315754
v -0.0464274 0.683418 -0.59336
v -0.224063 0.642656 -0.215949
v -0.203286 0.683418 -0.233965
v -0.203286 0.683418 -0.514112
v -0.224063 0.642656 -0.534999
v -0.224063 0.642656 -0.215949
v -0.0617934 0.642656 -0.215949
v -0.0464274 0.683418 -0.233965
v -0.203286 0.683418 -0.233965
v -0.130738 0.683418 -0.514112
v -0.106655 0.642656 -0.534999
v -0.224063 0.642656 -0.534999
v -0.203286 0.683418 -0.514112
v -0.106655 0.642656 -0.328102
v -0.130738 0.683418 -0.315754
v -0.0464274 0.683418 -0.315754
v -0.0586907 0.642656 -0.328102
v 0.0478722 0.683418 -0.233965
v 0.0478722 0.683418 -0.0071069
v 0.0682893 0.642656 0.0109094
v 0.0682893 0.642656 -0.215949
v 0.0682893 0.642656 -0.614248
v 0.0478722 0.683418 -0.59336
v 0.0478722 0.683418 -0.315754
v 0.0682893 0.642656 -0.328102
v 0.204212 0.683418 -0.233965
v 0.226561 0.642656 -0.215949
v 0.226727 0.642656 -0.534999
v 0.204212 0.683418 -0.514112
v 0.226561 0.642656 -0.215949
v 0.204212 0.683418 -0.233965
v 0.0478722 0.683418 -0.233965
v 0.0682893 0.642656 -0.215949
v 0.226727 0.642656 -0.534999
v 0.117199 0.642656 -0.534999
v 0.131664 0.683418 -0.514112
v 0.204212 0.683418 -0.514112
v 0.0478722 0.683418 -0.315754
v 0.131664 0.683418 -0.315754
v 0.117021 0.642656 -0.328102
v 0.0682893 0.642656 -0.328102
v -0.130738 0.683418 -0.315754
v -0.106655 0.642656 -0.328102
v -0.106655 0.642656 -0.534999
v -0.130738 0.683418 -0.514112
v 0.117021 0.642656 -0.328102
v 0.131664 0.683418 -0.315754
v 0.131664 0.683418 -0.514112
v 0.117199 0.642656 -0.534999
v 0.0478722 0.683418 -0.0071069
v -0.0464274 0.683418 -0.0071069
v -0.0617934 0.642656 0.0109094
v 0.0682893 0.642656 0.0109094
v 0.0478722 0.683418 -0.59336
v -0.0464274 0.683418 -0.59336
v -0.0464274 0.683418 -0.315754
v 0.0478722 0.683418 -0.315754
v -0.0464274 0.683418 -0.233965
v 0.0478722 0.683418 -0.233965
v 0.131664 0.683418 -0.315754
v 0.204212 0.683418 -0.233965
v 0.204212 0.683418 -0.514112
v 0.131664 0.683418 -0.514112
v -0.130738 0.683418 -0.315754
v -0.130738 0.683418 -0.514112
v -0.203286 0.683418 -0.514112
v -0.203286 0.683418 -0.233965
v 0.0478722 0.683418 -0.0071069
v -0.0464274 0.683418 -0.0071069
v -0.352288 -0.004554 0.991409
v 0.352288 -0.004554 0.991409
v 0.352288 0.126284 0.991409
v -0.352288 0.126284 0.991409
v -0.237658 0.64702 0.857887
v 0.240309 0.64702 0.857887
v 0.380204 0.64702 -0.401781
v -0.377377 0.64702 -0.401781
v -0.263042 0.636655 -1.01941
v 0.263042 0.636655 -1.01941
v 0.263042 0.564647 -1.01941
v -0.263042 0.564647 -1.01941
v -0.2466 -0.004554 -0.992482
v 0.2466 -0.004554 -0.992482
v 0.515568 -0.004554 -0.45306
v -0.515568 -0.004554 -0.45306
v 0.352288 -0.004554 0.991409
v 0.515568 -0.004554 -0.45306
v 0.515568 0.126284 -0.45306
v 0.352288 0.126284 0.991409
v -0.2466 -0.004554 -0.992482
v -0.515568 -0.004554 -0.45306
v -0.515568 0.126284 -0.45306
v -0.2466 0.126284 -0.992482
v 0.167286 0.64702 -0.854113
v -0.164521 0.64702 -0.854113
v 0.352288 -0.004554 0.991409
v -0.352288 -0.004554 0.991409
v 0.2466 -0.004554 -0.992482
v 0.2466 0.126284 -0.992482
v 0.515568 0.126284 -0.45306
v 0.515568 -0.004554 -0.45306
v -0.352288 -0.004554 0.991409
v -0.352288 0.126284 0.991409
v -0.515568 0.126284 -0.45306
v -0.515568 -0.004554 -0.45306
v 0.375776 0.636655 1.01797
v -0.375776 0.636655 1.01797
v -0.375776 0.564647 1.01797
v 0.375776 0.564647 1.01797
v 0.2466 -0.004554 -0.992482
v -0.2466 -0.004554 -0.992482
v -0.2466 0.126284 -0.992482
v 0.2466 0.126284 -0.992482
v 0.549942 0.636655 -0.465443
v 0.375776 0.636655 1.01797
v 0.375776 0.564647 1.01797
v 0.549942 0.564647 -0.465443
v -0.549942 0.636655 -0.465443
v -0.263042 0.636655 -1.01941
v -0.263042 0.564647 -1.01941
v -0.549942 0.564647 -0.465443
v 0.263042 0.636655 -1.01941
v 0.549942 0.636655 -0.465443
v 0.549942 0.564647 -0.465443
v 0.263042 0.564647 -1.01941
v -0.375776 0.636655 1.01797
v -0.549942 0.636655 -0.465443
v -0.549942 0.564647 -0.465443
v -0.375776 0.564647 1.01797
v 0.399238 0.47386 1.04805
v -0.399238 0.47386 1.04805
v -0.343878 0.459935 0.991605
v 0.343878 0.459935 0.991605
v 0.240713 0.459935 -0.985302
v -0.240713 0.459935 -0.985302
v -0.285849 0.47386 -1.0467
v 0.285849 0.47386 -1.0467
v 0.584278 0.47386 -0.471863
v 0.399238 0.47386 1.04805
v 0.343878 0.459935 0.991605
v 0.50326 0.459935 -0.447778
v -0.584278 0.47386 -0.471863
v -0.285849 0.47386 -1.0467
v -0.240713 0.459935 -0.985302
v -0.50326 0.459935 -0.447778
v 0.285849 0.47386 -1.0467
v 0.584278 0.47386 -0.471863
v 0.50326 0.459935 -0.447778
v 0.240713 0.459935 -0.985302
v -0.399238 0.47386 1.04805
v -0.584278 0.47386 -0.471863
v -0.50326 0.459935 -0.447778
v -0.343878 0.459935 0.991605
v 0.343878 0.459935 0.991605
v -0.343878 0.459935 0.991605
v -0.339046 0.141115 0.975605
v 0.339046 0.141115 0.975605
v 0.50326 0.459935 -0.447778
v 0.343878 0.459935 0.991605
v 0.339046 0.141115 0.975605
v 0.496188 0.141115 -0.443554
v -0.50326 0.459935 -0.447778
v -0.240713 0.459935 -0.985302
v -0.237331 0.141115 -0.973526
v -0.496188 0.141115 -0.443554
v 0.240713 0.459935 -0.985302
v 0.50326 0.459935 -0.447778
v 0.496188 0.141115 -0.443554
v 0.237331 0.141115 -0.973526
v -0.343878 0.459935 0.991605
v -0.50326 0.459935 -0.447778
v -0.496188 0.141115 -0.443554
v -0.339046 0.141115 0.975605
v -0.240713 0.459935 -0.985302
v 0.240713 0.459935 -0.985302
v 0.237331 0.141115 -0.973526
v -0.237331 0.141115 -0.973526
v 0.339046 0.141115 0.975605
v -0.339046 0.141115 0.975605
v -0.352288 0.126284 0.991409
v 0.352288 0.126284 0.991409
v 0.496188 0.141115 -0.443554
v 0.339046 0.141115 0.975605
v 0.352288 0.126284 0.991409
v 0.515568 0.126284 -0.45306
v -0.496188 0.141115 -0.443554
v -0.237331 0.141115 -0.973526
v -0.2466 0.126284 -0.992482
v -0.515568 0.126284 -0.45306
v 0.237331 0.141115 -0.973526
v 0.496188 0.141115 -0.443554
v 0.515568 0.126284 -0.45306
v 0.2466 0.126284 -0.992482
v -0.339046 0.141115 0.975605
v -0.496188 0.141115 -0.443554
v -0.515568 0.126284 -0.45306
v -0.352288 0.126284 0.991409
v -0.237331 0.141115 -0.973526
v 0.237331 0.141115 -0.973526
v 0.2466 0.126284 -0.992482
v -0.2466 0.126284 -0.992482
v -0.584278 0.47386 -0.471863
v -0.399238 0.47386 1.04805
v -0.399238 0.530347 1.04805
v -0.584278 0.530347 -0.471863
v 0.584278 0.47386 -0.471863
v 0.285849 0.47386 -1.0467
v 0.285849 0.530347 -1.0467
v 0.584278 0.530347 -0.471863
v -0.285849 0.47386 -1.0467
v -0.584278 0.47386 -0.471863
v -0.584278 0.530347 -0.471863
v -0.285849 0.530347 -1.0467
v 0.399238 0.47386 1.04805
v 0.584278 0.47386 -0.471863
v 0.584278 0.530347 -0.471863
v 0.399238 0.530347 1.04805
v 0.399238 0.530347 1.04805
v -0.399238 0.530347 1.04805
v -0.399238 0.47386 1.04805
v 0.399238 0.47386 1.04805
v -0.285849 0.530347 -1.0467
v 0.285849 0.530347 -1.0467
v 0.285849 0.47386 -1.0467
v -0.285849 0.47386 -1.0467
v 0.380204 0.64702 -0.401781
v 0.240309 0.64702 0.857887
v 0.240309 0.679703 0.857887
v 0.380204 0.679703 -0.401781
v 0.167286 0.64702 -0.854113
v 0.380204 0.64702 -0.401781
v 0.380204 0.679703 -0.401781
v 0.167286 0.679703 -0.854113
v -0.164521 0.64702 -0.854113
v 0.167286 0.64702 -0.854113
v 0.167286 0.679703 -0.854113
v -0.164521 0.679703 -0.854113
v -0.377377 0.64702 -0.401781
v -0.164521 0.64702 -0.854113
v -0.164521 0.679703 -0.854113
v -0.377377 0.679703 -0.401781
v -0.237658 0.64702 0.857887
v -0.377377 0.64702 -0.401781
v -0.377377 0.679703 -0.401781
v -0.237658 0.679703 0.857887
v 0.240309 0.64702 0.857887
v -0.237658 0.64702 0.857887
v -0.237658 0.679703 0.857887
v 0.240309 0.679703 0.857887
v 0.285849 0.530347 -1.0467
v -0.285849 0.530347 -1.0467
v -0.263042 0.564647 -1.01941
v 0.263042 0.564647 -1.01941
v -0.399238 0.530347 1.04805
v 0.399238 0.530347 1.04805
v 0.375776 0.564647 1.01797
v -0.375776 0.564647 1.01797
v 0.399238 0.530347 1.04805
v 0.584278 0.530347 -0.471863
v 0.549942 0.564647 -0.465443
v 0.375776 0.564647 1.01797
v -0.285849 0.530347 -1.0467
v -0.584278 0.530347 -0.471863
v -0.549942 0.564647 -0.465443
v -0.263042 0.564647 -1.01941
v 0.584278 0.530347 -0.471863
v 0.285849 0.530347 -1.0467
v 0.263042 0.564647 -1.01941
v 0.549942 0.564647 -0.465443
v -0.584278 0.530347 -0.471863
v -0.399238 0.530347 1.04805
v -0.375776 0.564647 1.01797
v -0.549942 0.564647 -0.465443
v -0.375776 0.636655 1.01797
v 0.375776 0.636655 1.01797
v 0.314355 0.64702 0.939278
v -0.31329 0.64702 0.939278
v 0.549942 0.636655 -0.465443
v 0.471393 0.64702 -0.431434
v 0.263042 0.636655 -1.01941
v 0.217529 0.64702 -0.940496
v -0.263042 0.636655 -1.01941
v -0.21641 0.64702 -0.940496
v -0.549942 0.636655 -0.465443
v -0.470273 0.64702 -0.431434
v -0.31329 0.679703 0.939278
v 0.314355 0.679703 0.939278
v 0.240309 0.679703 0.857887
v -0.237658 0.679703 0.857887
v 0.471393 0.679703 -0.431434
v 0.380204 0.679703 -0.401781
v 0.217529 0.679703 -0.940496
v 0.167286 0.679703 -0.854113
v -0.21641 0.679703 -0.940496
v -0.164521 0.679703 -0.854113
v -0.470273 0.679703 -0.431434
v -0.377377 0.679703 -0.401781
v -0.31329 0.64702 0.939278
v 0.314355 0.64702 0.939278
v 0.314355 0.679703 0.939278
v -0.31329 0.679703 0.939278
v 0.314355 0.64702 0.939278
v 0.471393 0.64702 -0.431434
v 0.471393 0.679703 -0.431434
v 0.314355 0.679703 0.939278
v 0.471393 0.64702 -0.431434
v 0.217529 0.64702 -0.940496
v 0.217529 0.679703 -0.940496
v 0.471393 0.679703 -0.431434
v 0.217529 0.64702 -0.940496
v -0.21641 0.64702 -0.940496
v -0.21641 0.679703 -0.940496
v 0.217529 0.679703 -0.940496
v -0.21641 0.64702 -0.940496
v -0.470273 0.64702 -0.431434
v -0.470273 0.679703 -0.431434
v -0.21641 0.679703 -0.940496
v -0.470273 0.64702 -0.431434
v -0.31329 0.64702 0.939278
v -0.31329 0.679703 0.939278
v -0.470273 0.679703 -0.431434

vn -0.30127 0.30127 -0.904297
vn 0.30127 0.302002 -0.904297
vn 0.30127 0.302002 -0.904297
vn -0.30127 0.30127 -0.904297
vn -0.264893 0.926758 -0.264893
vn -0.666504 0.333252 0.666504
vn -0.666504 0.333252 0.666504
vn -0.264893 0.926758 -0.264893
vn -0.30127 0.30127 -0.904297
vn -0.264893 0.926758 -0.264893
vn -0.264893 0.926758 -0.264893
vn -0.30127 0.30127 -0.904297
vn -0.577148 0.577148 0.577148
vn -0.577148 0.577148 0.577148
vn -0.30127 0.30127 -0.904297
vn -0.30127 0.30127 -0.904297
vn -0.577148 0.577148 0.577148
vn -0.264893 0.926758 -0.264893
vn -0.264893 0.926758 -0.264893
vn -0.577148 0.577148 0.577148
vn -0.30127 0.30127 -0.904297
vn -0.30127 0.30127 -0.904297
vn -0.30127 0.30127 -0.904297
vn -0.30127 0.30127 -0.904297
vn -0.264893 0.926758 -0.264893
vn -0.264893 0.926758 -0.264893
vn -0.264893 0.926758 -0.264893
vn -0.264893 0.926758 -0.264893
vn 0.264648 0.926758 -0.264648
vn 0.666504 0.333252 0.666504
vn 0.666504 0.333252 0.666504
vn 0.264648 0.926758 -0.264648
vn 0.30127 0.302002 -0.904297
vn 0.30127 0.302002 -0.904297
vn 0.264648 0.926758 -0.264648
vn 0.264648 0.926758 -0.264648
vn 0.577637 0.576172 0.577637
vn 0.577637 0.576172 0.577637
vn 0.301514 0.300781 -0.904297
vn 0.301514 0.300781 -0.904297
vn 0.577637 0.576172 0.577637
vn 0.577637 0.576172 0.577637
vn 0.264648 0.926758 -0.264648
vn 0.264648 0.926758 -0.264648
vn 0.301514 0.300781 -0.904297
vn 0.301514 0.300781 -0.904297
vn 0.30127 0.302002 -0.904297
vn 0.301514 0.300781 -0.904297
vn 0.264648 0.926758 -0.264648
vn 0.264648 0.926758 -0.264648
vn 0.264648 0.926758 -0.264648
vn 0.264648 0.926758 -0.264648
vn -0.264893 0.926758 -0.264893
vn -0.264893 0.926758 -0.264893
vn -0.30127 0.30127 -0.904297
vn -0.30127 0.30127 -0.904297
vn 0.264648 0.926758 -0.264648
vn 0.264648 0.926758 -0.264648
vn 0.30127 0.302002 -0.904297
vn 0.301514 0.300781 -0.904297
vn 0.666504 0.333252 0.666504
vn -0.666504 0.333252 0.666504
vn -0.666504 0.333252 0.666504
vn 0.666504 0.333252 0.666504
vn 0 1 0
vn 0 1 0
vn 0 1 0
vn 0 1 0
vn 0 1 0
vn 0 1 0
vn 0 1 0
vn 0 1 0
vn 0 1 0
vn 0 1 0
vn 0 1 0
vn 0 1 0
vn 0 1 0
vn 0 1 0
vn 0 1 0
vn 0 1 0
vn 0 0 1
vn 0 0 1
vn 0 0 1
vn 0 0 1
vn 0 1 0
vn 0 1 0
vn 0 1 0
vn 0 1 0
vn 0 0 -1
vn 0 0 -1
vn 0 0 -1
vn 0 0 -1
vn 0 -1 0
vn 0 -1 0
vn 0 -1 0
vn 0 -1 0
vn 0.994629 0 0.100098
vn 0.983398 0 -0.180054
vn 0.983398 0 -0.180054
vn 0.994629 0 0.100098
vn -0.894531 0 -0.446045
vn -0.983398 0 -0.180054
vn -0.983398 0 -0.180054
vn -0.894531 0 -0.446045
vn 0 1 0
vn 0 1 0
vn 0 -1 0
vn 0 -1 0
vn 0.894531 0 -0.446045
vn 0.894531 0 -0.446045
vn 0.983398 0 -0.180054
vn 0.983398 0 -0.180054
vn -0.994629 0 0.100098
vn -0.994629 0 0.100098
vn -0.983398 0 -0.180054
vn -0.983398 0 -0.180054
vn 0 0 1
vn 0 0 1
vn 0 0 1
vn 0 0 1
vn 0 0 -1
vn 0 0 -1
vn 0 0 -1
vn 0 0 -1
vn 0.982422 0 -0.185669
vn 0.994141 0 0.103943
vn 0.994141 0 0.103943
vn 0.982422 0 -0.185669
vn -0.982422 0 -0.185669
vn -0.887695 0 -0.459717
vn -0.887695 0 -0.459717
vn -0.982422 0 -0.185669
vn 0.887695 0 -0.459717
vn 0.982422 0 -0.185669
vn 0.982422 0 -0.185669
vn 0.887695 0 -0.459717
vn -0.994141 0 0.103943
vn -0.982422 0 -0.185669
vn -0.982422 0 -0.185669
vn -0.994141 0 0.103943
vn 0.218506 -0.912109 0.345703
vn -0.218506 -0.912109 0.345703
vn -0.218506 -0.912109 0.345703
vn 0.218506 -0.912109 0.345703
vn 0.178223 -0.925781 -0.332031
vn -0.178223 -0.925781 -0.332031
vn -0.178223 -0.925781 -0.332031
vn 0.178223 -0.925781 -0.332031
vn 0.380615 -0.921875 -0.0685425
vn 0.218506 -0.912109 0.345703
vn 0.218506 -0.912109 0.345703
vn 0.380615 -0.921875 -0.0685425
vn -0.380615 -0.921875 -0.0685425
vn -0.178223 -0.925781 -0.332031
vn -0.178223 -0.925781 -0.332031
vn -0.380615 -0.921875 -0.0685425
vn 0.178223 -0.925781 -0.332031
vn 0.380615 -0.921875 -0.0685425
vn 0.380615 -0.921875 -0.0685425
vn 0.178223 -0.925781 -0.332031
vn -0.218506 -0.912109 0.345703
vn -0.380615 -0.921875 -0.0685425
vn -0.380615 -0.921875 -0.0685425
vn -0.218506 -0.912109 0.345703
vn 0 -0.0683594 0.997559
vn 0 -0.0683594 0.997559
vn 0 -0.0683594 0.997559
vn 0 -0.0683594 0.997559
vn 0.983398 -0.0329895 -0.17688
vn 0.994629 -0.0283508 0.0980225
vn 0.994629 -0.0283508 0.0980225
vn 0.983398 -0.0329895 -0.17688
vn -0.983398 -0.0329895 -0.17688
vn -0.897949 -0.0351257 -0.438477
vn -0.897949 -0.0351257 -0.438477
vn -0.983398 -0.0329895 -0.17688
vn 0.897949 -0.0351257 -0.438477
vn 0.983398 -0.0329895 -0.17688
vn 0.983398 -0.0329895 -0.17688
vn 0.897949 -0.0351257 -0.438477
vn -0.994629 -0.0283508 0.0980225
vn -0.983398 -0.0329895 -0.17688
vn -0.983398 -0.0329895 -0.17688
vn -0.994629 -0.0283508 0.0980225
vn 0 -0.050354 -0.998535
vn 0 -0.050354 -0.998535
vn 0 -0.050354 -0.998535
vn 0 -0.050354 -0.998535
vn 0.36084 0.835938 0.412354
vn -0.36084 0.835938 0.412354
vn -0.36084 0.835938 0.412354
vn 0.36084 0.835938 0.412354
vn 0.602539 0.791016 -0.102539
vn 0.36084 0.835938 0.412354
vn 0.36084 0.835938 0.412354
vn 0.602539 0.791016 -0.102539
vn -0.602539 0.791016 -0.102539
vn -0.284668 0.84082 -0.459961
vn -0.284668 0.84082 -0.459961
vn -0.602539 0.791016 -0.102539
vn 0.284668 0.84082 -0.459961
vn 0.602539 0.791016 -0.102539
vn 0.602539 0.791016 -0.102539
vn 0.284668 0.84082 -0.459961
vn -0.36084 0.835938 0.412354
vn -0.602539 0.791016 -0.102539
vn -0.602539 0.791016 -0.102539
vn -0.36084 0.835938 0.412354
vn -0.284668 0.84082 -0.459961
vn 0.284668 0.84082 -0.459961
vn 0.284668 0.84082 -0.459961
vn -0.284668 0.84082 -0.459961
vn -0.980957 0 -0.191895
vn -0.993652 0 0.108215
vn -0.993652 0 0.108215
vn -0.980957 0 -0.191895
vn 0.980957 0 -0.191895
vn 0.879883 0 -0.474854
vn 0.879883 0 -0.474854
vn 0.980957 0 -0.191895
vn -0.879883 0 -0.474854
vn -0.980957 0 -0.191895
vn -0.980957 0 -0.191895
vn -0.879883 0 -0.474854
vn 0.993652 0 0.108215
vn 0.980957 0 -0.191895
vn 0.980957 0 -0.191895
vn 0.993652 0 0.108215
vn 0 0 1
vn 0 0 1
vn 0 0 1
vn 0 0 1
vn 0 0 -1
vn 0 0 -1
vn 0 0 -1
vn 0 0 -1
vn -0.986328 0 0.161865
vn -0.996094 0 -0.0852661
vn -0.996094 0 -0.0852661
vn -0.986328 0 0.161865
vn -0.916504 0 0.39917
vn -0.986328 0 0.161865
vn -0.986328 0 0.161865
vn -0.916504 0 0.39917
vn 0 0 1
vn 0 0 1
vn 0 0 1
vn 0 0 1
vn 0.986328 0 0.161865
vn 0.916504 0 0.39917
vn 0.916504 0 0.39917
vn 0.986328 0 0.161865
vn 0.996094 0 -0.0852661
vn 0.986328 0 0.161865
vn 0.986328 0 0.161865
vn 0.996094 0 -0.0852661
vn 0 0 -1
vn 0 0 -1
vn 0 0 -1
vn 0 0 -1
vn 0.376709 0.614258 -0.692871
vn -0.376709 0.614258 -0.692871
vn -0.376709 0.614258 -0.692871
vn 0.376709 0.614258 -0.692871
vn 0 0.56543 0.824219
vn 0 0.56543 0.824219
vn 0 0.56543 0.824219
vn 0 0.56543 0.824219
vn 0.737305 0.670898 0.0786743
vn 0.725098 0.67334 -0.143188
vn 0.725098 0.67334 -0.143188
vn 0.737305 0.670898 0.0786743
vn -0.376709 0.614258 -0.692871
vn -0.725098 0.67334 -0.143188
vn -0.725098 0.67334 -0.143188
vn -0.376709 0.614258 -0.692871
vn 0.725098 0.67334 -0.143188
vn 0.376709 0.614258 -0.692871
vn 0.376709 0.614258 -0.692871
vn 0.725098 0.67334 -0.143188
vn -0.725098 0.67334 -0.143188
vn -0.737305 0.670898 0.0786743
vn -0.737305 0.670898 0.0786743
vn -0.725098 0.67334 -0.143188
vn -0.071167 0.994629 0.0709839
vn 0.0723267 0.994629 0.071106
vn 0.0723267 0.994629 0.071106
vn -0.071167 0.994629 0.0709839
vn 0.127686 0.991211 -0.0205841
vn 0.127686 0.991211 -0.0205841
vn 0.0557251 0.994629 -0.0859375
vn 0.0557251 0.994629 -0.0859375
vn -0.0550537 0.994629 -0.0856323
vn -0.0550537 0.994629 -0.0856323
vn -0.125854 0.991699 -0.0203552
vn -0.125854 0.991699 -0.0203552
vn 0 1 0
vn 0 1 0
vn 0 1 0
vn 0 1 0
vn 0 1 0
vn 0 1 0
vn 0 1 0
vn 0 1 0
vn 0 1 0
vn 0 1 0
vn 0 1 0
vn 0 1 0
vn 0 0 1
vn 0 0 1
vn 0 0 1
vn 0 0 1
vn 0.995117 0 0.0969238
vn 0.984375 0 -0.175293
vn 0.984375 0 -0.175293
vn 0.995117 0 0.0969238
vn 0.984375 0 -0.175293
vn 0.900391 0 -0.434326
vn 0.900391 0 -0.434326
vn 0.984375 0 -0.175293
vn 0 0 -1
vn 0 0 -1
vn 0 0 -1
vn 0 0 -1
vn -0.900391 0 -0.434326
vn -0.984375 0 -0.175293
vn -0.984375 0 -0.175293
vn -0.900391 0 -0.434326
vn -0.984375 0 -0.175293
vn -0.995117 0 0.0969238
vn -0.995117 0 0.0969238
vn -0.984375 0 -0.175293

vt 0.564967 0.455403
vt 0.512652 0.455403
vt 0.512652 0.428208
vt 0.564967 0.428208
vt 0.778635 0.455403
vt 0.590335 0.455403
vt 0.590335 0.428208
vt 0.778635 0.428208
vt 0.778635 0.455403
vt 0.590335 0.455403
vt 0.590335 0.428208
vt 0.778635 0.428208
vt 0.590335 0.455403
vt 0.590335 0.428208
vt 0.778635 0.428208
vt 0.778635 0.455403
vt 0.396341 0.428208
vt 0.487046 0.428208
vt 0.487046 0.455403
vt 0.396341 0.455403
vt 0.512652 0.455403
vt 0.512652 0.428208
vt 0.564967 0.428208
vt 0.564967 0.455403
vt 0.564967 0.428208
vt 0.564967 0.455403
vt 0.512652 0.455403
vt 0.512652 0.428208
vt 0.778635 0.455403
vt 0.590335 0.455403
vt 0.590335 0.428208
vt 0.778635 0.428208
vt 0.778635 0.428208
vt 0.778635 0.455403
vt 0.590335 0.455403
vt 0.590335 0.428208
vt 0.590335 0.455403
vt 0.590335 0.428208
vt 0.778635 0.428208
vt 0.778635 0.455403
vt 0.487046 0.428208
vt 0.487046 0.455403
vt 0.396341 0.455403
vt 0.396341 0.428208
vt 0.512652 0.428208
vt 0.564967 0.428208
vt 0.564967 0.455403
vt 0.512652 0.455403
vt 0.564967 0.455403
vt 0.512652 0.455403
vt 0.512652 0.428208
vt 0.564967 0.428208
vt 0.396341 0.455403
vt 0.396341 0.428208
vt 0.487046 0.428208
vt 0.487046 0.455403
vt 0.396341 0.455403
vt 0.396341 0.428208
vt 0.487046 0.428208
vt 0.487046 0.455403
vt 0.512652 0.428208
vt 0.564967 0.428208
vt 0.564967 0.455403
vt 0.512652 0.455403
vt 0.915543 0.421649
vt 0.951012 0.42165
vt 0.951012 0.492911
vt 0.915543 0.492911
vt 0.951012 0.516261
vt 0.915543 0.516261
vt 0.895949 0.492911
vt 0.868301 0.516261
vt 0.868301 0.443339
vt 0.895949 0.443339
vt 0.971244 0.492911
vt 0.971244 0.443339
vt 0.998892 0.443339
vt 0.998892 0.516261
vt 0.915543 0.574883
vt 0.951012 0.574883
vt 0.778348 0.00977165
vt 0.991742 0.00977165
vt 0.991742 0.0632167
vt 0.778348 0.0632167
vt 0.62447 0.691233
vt 0.62447 0.85174
vt 0.262213 0.883256
vt 0.262213 0.659717
vt 0.147732 0.377618
vt 0.00953889 0.377618
vt 0.00953889 0.35066
vt 0.147732 0.35066
vt 0.827968 0.989802
vt 0.921803 0.989802
vt 0.973067 0.880778
vt 0.776887 0.880592
vt 0.758125 0.00977165
vt 0.341441 0.00977165
vt 0.341441 0.0632167
vt 0.758125 0.0632167
vt 0.165648 0.00977165
vt 0.328652 0.00977165
vt 0.328652 0.0632167
vt 0.165648 0.0632167
vt 0.136083 0.824947
vt 0.136083 0.718027
vt 0.945653 0.588676
vt 0.80479 0.588543
vt 0.165648 0.00977165
vt 0.165648 0.0632167
vt 0.328652 0.0632167
vt 0.328652 0.00977165
vt 0.758125 0.00977165
vt 0.758125 0.0632167
vt 0.341441 0.0632167
vt 0.341441 0.00977165
vt 0.990877 0.377618
vt 0.778348 0.377618
vt 0.778348 0.35066
vt 0.990877 0.35066
vt 0.146323 0.00977165
vt 0.00953889 0.00977165
vt 0.00953889 0.0632167
vt 0.146323 0.0632167
vt 0.341441 0.377618
vt 0.757659 0.377618
vt 0.757659 0.35066
vt 0.341441 0.35066
vt 0.3294 0.377618
vt 0.165553 0.377618
vt 0.165553 0.35066
vt 0.3294 0.35066
vt 0.165553 0.377618
vt 0.3294 0.377618
vt 0.3294 0.35066
vt 0.165553 0.35066
vt 0.757659 0.377618
vt 0.341441 0.377618
vt 0.341441 0.35066
vt 0.757659 0.35066
vt 0.990178 0.270987
vt 0.778696 0.270987
vt 0.79379 0.236881
vt 0.975084 0.236881
vt 0.0220809 0.236881
vt 0.136881 0.236881
vt 0.147732 0.270987
vt 0.0112298 0.270987
vt 0.341441 0.270987
vt 0.759103 0.270987
vt 0.748682 0.236881
vt 0.352605 0.236881
vt 0.330896 0.270987
vt 0.165648 0.270987
vt 0.17188 0.236881
vt 0.324664 0.236881
vt 0.165648 0.270987
vt 0.330896 0.270987
vt 0.324664 0.236881
vt 0.17188 0.236881
vt 0.759103 0.270987
vt 0.341441 0.270987
vt 0.352605 0.236881
vt 0.748682 0.236881
vt 0.991742 0.22371
vt 0.778348 0.22371
vt 0.778348 0.104428
vt 0.991742 0.104428
vt 0.341441 0.22371
vt 0.758056 0.22371
vt 0.758056 0.104428
vt 0.341441 0.104428
vt 0.328652 0.22371
vt 0.165648 0.22371
vt 0.165648 0.104428
vt 0.328652 0.104428
vt 0.165648 0.22371
vt 0.328652 0.22371
vt 0.328652 0.104428
vt 0.165648 0.104428
vt 0.758056 0.22371
vt 0.341441 0.22371
vt 0.341441 0.104428
vt 0.758056 0.104428
vt 0.147732 0.22371
vt 0.0106662 0.22371
vt 0.0106662 0.104428
vt 0.147732 0.104428
vt 0.991742 0.0906665
vt 0.778348 0.0906665
vt 0.778348 0.0753304
vt 0.991742 0.0753304
vt 0.341441 0.0906665
vt 0.758404 0.0906665
vt 0.758404 0.0753304
vt 0.341441 0.0753304
vt 0.328278 0.0906665
vt 0.165648 0.0906665
vt 0.165648 0.0753304
vt 0.328278 0.0753304
vt 0.165648 0.0906665
vt 0.328278 0.0906665
vt 0.328278 0.0753304
vt 0.165648 0.0753304
vt 0.758404 0.0906665
vt 0.341441 0.0906665
vt 0.341441 0.0753304
vt 0.758404 0.0753304
vt 0.147732 0.0906665
vt 0.0106662 0.0906665
vt 0.0106662 0.0753304
vt 0.147732 0.0753304
vt 0.341441 0.283799
vt 0.758079 0.283799
vt 0.758079 0.305285
vt 0.341441 0.305285
vt 0.328652 0.283799
vt 0.165648 0.283799
vt 0.165648 0.305285
vt 0.328652 0.305285
vt 0.165648 0.283799
vt 0.328652 0.283799
vt 0.328652 0.305285
vt 0.165648 0.305285
vt 0.758079 0.283799
vt 0.341441 0.283799
vt 0.341441 0.305285
vt 0.758079 0.305285
vt 0.989284 0.305285
vt 0.778696 0.305285
vt 0.778696 0.283799
vt 0.989284 0.283799
vt 0.147732 0.305285
vt 0.0112298 0.305285
vt 0.0112298 0.283799
vt 0.147732 0.283799
vt 0.283126 0.466173
vt 0.646729 0.466173
vt 0.646729 0.485341
vt 0.283126 0.485341
vt 0.137129 0.466173
vt 0.272237 0.466173
vt 0.272237 0.485341
vt 0.137129 0.485341
vt 0.010515 0.466173
vt 0.124227 0.466173
vt 0.124227 0.485341
vt 0.010515 0.485341
vt 0.272237 0.466173
vt 0.137129 0.466173
vt 0.137129 0.485341
vt 0.272237 0.485341
vt 0.646729 0.466173
vt 0.283126 0.466173
vt 0.283126 0.485341
vt 0.646729 0.485341
vt 0.657976 0.466173
vt 0.813945 0.466173
vt 0.813945 0.485341
vt 0.657976 0.485341
vt 0.0124694 0.316875
vt 0.147732 0.316875
vt 0.142171 0.338083
vt 0.0180309 0.338083
vt 0.778696 0.316875
vt 0.988613 0.316875
vt 0.98174 0.338083
vt 0.785569 0.338083
vt 0.757054 0.316875
vt 0.341441 0.316875
vt 0.34368 0.338083
vt 0.752588 0.338083
vt 0.166392 0.316875
vt 0.328278 0.316875
vt 0.3262 0.338083
vt 0.168469 0.338083
vt 0.328278 0.316875
vt 0.166392 0.316875
vt 0.168469 0.338083
vt 0.3262 0.338083
vt 0.341441 0.316875
vt 0.757054 0.316875
vt 0.752588 0.338083
vt 0.34368 0.338083
vt 0.714397 0.616696
vt 0.714645 0.924031
vt 0.690295 0.904996
vt 0.690295 0.637414
vt 0.224695 0.978139
vt 0.237346 0.950464
vt 0.0369476 0.869898
vt 0.063907 0.856944
vt 0.0369476 0.672079
vt 0.063907 0.685458
vt 0.227422 0.564581
vt 0.237346 0.591939
vt 0.668221 0.65425
vt 0.668221 0.888133
vt 0.642281 0.865252
vt 0.642281 0.677721
vt 0.245885 0.934056
vt 0.258536 0.902074
vt 0.0879015 0.849091
vt 0.118522 0.833948
vt 0.0879015 0.693292
vt 0.118522 0.709026
vt 0.245885 0.608326
vt 0.258536 0.6409
vt 0.778348 0.391388
vt 0.990589 0.391388
vt 0.990589 0.412745
vt 0.778348 0.412745
vt 0.757659 0.391388
vt 0.341441 0.391388
vt 0.341441 0.412745
vt 0.757659 0.412745
vt 0.329026 0.391388
vt 0.163957 0.391388
vt 0.163957 0.412745
vt 0.329026 0.412745
vt 0.00953889 0.391388
vt 0.147732 0.391388
vt 0.147732 0.412745
vt 0.00953889 0.412745
vt 0.163957 0.391388
vt 0.329026 0.391388
vt 0.329026 0.412745
vt 0.163957 0.412745
vt 0.341441 0.391388
vt 0.757659 0.391388
vt 0.757659 0.412745
vt 0.341441 0.412745


#
# MESH 000
#
g surface_000
usemtl surface_000
f 79/79/79 69/69/69 80/80/80
f 79/79/79 70/70/70 69/69/69
f 69/69/69 70/70/70 68/68/68
f 69/69/69 68/68/68 67/67/67
f 69/69/69 67/67/67 75/75/75
f 69/69/69 75/75/75 78/78/78
f 75/75/75 77/77/77 78/78/78
f 75/75/75 76/76/76 77/77/77
f 70/70/70 71/71/71 68/68/68
f 70/70/70 72/72/72 71/71/71
f 71/71/71 72/72/72 73/73/73
f 71/71/71 73/73/73 74/74/74
f 65/65/65 67/67/67 68/68/68
f 65/65/65 66/66/66 67/67/67
f 61/61/61 63/63/63 64/64/64
f 61/61/61 62/62/62 63/63/63
f 59/59/59 57/57/57 58/58/58
f 59/59/59 60/60/60 57/57/57
f 55/55/55 53/53/53 54/54/54
f 55/55/55 56/56/56 53/53/53
f 49/49/49 51/51/51 52/52/52
f 49/49/49 50/50/50 51/51/51
f 45/45/45 47/47/47 48/48/48
f 45/45/45 46/46/46 47/47/47
f 41/41/41 43/43/43 44/44/44
f 41/41/41 42/42/42 43/43/43
f 37/37/37 39/39/39 40/40/40
f 37/37/37 38/38/38 39/39/39
f 33/33/33 35/35/35 36/36/36
f 33/33/33 34/34/34 35/35/35
f 29/29/29 31/31/31 32/32/32
f 29/29/29 30/30/30 31/31/31
f 25/25/25 27/27/27 28/28/28
f 25/25/25 26/26/26 27/27/27
f 21/21/21 23/23/23 24/24/24
f 21/21/21 22/22/22 23/23/23
f 17/17/17 19/19/19 20/20/20
f 17/17/17 18/18/18 19/19/19
f 13/13/13 15/15/15 16/16/16
f 13/13/13 14/14/14 15/15/15
f 9/9/9 11/11/11 12/12/12
f 9/9/9 10/10/10 11/11/11
f 5/5/5 7/7/7 8/8/8
f 5/5/5 6/6/6 7/7/7
f 1/1/1 3/3/3 4/4/4
f 1/1/1 2/2/2 3/3/3
f 329/329/329 331/331/331 332/332/332
f 329/329/329 330/330/330 331/331/331
f 325/325/325 327/327/327 328/328/328
f 325/325/325 326/326/326 327/327/327
f 321/321/321 323/323/323 324/324/324
f 321/321/321 322/322/322 323/323/323
f 317/317/317 319/319/319 320/320/320
f 317/317/317 318/318/318 319/319/319
f 313/313/313 315/315/315 316/316/316
f 313/313/313 314/314/314 315/315/315
f 309/309/309 311/311/311 312/312/312
f 309/309/309 310/310/310 311/311/311
f 281/281/281 283/283/283 284/284/284
f 281/281/281 282/282/282 283/283/283
f 277/277/277 279/279/279 280/280/280
f 277/277/277 278/278/278 279/279/279
f 273/273/273 275/275/275 276/276/276
f 273/273/273 274/274/274 275/275/275
f 269/269/269 271/271/271 272/272/272
f 269/269/269 270/270/270 271/271/271
f 265/265/265 267/267/267 268/268/268
f 265/265/265 266/266/266 267/267/267
f 261/261/261 263/263/263 264/264/264
f 261/261/261 262/262/262 263/263/263
f 257/257/257 259/259/259 260/260/260
f 257/257/257 258/258/258 259/259/259
f 253/253/253 255/255/255 256/256/256
f 253/253/253 254/254/254 255/255/255
f 249/249/249 251/251/251 252/252/252
f 249/249/249 250/250/250 251/251/251
f 245/245/245 247/247/247 248/248/248
f 245/245/245 246/246/246 247/247/247
f 241/241/241 243/243/243 244/244/244
f 241/241/241 242/242/242 243/243/243
f 237/237/237 239/239/239 240/240/240
f 237/237/237 238/238/238 239/239/239
f 233/233/233 235/235/235 236/236/236
f 233/233/233 234/234/234 235/235/235
f 229/229/229 231/231/231 232/232/232
f 229/229/229 230/230/230 231/231/231
f 225/225/225 227/227/227 228/228/228
f 225/225/225 226/226/226 227/227/227
f 221/221/221 223/223/223 224/224/224
f 221/221/221 222/222/222 223/223/223
f 217/217/217 219/219/219 220/220/220
f 217/217/217 218/218/218 219/219/219
f 213/213/213 215/215/215 216/216/216
f 213/213/213 214/214/214 215/215/215
f 209/209/209 211/211/211 212/212/212
f 209/209/209 210/210/210 211/211/211
f 205/205/205 207/207/207 208/208/208
f 205/205/205 206/206/206 207/207/207
f 201/201/201 203/203/203 204/204/204
f 201/201/201 202/202/202 203/203/203
f 197/197/197 199/199/199 200/200/200
f 197/197/197 198/198/198 199/199/199
f 193/193/193 195/195/195 196/196/196
f 193/193/193 194/194/194 195/195/195
f 189/189/189 191/191/191 192/192/192
f 189/189/189 190/190/190 191/191/191
f 185/185/185 187/187/187 188/188/188
f 185/185/185 186/186/186 187/187/187
f 181/181/181 183/183/183 184/184/184
f 181/181/181 182/182/182 183/183/183
f 177/177/177 179/179/179 180/180/180
f 177/177/177 178/178/178 179/179/179
f 173/173/173 175/175/175 176/176/176
f 173/173/173 174/174/174 175/175/175
f 169/169/169 171/171/171 172/172/172
f 169/169/169 170/170/170 171/171/171
f 165/165/165 167/167/167 168/168/168
f 165/165/165 166/166/166 167/167/167
f 161/161/161 163/163/163 164/164/164
f 161/161/161 162/162/162 163/163/163
f 157/157/157 159/159/159 160/160/160
f 157/157/157 158/158/158 159/159/159
f 153/153/153 155/155/155 156/156/156
f 153/153/153 154/154/154 155/155/155
f 149/149/149 151/151/151 152/152/152
f 149/149/149 150/150/150 151/151/151
f 145/145/145 147/147/147 148/148/148
f 145/145/145 146/146/146 147/147/147
f 141/141/141 143/143/143 144/144/144
f 141/141/141 142/142/142 143/143/143
f 137/137/137 139/139/139 140/140/140
f 137/137/137 138/138/138 139/139/139
f 133/133/133 135/135/135 136/136/136
f 133/133/133 134/134/134 135/135/135
f 129/129/129 131/131/131 132/132/132
f 129/129/129 130/130/130 131/131/131
f 125/125/125 127/127/127 128/128/128
f 125/125/125 126/126/126 127/127/127
f 121/121/121 123/123/123 124/124/124
f 121/121/121 122/122/122 123/123/123
f 117/117/117 119/119/119 120/120/120
f 117/117/117 118/118/118 119/119/119
f 113/113/113 115/115/115 116/116/116
f 113/113/113 114/114/114 115/115/115
f 109/109/109 111/111/111 112/112/112
f 109/109/109 110/110/110 111/111/111
f 107/107/107 108/108/108 96/96/96
f 107/107/107 96/96/96 95/95/95
f 93/93/93 95/95/95 96/96/96
f 93/93/93 94/94/94 95/95/95
f 105/105/105 106/106/106 88/88/88
f 105/105/105 88/88/88 87/87/87
f 85/85/85 87/87/87 88/88/88
f 85/85/85 86/86/86 87/87/87
f 101/101/101 103/103/103 104/104/104
f 101/101/101 102/102/102 103/103/103
f 97/97/97 99/99/99 100/100/100
f 97/97/97 98/98/98 99/99/99
f 89/89/89 91/91/91 92/92/92
f 89/89/89 90/90/90 91/91/91
f 81/81/81 83/83/83 84/84/84
f 81/81/81 82/82/82 83/83/83
f 307/307/307 300/300/300 308/308/308
f 307/307/307 297/297/297 300/300/300
f 297/297/297 299/299/299 300/300/300
f 297/297/297 298/298/298 299/299/299
f 298/298/298 302/302/302 299/299/299
f 298/298/298 301/301/301 302/302/302
f 301/301/301 304/304/304 302/302/302
f 305/305/305 307/307/307 308/308/308
f 305/305/305 308/308/308 306/306/306
f 303/303/303 305/305/305 306/306/306
f 303/303/303 306/306/306 304/304/304
f 301/301/301 303/303/303 304/304/304
f 295/295/295 288/288/288 296/296/296
f 295/295/295 285/285/285 288/288/288
f 285/285/285 287/287/287 288/288/288
f 285/285/285 286/286/286 287/287/287
f 286/286/286 290/290/290 287/287/287
f 286/286/286 289/289/289 290/290/290
f 289/289/289 292/292/292 290/290/290
f 293/293/293 295/295/295 296/296/296
f 293/293/293 296/296/296 294/294/294
f 291/291/291 293/293/293 294/294/294
f 291/291/291 294/294/294 292/292/292
f 289/289/289 291/291/291 292/292/292

