g b004v001_h
v -0.5 0 0.5
v -0.5 1 0.5
v 0.5 0 0.5
v 0.5 0.25 0.5
v -0.5 1.25 0.5
v -0.5 1.25 -0.5
v -0.5 0 -0.5
v -0.5 0 0.5
v 0.5 0 0.5
v 0.5 0.25 0.5
v -0.5 1.25 -0.5
v 0.5 1.25 -0.5
v 0.5 0 -0.5
v -0.5 0 -0.5
v 0.5 0 0.5
v 0.5 0 0.5
v 0.5 1 -0.5
v 0.5 0 -0.5
v -0.5 1 -0.5
v -0.5 1 0.5
v -0.5 0 0.5
v -0.5 0 -0.5
v -0.5 1.25 -0.5
v -0.5 1.25 0.5
v -0.5 1 0.5
v -0.5 1 -0.5
v 0.5 0 0.5
v -0.5 1 0.5
v 0.5 0.25 0.5
v -0.5 1.25 0.5
v 0.5 1 -0.5
v -0.5 1 -0.5
v -0.5 0 -0.5
v 0.5 0 -0.5
v 0.5 1.25 -0.5
v -0.5 1.25 -0.5
v -0.5 1 -0.5
v 0.5 1 -0.5
v 0.5 0 0.5
v 0.5 0.25 0.5
v 0.5 1 -0.5
v 0.5 1.25 -0.5
vt 0.4321289 0.017944336
vt 0.4321289 0.5185547
vt 0.6821289 0.017944336
vt 0.08892822 0.25683594
vt 0.08892822 0.96533203
vt 0.33911133 0.96533203
vt 0.6879883 0.98535156
vt 0.9379883 0.98535156
vt 0.9379883 0.484375
vt 0.5888672 0.25683594
vt 0.33911133 0.96533203
vt 0.5888672 0.96533203
vt 0.6879883 0.98535156
vt 0.9379883 0.98535156
vt 0.6879883 0.484375
vt 0.73583984 0.017944336
vt 0.98583984 0.5185547
vt 0.98583984 0.017944336
vt 0.6879883 0.98535156
vt 0.9379883 0.98535156
vt 0.9379883 0.484375
vt 0.6879883 0.484375
vt 0.06347656 0.14355469
vt 0.31347656 0.14355469
vt 0.31347656 0.0184021
vt 0.06347656 0.0184021
vt 0.025512695 0.16809082
vt 0.025512695 0.87646484
vt 0.06970215 0.25683594
vt 0.06970215 0.96533203
vt 0.6879883 0.98535156
vt 0.9379883 0.98535156
vt 0.9379883 0.484375
vt 0.6879883 0.484375
vt 0.14086914 0.2956543
vt 0.39111328 0.2956543
vt 0.39111328 0.17028809
vt 0.14086914 0.17028809
vt 0.65234375 0.16809082
vt 0.60839844 0.25683594
vt 0.65234375 0.87646484
vt 0.60839844 0.96533203
vn -0 0 1
vn -0 0 1
vn -0 0 1
vn 0.70703125 0.70703125 0
vn 0.70703125 0.70703125 0
vn 0.70703125 0.70703125 0
vn -0 -1 0
vn -0 -1 0
vn -0 -1 0
vn -0 0.70703125 0.70703125
vn -0 0.70703125 0.70703125
vn -0 0.70703125 0.70703125
vn -0 -1 0
vn -0 -1 0
vn -0 -1 0
vn 1 0 0
vn 1 0 0
vn 1 0 0
vn -1 0 0
vn -1 0 0
vn -1 0 0
vn -1 0 0
vn -1 0 0
vn -1 0 0
vn -1 0 0
vn -1 0 0
vn -0 0 1
vn -0 0 1
vn -0 0 1
vn -0 0 1
vn -0 0 -1
vn -0 0 -1
vn -0 0 -1
vn -0 0 -1
vn -0 0 -1
vn -0 0 -1
vn -0 0 -1
vn -0 0 -1
vn 1 0 0
vn 1 0 0
vn 1 0 0
vn 1 0 0
g b004v001_h_0
f 3/3/3 2/2/2 1/1/1
f 6/6/6 5/5/5 4/4/4
f 9/9/9 8/8/8 7/7/7
f 12/12/12 11/11/11 10/10/10
f 15/15/15 14/14/14 13/13/13
f 18/18/18 17/17/17 16/16/16
f 21/21/21 20/20/20 19/19/19
f 22/22/22 21/21/21 19/19/19
f 25/25/25 24/24/24 23/23/23
f 26/26/26 25/25/25 23/23/23
f 29/29/29 28/28/28 27/27/27
f 29/29/29 30/30/30 28/28/28
f 33/33/33 32/32/32 31/31/31
f 34/34/34 33/33/33 31/31/31
f 37/37/37 36/36/36 35/35/35
f 38/38/38 37/37/37 35/35/35
f 41/41/41 40/40/40 39/39/39
f 41/41/41 42/42/42 40/40/40
