g b003v001_h
v 0.5 0 -0.49999976
v -0.5 1 -0.49999976
v -0.5 0 -0.49999976
v -0.5 0 -0.49999976
v -0.5 1 -0.49999976
v -0.49999976 0 0.49999976
v -0.41971993 1.1697204 -0.49999976
v -0.45118165 1.2011817 -0.45118165
v -0.5 1.0242081 -0.49999976
v -0.45118165 1.2011817 -0.45118165
v -0.49999976 1.1697206 -0.4197209
v -0.5 1.0242081 -0.49999976
v -0.5105562 1.1969597 -0.4187591
v -0.55593324 1.0276875 -0.4641359
v -0.46413636 1.0276875 -0.5559337
v -0.4187591 1.1969597 -0.510556
v -0.5003545 1.2094071 -0.38721776
v -0.5105562 1.1969597 -0.4187591
v -0.4187591 1.1969597 -0.510556
v -0.38721752 1.2094071 -0.5003545
v -0.38721752 1.2094071 -0.5003545
v -0.4187591 1.1969597 -0.510556
v -0.46413636 1.0276875 -0.5559337
v -0.44343162 1.002224 -0.5565684
v -0.44343162 1.002224 -0.5565684
v -0.46413636 1.0276875 -0.5559337
v -0.55593324 1.0276875 -0.4641359
v -0.5565684 1.002224 -0.44343162
v -0.5565684 1.002224 -0.44343162
v -0.55593324 1.0276875 -0.4641359
v -0.5105562 1.1969597 -0.4187591
v -0.5003545 1.2094071 -0.38721776
v -0.5003545 1.2094071 -0.38721776
v -0.08774912 0.50222397 0.025388002
v -0.5565684 1.002224 -0.44343162
v 0.49964476 0.20940709 0.6127815
v 0.38107002 0.0022239685 0.49420714
v 0.4434315 0 0.5565684
v -0.38721752 1.2094071 -0.5003545
v 0.61278176 0.20940709 0.49964452
v 0.49964476 0.20940709 0.6127815
v -0.5003545 1.2094071 -0.38721776
v 0.025387883 0.50222397 -0.08774924
v -0.38721752 1.2094071 -0.5003545
v -0.44343162 1.002224 -0.5565684
v 0.61278176 0.20940709 0.49964452
v 0.49420714 0.0022239685 0.3810699
v 0.5565684 0 0.44343114
v 0.025387883 0.50222397 -0.08774924
v -0.44343162 1.002224 -0.5565684
v -0.5565684 1.002224 -0.44343162
v -0.08774912 0.50222397 0.025388002
v 0.6121466 0.18394363 0.52034926
v 0.55593324 0.025463462 0.4641359
v 0.46413612 0.025463462 0.5559335
v 0.52034926 0.18394363 0.6121466
v -0.5 0 -0.49999976
v 0.5 0 0.5
v 0.5 0 -0.49999976
v -0.49999976 0 0.49999976
v 0.5 0.25 0.5
v 0.5 0.25 -0.49999976
v 0.5 0 -0.49999976
v 0.5 0 0.5
v -0.5 1 -0.49999976
v 0.5 0 -0.49999976
v 0.5 0.25 -0.49999976
v -0.41971993 1.1697204 -0.49999976
v -0.5 1.0242081 -0.49999976
v 0.5 0.25 -0.49999976
v 0.5 0.25 0.5
v -0.45118165 1.2011817 -0.45118165
v -0.41971993 1.1697204 -0.49999976
v -0.49999976 0.25 0.49999976
v -0.49999976 0 0.49999976
v -0.5 1 -0.49999976
v -0.49999976 1.1697206 -0.4197209
v -0.5 1.0242081 -0.49999976
v -0.49999976 0.25 0.49999976
v 0.5 0.25 0.5
v 0.5 0 0.5
v -0.49999976 0 0.49999976
v 0.5 0.25 0.5
v -0.49999976 0.25 0.49999976
v -0.49999976 1.1697206 -0.4197209
v -0.45118165 1.2011817 -0.45118165
v 0.61278176 0.20940709 0.49964452
v 0.6121466 0.18394363 0.52034926
v 0.52034926 0.18394363 0.6121466
v 0.49964476 0.20940709 0.6127815
v 0.49964476 0.20940709 0.6127815
v 0.52034926 0.18394363 0.6121466
v 0.46413612 0.025463462 0.5559335
v 0.4434315 0 0.5565684
v 0.4434315 0 0.5565684
v 0.46413612 0.025463462 0.5559335
v 0.55593324 0.025463462 0.4641359
v 0.5565684 0 0.44343114
v 0.5565684 0 0.44343114
v 0.55593324 0.025463462 0.4641359
v 0.6121466 0.18394363 0.52034926
v 0.61278176 0.20940709 0.49964452
v 0.4434315 0 0.5565684
v 0.5565684 0 0.44343114
v 0.49420714 0.0022239685 0.3810699
v 0.38107002 0.0022239685 0.49420714
v 0.49420714 0.0022239685 0.3810699
v 0.025387883 0.50222397 -0.08774924
v -0.08774912 0.50222397 0.025388002
v 0.38107002 0.0022239685 0.49420714
vt 0.9326172 0.017944336
vt 0.6821289 0.5185547
vt 0.6821289 0.017944336
vt 0.6821289 0.017944336
vt 0.6821289 0.5185547
vt 0.9326172 0.017944336
vt 0.3557129 0.9082031
vt 0.3269043 0.93066406
vt 0.029785156 0.8847656
vt 0.3269043 0.93066406
vt 0.08892822 0.9082031
vt 0.029785156 0.8847656
vt 0.9584961 0.84375
vt 0.9584961 0.7788086
vt 0.93115234 0.7788086
vt 0.93115234 0.84375
vt 0.9614258 0.8676758
vt 0.9584961 0.86035156
vt 0.93115234 0.86035156
vt 0.92822266 0.8676758
vt 0.921875 0.8515625
vt 0.9248047 0.84375
vt 0.9248047 0.7788086
vt 0.921875 0.7714844
vt 0.92822266 0.75439453
vt 0.93115234 0.76220703
vt 0.9584961 0.76220703
vt 0.9614258 0.75439453
vt 0.96777344 0.7714844
vt 0.96435547 0.7788086
vt 0.96435547 0.84375
vt 0.96777344 0.8515625
vt 0.40454102 0.99121094
vt 0.6459961 0.8691406
vt 0.4387207 0.88183594
vt 0.8378906 0.99121094
vt 0.85302734 0.8564453
vt 0.8725586 0.8808594
vt 0.41064453 0.6928711
vt 0.84375 0.6928711
vt 0.84375 0.61279297
vt 0.41064453 0.61279297
vt 0.6376953 0.72021484
vt 0.87890625 0.84228516
vt 0.84472656 0.73291016
vt 0.44555664 0.84228516
vt 0.43041992 0.70751953
vt 0.4111328 0.7324219
vt 0.78222656 0.43798828
vt 0.9897461 0.43798828
vt 0.9897461 0.35791016
vt 0.78222656 0.35791016
vt 0.9584961 0.96777344
vt 0.9584961 0.90283203
vt 0.93115234 0.90283203
vt 0.93115234 0.96777344
vt 0.6640625 0.51660156
vt 0.4140625 0.015655518
vt 0.4140625 0.51660156
vt 0.6640625 0.015655518
vt 0.08892822 0.23046875
vt 0.33911133 0.23046875
vt 0.33911133 0.105285645
vt 0.08892822 0.105285645
vt 0.39990234 0.87646484
vt 0.39990234 0.16809082
vt 0.3557129 0.25683594
vt 0.3557129 0.9082031
vt 0.3955078 0.8847656
vt 0.33911133 0.25683594
vt 0.08892822 0.25683594
vt 0.3269043 0.93066406
vt 0.33911133 0.9082031
vt 0.06970215 0.25683594
vt 0.025512695 0.16809082
vt 0.025512695 0.87646484
vt 0.06970215 0.9082031
vt 0.029785156 0.8847656
vt 0.08892822 0.23046875
vt 0.33911133 0.23046875
vt 0.33911133 0.105285645
vt 0.08892822 0.105285645
vt 0.33911133 0.25683594
vt 0.08892822 0.25683594
vt 0.08892822 0.9082031
vt 0.101135254 0.93066406
vt 0.96191406 0.98779297
vt 0.9584961 0.97998047
vt 0.93115234 0.97998047
vt 0.92822266 0.98779297
vt 0.921875 0.97509766
vt 0.9248047 0.96777344
vt 0.9248047 0.90283203
vt 0.921875 0.89501953
vt 0.92822266 0.8823242
vt 0.93115234 0.88964844
vt 0.9584961 0.88964844
vt 0.96191406 0.8823242
vt 0.96777344 0.89501953
vt 0.96484375 0.90283203
vt 0.96484375 0.96777344
vt 0.96777344 0.97509766
vt 0.021102905 0.011070251
vt 0.021102905 0.09106445
vt 0.0390625 0.09106445
vt 0.0390625 0.011070251
vt 0.0390625 0.09106445
vt 0.2467041 0.09106445
vt 0.2467041 0.011070251
vt 0.0390625 0.011070251
vn -0 0 -1
vn -0 0 -1
vn -0 0 -1
vn -1 0 0
vn -1 0 0
vn -1 0 0
vn -0.6586914 0.3635254 -0.6586914
vn -0.6586914 0.3635254 -0.6586914
vn -0.6586914 0.3635254 -0.6586914
vn -0.6586914 0.3635254 -0.6586914
vn -0.6586914 0.3635254 -0.6586914
vn -0.6586914 0.3635254 -0.6586914
vn -0.6611328 0.3544922 -0.6611328
vn -0.6611328 0.3544922 -0.6611328
vn -0.6611328 0.3544922 -0.6611328
vn -0.6611328 0.3544922 -0.6611328
vn -0.2746582 0.9213867 -0.2746582
vn -0.2746582 0.9213867 -0.2746582
vn -0.2746582 0.9213867 -0.2746582
vn -0.2746582 0.9213867 -0.2746582
vn 0.22387695 0.19714355 -0.95458984
vn 0.22387695 0.19714355 -0.95458984
vn 0.22387695 0.19714355 -0.95458984
vn 0.22387695 0.19714355 -0.95458984
vn -0.6176758 -0.4868164 -0.6176758
vn -0.6176758 -0.4868164 -0.6176758
vn -0.6176758 -0.4868164 -0.6176758
vn -0.6176758 -0.4868164 -0.6176758
vn -0.95458984 0.19714355 0.22387695
vn -0.95458984 0.19714355 0.22387695
vn -0.95458984 0.19714355 0.22387695
vn -0.95458984 0.19714355 0.22387695
vn -0.70703125 0 0.70703125
vn -0.70703125 0 0.70703125
vn -0.70703125 0 0.70703125
vn -0.70703125 0 0.70703125
vn -0.70703125 0 0.70703125
vn -0.70703125 0 0.70703125
vn 0.40820312 0.81640625 0.40820312
vn 0.40820312 0.81640625 0.40820312
vn 0.40820312 0.81640625 0.40820312
vn 0.40820312 0.81640625 0.40820312
vn 0.70703125 0 -0.70703125
vn 0.70703125 0 -0.70703125
vn 0.70703125 0 -0.70703125
vn 0.70703125 0 -0.70703125
vn 0.70703125 0 -0.70703125
vn 0.70703125 0 -0.70703125
vn -0.42578125 -0.79833984 -0.42578125
vn -0.42578125 -0.79833984 -0.42578125
vn -0.42578125 -0.79833984 -0.42578125
vn -0.42578125 -0.79833984 -0.42578125
vn 0.63183594 -0.44848633 0.63183594
vn 0.63183594 -0.44848633 0.63183594
vn 0.63183594 -0.44848633 0.63183594
vn 0.63183594 -0.44848633 0.63183594
vn -0 -1 0
vn -0 -1 0
vn -0 -1 0
vn -0 -1 0
vn 1 0 0
vn 1 0 0
vn 1 0 0
vn 1 0 0
vn -0 0 -1
vn -0 0 -1
vn -0 0 -1
vn -0 0 -1
vn -0 0 -1
vn 0.70703125 0.70703125 0
vn 0.70703125 0.70703125 0
vn 0.70703125 0.70703125 0
vn 0.70703125 0.70703125 0
vn -1 0 0
vn -1 0 0
vn -1 0 0
vn -1 0 0
vn -1 0 0
vn -0 0 1
vn -0 0 1
vn -0 0 1
vn -0 0 1
vn -0 0.70703125 0.70703125
vn -0 0.70703125 0.70703125
vn -0 0.70703125 0.70703125
vn -0 0.70703125 0.70703125
vn 0.6176758 0.4868164 0.6176758
vn 0.6176758 0.4868164 0.6176758
vn 0.6176758 0.4868164 0.6176758
vn 0.6176758 0.4868164 0.6176758
vn 0.02923584 -0.30029297 0.9536133
vn 0.02923584 -0.30029297 0.9536133
vn 0.02923584 -0.30029297 0.9536133
vn 0.02923584 -0.30029297 0.9536133
vn 0.6176758 -0.4868164 0.6176758
vn 0.6176758 -0.4868164 0.6176758
vn 0.6176758 -0.4868164 0.6176758
vn 0.6176758 -0.4868164 0.6176758
vn 0.9536133 -0.30029297 0.029251099
vn 0.9536133 -0.30029297 0.029251099
vn 0.9536133 -0.30029297 0.029251099
vn 0.9536133 -0.30029297 0.029251099
vn -0.017822266 -0.9995117 -0.017822266
vn -0.017822266 -0.9995117 -0.017822266
vn -0.017822266 -0.9995117 -0.017822266
vn -0.017822266 -0.9995117 -0.017822266
vn -0.42578125 -0.79833984 -0.42578125
vn -0.42578125 -0.79833984 -0.42578125
vn -0.42578125 -0.79833984 -0.42578125
vn -0.42578125 -0.79833984 -0.42578125
g b003v001_h_0
f 3/3/3 2/2/2 1/1/1
f 6/6/6 5/5/5 4/4/4
f 9/9/9 8/8/8 7/7/7
f 12/12/12 11/11/11 10/10/10
f 15/15/15 14/14/14 13/13/13
f 16/16/16 15/15/15 13/13/13
f 19/19/19 18/18/18 17/17/17
f 20/20/20 19/19/19 17/17/17
f 23/23/23 22/22/22 21/21/21
f 24/24/24 23/23/23 21/21/21
f 27/27/27 26/26/26 25/25/25
f 28/28/28 27/27/27 25/25/25
f 31/31/31 30/30/30 29/29/29
f 32/32/32 31/31/31 29/29/29
f 35/35/35 34/34/34 33/33/33
f 34/34/34 36/36/36 33/33/33
f 34/34/34 37/37/37 36/36/36
f 38/38/38 36/36/36 37/37/37
f 41/41/41 40/40/40 39/39/39
f 42/42/42 41/41/41 39/39/39
f 45/45/45 44/44/44 43/43/43
f 44/44/44 46/46/46 43/43/43
f 43/43/43 46/46/46 47/47/47
f 46/46/46 48/48/48 47/47/47
f 51/51/51 50/50/50 49/49/49
f 52/52/52 51/51/51 49/49/49
f 55/55/55 54/54/54 53/53/53
f 56/56/56 55/55/55 53/53/53
f 59/59/59 58/58/58 57/57/57
f 58/58/58 60/60/60 57/57/57
f 63/63/63 62/62/62 61/61/61
f 64/64/64 63/63/63 61/61/61
f 67/67/67 66/66/66 65/65/65
f 65/65/65 68/68/68 67/67/67
f 65/65/65 69/69/69 68/68/68
f 72/72/72 71/71/71 70/70/70
f 73/73/73 72/72/72 70/70/70
f 76/76/76 75/75/75 74/74/74
f 74/74/74 77/77/77 76/76/76
f 77/77/77 78/78/78 76/76/76
f 81/81/81 80/80/80 79/79/79
f 82/82/82 81/81/81 79/79/79
f 85/85/85 84/84/84 83/83/83
f 86/86/86 85/85/85 83/83/83
f 89/89/89 88/88/88 87/87/87
f 90/90/90 89/89/89 87/87/87
f 93/93/93 92/92/92 91/91/91
f 94/94/94 93/93/93 91/91/91
f 97/97/97 96/96/96 95/95/95
f 98/98/98 97/97/97 95/95/95
f 101/101/101 100/100/100 99/99/99
f 102/102/102 101/101/101 99/99/99
f 105/105/105 104/104/104 103/103/103
f 106/106/106 105/105/105 103/103/103
f 109/109/109 108/108/108 107/107/107
f 110/110/110 109/109/109 107/107/107
